G75*
%MOIN*%
%OFA0B0*%
%FSLAX24Y24*%
%IPPOS*%
%LPD*%
%AMOC8*
5,1,8,0,0,1.08239X$1,22.5*
%
%ADD10C,0.0000*%
%ADD11C,0.0030*%
%ADD12C,0.0060*%
%ADD13C,0.0050*%
%ADD14C,0.0080*%
%ADD15C,0.0157*%
%ADD16C,0.0040*%
D10*
X000100Y000100D02*
X000100Y019600D01*
X019600Y019600D01*
X019600Y000100D01*
X000100Y000100D01*
X000470Y001100D02*
X000472Y001150D01*
X000478Y001200D01*
X000488Y001249D01*
X000502Y001297D01*
X000519Y001344D01*
X000540Y001389D01*
X000565Y001433D01*
X000593Y001474D01*
X000625Y001513D01*
X000659Y001550D01*
X000696Y001584D01*
X000736Y001614D01*
X000778Y001641D01*
X000822Y001665D01*
X000868Y001686D01*
X000915Y001702D01*
X000963Y001715D01*
X001013Y001724D01*
X001062Y001729D01*
X001113Y001730D01*
X001163Y001727D01*
X001212Y001720D01*
X001261Y001709D01*
X001309Y001694D01*
X001355Y001676D01*
X001400Y001654D01*
X001443Y001628D01*
X001484Y001599D01*
X001523Y001567D01*
X001559Y001532D01*
X001591Y001494D01*
X001621Y001454D01*
X001648Y001411D01*
X001671Y001367D01*
X001690Y001321D01*
X001706Y001273D01*
X001718Y001224D01*
X001726Y001175D01*
X001730Y001125D01*
X001730Y001075D01*
X001726Y001025D01*
X001718Y000976D01*
X001706Y000927D01*
X001690Y000879D01*
X001671Y000833D01*
X001648Y000789D01*
X001621Y000746D01*
X001591Y000706D01*
X001559Y000668D01*
X001523Y000633D01*
X001484Y000601D01*
X001443Y000572D01*
X001400Y000546D01*
X001355Y000524D01*
X001309Y000506D01*
X001261Y000491D01*
X001212Y000480D01*
X001163Y000473D01*
X001113Y000470D01*
X001062Y000471D01*
X001013Y000476D01*
X000963Y000485D01*
X000915Y000498D01*
X000868Y000514D01*
X000822Y000535D01*
X000778Y000559D01*
X000736Y000586D01*
X000696Y000616D01*
X000659Y000650D01*
X000625Y000687D01*
X000593Y000726D01*
X000565Y000767D01*
X000540Y000811D01*
X000519Y000856D01*
X000502Y000903D01*
X000488Y000951D01*
X000478Y001000D01*
X000472Y001050D01*
X000470Y001100D01*
X000470Y018600D02*
X000472Y018650D01*
X000478Y018700D01*
X000488Y018749D01*
X000502Y018797D01*
X000519Y018844D01*
X000540Y018889D01*
X000565Y018933D01*
X000593Y018974D01*
X000625Y019013D01*
X000659Y019050D01*
X000696Y019084D01*
X000736Y019114D01*
X000778Y019141D01*
X000822Y019165D01*
X000868Y019186D01*
X000915Y019202D01*
X000963Y019215D01*
X001013Y019224D01*
X001062Y019229D01*
X001113Y019230D01*
X001163Y019227D01*
X001212Y019220D01*
X001261Y019209D01*
X001309Y019194D01*
X001355Y019176D01*
X001400Y019154D01*
X001443Y019128D01*
X001484Y019099D01*
X001523Y019067D01*
X001559Y019032D01*
X001591Y018994D01*
X001621Y018954D01*
X001648Y018911D01*
X001671Y018867D01*
X001690Y018821D01*
X001706Y018773D01*
X001718Y018724D01*
X001726Y018675D01*
X001730Y018625D01*
X001730Y018575D01*
X001726Y018525D01*
X001718Y018476D01*
X001706Y018427D01*
X001690Y018379D01*
X001671Y018333D01*
X001648Y018289D01*
X001621Y018246D01*
X001591Y018206D01*
X001559Y018168D01*
X001523Y018133D01*
X001484Y018101D01*
X001443Y018072D01*
X001400Y018046D01*
X001355Y018024D01*
X001309Y018006D01*
X001261Y017991D01*
X001212Y017980D01*
X001163Y017973D01*
X001113Y017970D01*
X001062Y017971D01*
X001013Y017976D01*
X000963Y017985D01*
X000915Y017998D01*
X000868Y018014D01*
X000822Y018035D01*
X000778Y018059D01*
X000736Y018086D01*
X000696Y018116D01*
X000659Y018150D01*
X000625Y018187D01*
X000593Y018226D01*
X000565Y018267D01*
X000540Y018311D01*
X000519Y018356D01*
X000502Y018403D01*
X000488Y018451D01*
X000478Y018500D01*
X000472Y018550D01*
X000470Y018600D01*
X017970Y018600D02*
X017972Y018650D01*
X017978Y018700D01*
X017988Y018749D01*
X018002Y018797D01*
X018019Y018844D01*
X018040Y018889D01*
X018065Y018933D01*
X018093Y018974D01*
X018125Y019013D01*
X018159Y019050D01*
X018196Y019084D01*
X018236Y019114D01*
X018278Y019141D01*
X018322Y019165D01*
X018368Y019186D01*
X018415Y019202D01*
X018463Y019215D01*
X018513Y019224D01*
X018562Y019229D01*
X018613Y019230D01*
X018663Y019227D01*
X018712Y019220D01*
X018761Y019209D01*
X018809Y019194D01*
X018855Y019176D01*
X018900Y019154D01*
X018943Y019128D01*
X018984Y019099D01*
X019023Y019067D01*
X019059Y019032D01*
X019091Y018994D01*
X019121Y018954D01*
X019148Y018911D01*
X019171Y018867D01*
X019190Y018821D01*
X019206Y018773D01*
X019218Y018724D01*
X019226Y018675D01*
X019230Y018625D01*
X019230Y018575D01*
X019226Y018525D01*
X019218Y018476D01*
X019206Y018427D01*
X019190Y018379D01*
X019171Y018333D01*
X019148Y018289D01*
X019121Y018246D01*
X019091Y018206D01*
X019059Y018168D01*
X019023Y018133D01*
X018984Y018101D01*
X018943Y018072D01*
X018900Y018046D01*
X018855Y018024D01*
X018809Y018006D01*
X018761Y017991D01*
X018712Y017980D01*
X018663Y017973D01*
X018613Y017970D01*
X018562Y017971D01*
X018513Y017976D01*
X018463Y017985D01*
X018415Y017998D01*
X018368Y018014D01*
X018322Y018035D01*
X018278Y018059D01*
X018236Y018086D01*
X018196Y018116D01*
X018159Y018150D01*
X018125Y018187D01*
X018093Y018226D01*
X018065Y018267D01*
X018040Y018311D01*
X018019Y018356D01*
X018002Y018403D01*
X017988Y018451D01*
X017978Y018500D01*
X017972Y018550D01*
X017970Y018600D01*
X017970Y001100D02*
X017972Y001150D01*
X017978Y001200D01*
X017988Y001249D01*
X018002Y001297D01*
X018019Y001344D01*
X018040Y001389D01*
X018065Y001433D01*
X018093Y001474D01*
X018125Y001513D01*
X018159Y001550D01*
X018196Y001584D01*
X018236Y001614D01*
X018278Y001641D01*
X018322Y001665D01*
X018368Y001686D01*
X018415Y001702D01*
X018463Y001715D01*
X018513Y001724D01*
X018562Y001729D01*
X018613Y001730D01*
X018663Y001727D01*
X018712Y001720D01*
X018761Y001709D01*
X018809Y001694D01*
X018855Y001676D01*
X018900Y001654D01*
X018943Y001628D01*
X018984Y001599D01*
X019023Y001567D01*
X019059Y001532D01*
X019091Y001494D01*
X019121Y001454D01*
X019148Y001411D01*
X019171Y001367D01*
X019190Y001321D01*
X019206Y001273D01*
X019218Y001224D01*
X019226Y001175D01*
X019230Y001125D01*
X019230Y001075D01*
X019226Y001025D01*
X019218Y000976D01*
X019206Y000927D01*
X019190Y000879D01*
X019171Y000833D01*
X019148Y000789D01*
X019121Y000746D01*
X019091Y000706D01*
X019059Y000668D01*
X019023Y000633D01*
X018984Y000601D01*
X018943Y000572D01*
X018900Y000546D01*
X018855Y000524D01*
X018809Y000506D01*
X018761Y000491D01*
X018712Y000480D01*
X018663Y000473D01*
X018613Y000470D01*
X018562Y000471D01*
X018513Y000476D01*
X018463Y000485D01*
X018415Y000498D01*
X018368Y000514D01*
X018322Y000535D01*
X018278Y000559D01*
X018236Y000586D01*
X018196Y000616D01*
X018159Y000650D01*
X018125Y000687D01*
X018093Y000726D01*
X018065Y000767D01*
X018040Y000811D01*
X018019Y000856D01*
X018002Y000903D01*
X017988Y000951D01*
X017978Y001000D01*
X017972Y001050D01*
X017970Y001100D01*
D11*
X005385Y008613D02*
X005071Y008927D01*
X005071Y008770D02*
X005385Y008770D01*
X005385Y008927D02*
X005071Y008613D01*
X005228Y008613D02*
X005228Y008927D01*
X004085Y009615D02*
X003838Y009615D01*
X003962Y009615D02*
X003962Y009985D01*
X004085Y009862D01*
X003717Y009924D02*
X003717Y009677D01*
X003470Y009924D01*
X003470Y009677D01*
X003532Y009615D01*
X003655Y009615D01*
X003717Y009677D01*
X003717Y009924D02*
X003655Y009985D01*
X003532Y009985D01*
X003470Y009924D01*
X003348Y009924D02*
X003348Y009677D01*
X003101Y009924D01*
X003101Y009677D01*
X003163Y009615D01*
X003287Y009615D01*
X003348Y009677D01*
X003348Y009924D02*
X003287Y009985D01*
X003163Y009985D01*
X003101Y009924D01*
X002980Y009862D02*
X002980Y009677D01*
X002918Y009615D01*
X002733Y009615D01*
X002733Y009862D01*
X002524Y008744D02*
X002585Y008682D01*
X002585Y008558D01*
X002524Y008497D01*
X002585Y008375D02*
X002524Y008252D01*
X002400Y008128D01*
X002400Y008314D01*
X002338Y008375D01*
X002277Y008375D01*
X002215Y008314D01*
X002215Y008190D01*
X002277Y008128D01*
X002400Y008128D01*
X002338Y008007D02*
X002400Y007945D01*
X002400Y007760D01*
X002277Y007760D01*
X002215Y007822D01*
X002215Y007945D01*
X002277Y008007D01*
X002338Y008007D01*
X002524Y007883D02*
X002400Y007760D01*
X002462Y007639D02*
X002524Y007639D01*
X002585Y007577D01*
X002585Y007453D01*
X002524Y007392D01*
X002585Y007270D02*
X002215Y007270D01*
X002215Y007392D02*
X002462Y007639D01*
X002215Y007639D02*
X002215Y007392D01*
X002462Y007147D02*
X002585Y007270D01*
X002462Y007147D02*
X002585Y007023D01*
X002215Y007023D01*
X002215Y006902D02*
X002215Y006655D01*
X002585Y006655D01*
X002524Y007883D02*
X002585Y008007D01*
X002215Y008497D02*
X002462Y008744D01*
X002524Y008744D01*
X002215Y008744D02*
X002215Y008497D01*
X003532Y011115D02*
X003470Y011177D01*
X003470Y011238D01*
X003532Y011300D01*
X003717Y011300D01*
X003717Y011177D01*
X003655Y011115D01*
X003532Y011115D01*
X003717Y011300D02*
X003593Y011424D01*
X003470Y011485D01*
X003838Y011424D02*
X003900Y011485D01*
X004023Y011485D01*
X004085Y011424D01*
X004085Y011177D01*
X004023Y011115D01*
X003900Y011115D01*
X003838Y011177D01*
X002585Y012655D02*
X002215Y012655D01*
X002215Y012902D01*
X002215Y013023D02*
X002585Y013023D01*
X002462Y013147D01*
X002585Y013270D01*
X002215Y013270D01*
X002215Y013392D02*
X002462Y013639D01*
X002524Y013639D01*
X002585Y013577D01*
X002585Y013453D01*
X002524Y013392D01*
X002215Y013392D02*
X002215Y013639D01*
X002277Y013760D02*
X002215Y013822D01*
X002215Y013945D01*
X002277Y014007D01*
X002338Y014007D01*
X002400Y013945D01*
X002400Y013760D01*
X002277Y013760D01*
X002400Y013760D02*
X002524Y013883D01*
X002585Y014007D01*
X002400Y014128D02*
X002400Y014314D01*
X002338Y014375D01*
X002277Y014375D01*
X002215Y014314D01*
X002215Y014190D01*
X002277Y014128D01*
X002400Y014128D01*
X002524Y014252D01*
X002585Y014375D01*
X002524Y014497D02*
X002585Y014558D01*
X002585Y014682D01*
X002524Y014744D01*
X002462Y014744D01*
X002215Y014497D01*
X002215Y014744D01*
X005071Y014770D02*
X005385Y014770D01*
X005385Y014613D02*
X005071Y014927D01*
X005228Y014927D02*
X005228Y014613D01*
X005071Y014613D02*
X005385Y014927D01*
D12*
X004640Y014580D02*
X004220Y014580D01*
X003560Y014580D01*
X003980Y014590D02*
X003981Y014569D01*
X003986Y014549D01*
X003994Y014529D01*
X004005Y014512D01*
X004019Y014496D01*
X004036Y014484D01*
X004054Y014474D01*
X004074Y014468D01*
X004095Y014465D01*
X004116Y014466D01*
X004136Y014471D01*
X004156Y014479D01*
X004173Y014490D01*
X004189Y014504D01*
X004201Y014521D01*
X004211Y014539D01*
X004217Y014559D01*
X004220Y014580D01*
X004640Y012620D02*
X003560Y012620D01*
X006450Y014800D02*
X006450Y015400D01*
X006452Y015417D01*
X006456Y015434D01*
X006463Y015450D01*
X006473Y015464D01*
X006486Y015477D01*
X006500Y015487D01*
X006516Y015494D01*
X006533Y015498D01*
X006550Y015500D01*
X007650Y015500D01*
X007667Y015498D01*
X007684Y015494D01*
X007700Y015487D01*
X007714Y015477D01*
X007727Y015464D01*
X007737Y015450D01*
X007744Y015434D01*
X007748Y015417D01*
X007750Y015400D01*
X007750Y014800D01*
X007748Y014783D01*
X007744Y014766D01*
X007737Y014750D01*
X007727Y014736D01*
X007714Y014723D01*
X007700Y014713D01*
X007684Y014706D01*
X007667Y014702D01*
X007650Y014700D01*
X006550Y014700D01*
X006533Y014702D01*
X006516Y014706D01*
X006500Y014713D01*
X006486Y014723D01*
X006473Y014736D01*
X006463Y014750D01*
X006456Y014766D01*
X006452Y014783D01*
X006450Y014800D01*
X007050Y010500D02*
X007650Y010500D01*
X007667Y010498D01*
X007684Y010494D01*
X007700Y010487D01*
X007714Y010477D01*
X007727Y010464D01*
X007737Y010450D01*
X007744Y010434D01*
X007748Y010417D01*
X007750Y010400D01*
X007750Y009300D01*
X007748Y009283D01*
X007744Y009266D01*
X007737Y009250D01*
X007727Y009236D01*
X007714Y009223D01*
X007700Y009213D01*
X007684Y009206D01*
X007667Y009202D01*
X007650Y009200D01*
X007050Y009200D01*
X007033Y009202D01*
X007016Y009206D01*
X007000Y009213D01*
X006986Y009223D01*
X006973Y009236D01*
X006963Y009250D01*
X006956Y009266D01*
X006952Y009283D01*
X006950Y009300D01*
X006950Y010400D01*
X006952Y010417D01*
X006956Y010434D01*
X006963Y010450D01*
X006973Y010464D01*
X006986Y010477D01*
X007000Y010487D01*
X007016Y010494D01*
X007033Y010498D01*
X007050Y010500D01*
X004640Y008580D02*
X004220Y008580D01*
X003560Y008580D01*
X003980Y008590D02*
X003981Y008569D01*
X003986Y008549D01*
X003994Y008529D01*
X004005Y008512D01*
X004019Y008496D01*
X004036Y008484D01*
X004054Y008474D01*
X004074Y008468D01*
X004095Y008465D01*
X004116Y008466D01*
X004136Y008471D01*
X004156Y008479D01*
X004173Y008490D01*
X004189Y008504D01*
X004201Y008521D01*
X004211Y008539D01*
X004217Y008559D01*
X004220Y008580D01*
X004640Y006620D02*
X003560Y006620D01*
D13*
X002498Y005730D02*
X002261Y005494D01*
X002261Y004706D01*
X002498Y004470D01*
X004860Y004470D01*
X004860Y005730D01*
X002498Y005730D01*
D14*
X002813Y009616D02*
X002025Y009616D01*
X001631Y010009D01*
X001631Y011191D01*
X002025Y011584D01*
X002813Y011584D01*
X004387Y011584D02*
X005569Y011584D01*
X005569Y009616D01*
X004387Y009616D01*
X007990Y008163D02*
X007990Y007494D01*
X007990Y008163D02*
X008128Y008320D01*
X009092Y008320D01*
X009210Y008163D01*
X009210Y007494D01*
X009210Y006746D02*
X009210Y005880D01*
X007970Y005880D01*
X007970Y006746D01*
X010470Y006746D02*
X010470Y005880D01*
X011710Y005880D01*
X011710Y006746D01*
X011710Y007494D02*
X011710Y008163D01*
X011592Y008320D01*
X010628Y008320D01*
X010490Y008163D01*
X010490Y007494D01*
X010470Y011380D02*
X011710Y011380D01*
X011710Y012246D01*
X011710Y012994D02*
X011710Y013663D01*
X011592Y013820D01*
X010628Y013820D01*
X010490Y013663D01*
X010490Y012994D01*
X010470Y012246D02*
X010470Y011380D01*
X009210Y011380D02*
X009210Y012246D01*
X009210Y012994D02*
X009210Y013663D01*
X009092Y013820D01*
X008128Y013820D01*
X007990Y013663D01*
X007990Y012994D01*
X007970Y012246D02*
X007970Y011380D01*
X009210Y011380D01*
D15*
X009116Y012840D02*
X008094Y012840D01*
X010594Y012840D02*
X011616Y012840D01*
X011616Y007340D02*
X010594Y007340D01*
X009116Y007340D02*
X008094Y007340D01*
D16*
X007724Y007368D02*
X007647Y007291D01*
X007724Y007368D02*
X007724Y007521D01*
X007647Y007598D01*
X007571Y007598D01*
X007264Y007291D01*
X007264Y007598D01*
X007264Y007137D02*
X007264Y006830D01*
X007264Y006984D02*
X007724Y006984D01*
X007571Y006830D01*
X007647Y006677D02*
X007724Y006600D01*
X007724Y006447D01*
X007647Y006370D01*
X007340Y006370D01*
X007264Y006447D01*
X007264Y006600D01*
X007340Y006677D01*
X012014Y006600D02*
X012014Y006447D01*
X012090Y006370D01*
X012397Y006370D01*
X012474Y006447D01*
X012474Y006600D01*
X012397Y006677D01*
X012321Y006830D02*
X012474Y006984D01*
X012014Y006984D01*
X012014Y007137D02*
X012014Y006830D01*
X012090Y006677D02*
X012014Y006600D01*
X012014Y007291D02*
X012014Y007598D01*
X012014Y007444D02*
X012474Y007444D01*
X012321Y007291D01*
X012397Y012120D02*
X012090Y012120D01*
X012014Y012197D01*
X012014Y012350D01*
X012090Y012427D01*
X012244Y012580D02*
X012244Y012887D01*
X012474Y012811D02*
X012244Y012580D01*
X012397Y012427D02*
X012474Y012350D01*
X012474Y012197D01*
X012397Y012120D01*
X012474Y012811D02*
X012014Y012811D01*
X007724Y012887D02*
X007724Y012580D01*
X007647Y012427D02*
X007724Y012350D01*
X007724Y012197D01*
X007647Y012120D01*
X007340Y012120D01*
X007264Y012197D01*
X007264Y012350D01*
X007340Y012427D01*
X007340Y012580D02*
X007264Y012580D01*
X007340Y012580D02*
X007647Y012887D01*
X007724Y012887D01*
M02*
