G75*
%MOIN*%
%OFA0B0*%
%FSLAX24Y24*%
%IPPOS*%
%LPD*%
%AMOC8*
5,1,8,0,0,1.08239X$1,22.5*
%
%ADD10C,0.0000*%
%ADD11C,0.1300*%
%ADD12C,0.0640*%
%ADD13OC8,0.0560*%
%ADD14C,0.0560*%
%ADD15R,0.0820X0.0260*%
%ADD16R,0.0500X0.0670*%
%ADD17R,0.0060X0.0720*%
%ADD18R,0.0631X0.0985*%
%ADD19R,0.0670X0.0500*%
%ADD20R,0.0720X0.0060*%
%ADD21R,0.0749X0.0670*%
%ADD22R,0.1024X0.0709*%
%ADD23OC8,0.0670*%
%ADD24C,0.0670*%
%ADD25R,0.1044X0.1103*%
D10*
X000100Y000100D02*
X000100Y019600D01*
X019600Y019600D01*
X019600Y000100D01*
X000100Y000100D01*
X000470Y001100D02*
X000472Y001150D01*
X000478Y001200D01*
X000488Y001249D01*
X000502Y001297D01*
X000519Y001344D01*
X000540Y001389D01*
X000565Y001433D01*
X000593Y001474D01*
X000625Y001513D01*
X000659Y001550D01*
X000696Y001584D01*
X000736Y001614D01*
X000778Y001641D01*
X000822Y001665D01*
X000868Y001686D01*
X000915Y001702D01*
X000963Y001715D01*
X001013Y001724D01*
X001062Y001729D01*
X001113Y001730D01*
X001163Y001727D01*
X001212Y001720D01*
X001261Y001709D01*
X001309Y001694D01*
X001355Y001676D01*
X001400Y001654D01*
X001443Y001628D01*
X001484Y001599D01*
X001523Y001567D01*
X001559Y001532D01*
X001591Y001494D01*
X001621Y001454D01*
X001648Y001411D01*
X001671Y001367D01*
X001690Y001321D01*
X001706Y001273D01*
X001718Y001224D01*
X001726Y001175D01*
X001730Y001125D01*
X001730Y001075D01*
X001726Y001025D01*
X001718Y000976D01*
X001706Y000927D01*
X001690Y000879D01*
X001671Y000833D01*
X001648Y000789D01*
X001621Y000746D01*
X001591Y000706D01*
X001559Y000668D01*
X001523Y000633D01*
X001484Y000601D01*
X001443Y000572D01*
X001400Y000546D01*
X001355Y000524D01*
X001309Y000506D01*
X001261Y000491D01*
X001212Y000480D01*
X001163Y000473D01*
X001113Y000470D01*
X001062Y000471D01*
X001013Y000476D01*
X000963Y000485D01*
X000915Y000498D01*
X000868Y000514D01*
X000822Y000535D01*
X000778Y000559D01*
X000736Y000586D01*
X000696Y000616D01*
X000659Y000650D01*
X000625Y000687D01*
X000593Y000726D01*
X000565Y000767D01*
X000540Y000811D01*
X000519Y000856D01*
X000502Y000903D01*
X000488Y000951D01*
X000478Y001000D01*
X000472Y001050D01*
X000470Y001100D01*
X000470Y018600D02*
X000472Y018650D01*
X000478Y018700D01*
X000488Y018749D01*
X000502Y018797D01*
X000519Y018844D01*
X000540Y018889D01*
X000565Y018933D01*
X000593Y018974D01*
X000625Y019013D01*
X000659Y019050D01*
X000696Y019084D01*
X000736Y019114D01*
X000778Y019141D01*
X000822Y019165D01*
X000868Y019186D01*
X000915Y019202D01*
X000963Y019215D01*
X001013Y019224D01*
X001062Y019229D01*
X001113Y019230D01*
X001163Y019227D01*
X001212Y019220D01*
X001261Y019209D01*
X001309Y019194D01*
X001355Y019176D01*
X001400Y019154D01*
X001443Y019128D01*
X001484Y019099D01*
X001523Y019067D01*
X001559Y019032D01*
X001591Y018994D01*
X001621Y018954D01*
X001648Y018911D01*
X001671Y018867D01*
X001690Y018821D01*
X001706Y018773D01*
X001718Y018724D01*
X001726Y018675D01*
X001730Y018625D01*
X001730Y018575D01*
X001726Y018525D01*
X001718Y018476D01*
X001706Y018427D01*
X001690Y018379D01*
X001671Y018333D01*
X001648Y018289D01*
X001621Y018246D01*
X001591Y018206D01*
X001559Y018168D01*
X001523Y018133D01*
X001484Y018101D01*
X001443Y018072D01*
X001400Y018046D01*
X001355Y018024D01*
X001309Y018006D01*
X001261Y017991D01*
X001212Y017980D01*
X001163Y017973D01*
X001113Y017970D01*
X001062Y017971D01*
X001013Y017976D01*
X000963Y017985D01*
X000915Y017998D01*
X000868Y018014D01*
X000822Y018035D01*
X000778Y018059D01*
X000736Y018086D01*
X000696Y018116D01*
X000659Y018150D01*
X000625Y018187D01*
X000593Y018226D01*
X000565Y018267D01*
X000540Y018311D01*
X000519Y018356D01*
X000502Y018403D01*
X000488Y018451D01*
X000478Y018500D01*
X000472Y018550D01*
X000470Y018600D01*
X017970Y018600D02*
X017972Y018650D01*
X017978Y018700D01*
X017988Y018749D01*
X018002Y018797D01*
X018019Y018844D01*
X018040Y018889D01*
X018065Y018933D01*
X018093Y018974D01*
X018125Y019013D01*
X018159Y019050D01*
X018196Y019084D01*
X018236Y019114D01*
X018278Y019141D01*
X018322Y019165D01*
X018368Y019186D01*
X018415Y019202D01*
X018463Y019215D01*
X018513Y019224D01*
X018562Y019229D01*
X018613Y019230D01*
X018663Y019227D01*
X018712Y019220D01*
X018761Y019209D01*
X018809Y019194D01*
X018855Y019176D01*
X018900Y019154D01*
X018943Y019128D01*
X018984Y019099D01*
X019023Y019067D01*
X019059Y019032D01*
X019091Y018994D01*
X019121Y018954D01*
X019148Y018911D01*
X019171Y018867D01*
X019190Y018821D01*
X019206Y018773D01*
X019218Y018724D01*
X019226Y018675D01*
X019230Y018625D01*
X019230Y018575D01*
X019226Y018525D01*
X019218Y018476D01*
X019206Y018427D01*
X019190Y018379D01*
X019171Y018333D01*
X019148Y018289D01*
X019121Y018246D01*
X019091Y018206D01*
X019059Y018168D01*
X019023Y018133D01*
X018984Y018101D01*
X018943Y018072D01*
X018900Y018046D01*
X018855Y018024D01*
X018809Y018006D01*
X018761Y017991D01*
X018712Y017980D01*
X018663Y017973D01*
X018613Y017970D01*
X018562Y017971D01*
X018513Y017976D01*
X018463Y017985D01*
X018415Y017998D01*
X018368Y018014D01*
X018322Y018035D01*
X018278Y018059D01*
X018236Y018086D01*
X018196Y018116D01*
X018159Y018150D01*
X018125Y018187D01*
X018093Y018226D01*
X018065Y018267D01*
X018040Y018311D01*
X018019Y018356D01*
X018002Y018403D01*
X017988Y018451D01*
X017978Y018500D01*
X017972Y018550D01*
X017970Y018600D01*
X017970Y001100D02*
X017972Y001150D01*
X017978Y001200D01*
X017988Y001249D01*
X018002Y001297D01*
X018019Y001344D01*
X018040Y001389D01*
X018065Y001433D01*
X018093Y001474D01*
X018125Y001513D01*
X018159Y001550D01*
X018196Y001584D01*
X018236Y001614D01*
X018278Y001641D01*
X018322Y001665D01*
X018368Y001686D01*
X018415Y001702D01*
X018463Y001715D01*
X018513Y001724D01*
X018562Y001729D01*
X018613Y001730D01*
X018663Y001727D01*
X018712Y001720D01*
X018761Y001709D01*
X018809Y001694D01*
X018855Y001676D01*
X018900Y001654D01*
X018943Y001628D01*
X018984Y001599D01*
X019023Y001567D01*
X019059Y001532D01*
X019091Y001494D01*
X019121Y001454D01*
X019148Y001411D01*
X019171Y001367D01*
X019190Y001321D01*
X019206Y001273D01*
X019218Y001224D01*
X019226Y001175D01*
X019230Y001125D01*
X019230Y001075D01*
X019226Y001025D01*
X019218Y000976D01*
X019206Y000927D01*
X019190Y000879D01*
X019171Y000833D01*
X019148Y000789D01*
X019121Y000746D01*
X019091Y000706D01*
X019059Y000668D01*
X019023Y000633D01*
X018984Y000601D01*
X018943Y000572D01*
X018900Y000546D01*
X018855Y000524D01*
X018809Y000506D01*
X018761Y000491D01*
X018712Y000480D01*
X018663Y000473D01*
X018613Y000470D01*
X018562Y000471D01*
X018513Y000476D01*
X018463Y000485D01*
X018415Y000498D01*
X018368Y000514D01*
X018322Y000535D01*
X018278Y000559D01*
X018236Y000586D01*
X018196Y000616D01*
X018159Y000650D01*
X018125Y000687D01*
X018093Y000726D01*
X018065Y000767D01*
X018040Y000811D01*
X018019Y000856D01*
X018002Y000903D01*
X017988Y000951D01*
X017978Y001000D01*
X017972Y001050D01*
X017970Y001100D01*
D11*
X018600Y001100D03*
X018600Y018600D03*
X001100Y018600D03*
X001100Y001100D03*
D12*
X009350Y002300D02*
X009350Y002900D01*
X010350Y002900D02*
X010350Y002300D01*
X010350Y016550D02*
X010350Y017150D01*
X009350Y017150D02*
X009350Y016550D01*
D13*
X006100Y016950D03*
D14*
X006100Y017750D03*
D15*
X014630Y014350D03*
X014630Y013850D03*
X014630Y013350D03*
X014630Y012850D03*
X016570Y012850D03*
X016570Y013350D03*
X016570Y013850D03*
X016570Y014350D03*
X016570Y008350D03*
X016570Y007850D03*
X016570Y007350D03*
X016570Y006850D03*
X014630Y006850D03*
X014630Y007350D03*
X014630Y007850D03*
X014630Y008350D03*
D16*
X012900Y015100D03*
X012300Y015100D03*
D17*
X012600Y015100D03*
D18*
X015194Y005100D03*
X017006Y005100D03*
D19*
X012350Y009550D03*
X012350Y010150D03*
D20*
X012350Y009850D03*
D21*
X013350Y016799D03*
X013350Y017901D03*
D22*
X011100Y013348D03*
X011100Y011852D03*
X008600Y011852D03*
X008600Y013348D03*
X008600Y007848D03*
X008600Y006352D03*
X011100Y006352D03*
X011100Y007848D03*
D23*
X013100Y003100D03*
X006600Y003100D03*
D24*
X006600Y002100D03*
X013100Y002100D03*
D25*
X014852Y010600D03*
X017348Y010600D03*
M02*
