G75*
%MOIN*%
%OFA0B0*%
%FSLAX24Y24*%
%IPPOS*%
%LPD*%
%AMOC8*
5,1,8,0,0,1.08239X$1,22.5*
%
%ADD10C,0.0000*%
%ADD11C,0.0600*%
%ADD12OC8,0.0520*%
%ADD13C,0.0520*%
%ADD14R,0.0780X0.0220*%
%ADD15R,0.0460X0.0630*%
%ADD16R,0.0591X0.0945*%
%ADD17R,0.0630X0.0460*%
%ADD18R,0.0984X0.0669*%
%ADD19OC8,0.0630*%
%ADD20C,0.0630*%
%ADD21R,0.1004X0.1063*%
%ADD22C,0.0240*%
%ADD23C,0.0120*%
%ADD24C,0.0500*%
D10*
X000100Y000100D02*
X000100Y019600D01*
X019600Y019600D01*
X019600Y000100D01*
X000100Y000100D01*
X000470Y001100D02*
X000472Y001150D01*
X000478Y001200D01*
X000488Y001249D01*
X000502Y001297D01*
X000519Y001344D01*
X000540Y001389D01*
X000565Y001433D01*
X000593Y001474D01*
X000625Y001513D01*
X000659Y001550D01*
X000696Y001584D01*
X000736Y001614D01*
X000778Y001641D01*
X000822Y001665D01*
X000868Y001686D01*
X000915Y001702D01*
X000963Y001715D01*
X001013Y001724D01*
X001062Y001729D01*
X001113Y001730D01*
X001163Y001727D01*
X001212Y001720D01*
X001261Y001709D01*
X001309Y001694D01*
X001355Y001676D01*
X001400Y001654D01*
X001443Y001628D01*
X001484Y001599D01*
X001523Y001567D01*
X001559Y001532D01*
X001591Y001494D01*
X001621Y001454D01*
X001648Y001411D01*
X001671Y001367D01*
X001690Y001321D01*
X001706Y001273D01*
X001718Y001224D01*
X001726Y001175D01*
X001730Y001125D01*
X001730Y001075D01*
X001726Y001025D01*
X001718Y000976D01*
X001706Y000927D01*
X001690Y000879D01*
X001671Y000833D01*
X001648Y000789D01*
X001621Y000746D01*
X001591Y000706D01*
X001559Y000668D01*
X001523Y000633D01*
X001484Y000601D01*
X001443Y000572D01*
X001400Y000546D01*
X001355Y000524D01*
X001309Y000506D01*
X001261Y000491D01*
X001212Y000480D01*
X001163Y000473D01*
X001113Y000470D01*
X001062Y000471D01*
X001013Y000476D01*
X000963Y000485D01*
X000915Y000498D01*
X000868Y000514D01*
X000822Y000535D01*
X000778Y000559D01*
X000736Y000586D01*
X000696Y000616D01*
X000659Y000650D01*
X000625Y000687D01*
X000593Y000726D01*
X000565Y000767D01*
X000540Y000811D01*
X000519Y000856D01*
X000502Y000903D01*
X000488Y000951D01*
X000478Y001000D01*
X000472Y001050D01*
X000470Y001100D01*
X000470Y018600D02*
X000472Y018650D01*
X000478Y018700D01*
X000488Y018749D01*
X000502Y018797D01*
X000519Y018844D01*
X000540Y018889D01*
X000565Y018933D01*
X000593Y018974D01*
X000625Y019013D01*
X000659Y019050D01*
X000696Y019084D01*
X000736Y019114D01*
X000778Y019141D01*
X000822Y019165D01*
X000868Y019186D01*
X000915Y019202D01*
X000963Y019215D01*
X001013Y019224D01*
X001062Y019229D01*
X001113Y019230D01*
X001163Y019227D01*
X001212Y019220D01*
X001261Y019209D01*
X001309Y019194D01*
X001355Y019176D01*
X001400Y019154D01*
X001443Y019128D01*
X001484Y019099D01*
X001523Y019067D01*
X001559Y019032D01*
X001591Y018994D01*
X001621Y018954D01*
X001648Y018911D01*
X001671Y018867D01*
X001690Y018821D01*
X001706Y018773D01*
X001718Y018724D01*
X001726Y018675D01*
X001730Y018625D01*
X001730Y018575D01*
X001726Y018525D01*
X001718Y018476D01*
X001706Y018427D01*
X001690Y018379D01*
X001671Y018333D01*
X001648Y018289D01*
X001621Y018246D01*
X001591Y018206D01*
X001559Y018168D01*
X001523Y018133D01*
X001484Y018101D01*
X001443Y018072D01*
X001400Y018046D01*
X001355Y018024D01*
X001309Y018006D01*
X001261Y017991D01*
X001212Y017980D01*
X001163Y017973D01*
X001113Y017970D01*
X001062Y017971D01*
X001013Y017976D01*
X000963Y017985D01*
X000915Y017998D01*
X000868Y018014D01*
X000822Y018035D01*
X000778Y018059D01*
X000736Y018086D01*
X000696Y018116D01*
X000659Y018150D01*
X000625Y018187D01*
X000593Y018226D01*
X000565Y018267D01*
X000540Y018311D01*
X000519Y018356D01*
X000502Y018403D01*
X000488Y018451D01*
X000478Y018500D01*
X000472Y018550D01*
X000470Y018600D01*
X017970Y018600D02*
X017972Y018650D01*
X017978Y018700D01*
X017988Y018749D01*
X018002Y018797D01*
X018019Y018844D01*
X018040Y018889D01*
X018065Y018933D01*
X018093Y018974D01*
X018125Y019013D01*
X018159Y019050D01*
X018196Y019084D01*
X018236Y019114D01*
X018278Y019141D01*
X018322Y019165D01*
X018368Y019186D01*
X018415Y019202D01*
X018463Y019215D01*
X018513Y019224D01*
X018562Y019229D01*
X018613Y019230D01*
X018663Y019227D01*
X018712Y019220D01*
X018761Y019209D01*
X018809Y019194D01*
X018855Y019176D01*
X018900Y019154D01*
X018943Y019128D01*
X018984Y019099D01*
X019023Y019067D01*
X019059Y019032D01*
X019091Y018994D01*
X019121Y018954D01*
X019148Y018911D01*
X019171Y018867D01*
X019190Y018821D01*
X019206Y018773D01*
X019218Y018724D01*
X019226Y018675D01*
X019230Y018625D01*
X019230Y018575D01*
X019226Y018525D01*
X019218Y018476D01*
X019206Y018427D01*
X019190Y018379D01*
X019171Y018333D01*
X019148Y018289D01*
X019121Y018246D01*
X019091Y018206D01*
X019059Y018168D01*
X019023Y018133D01*
X018984Y018101D01*
X018943Y018072D01*
X018900Y018046D01*
X018855Y018024D01*
X018809Y018006D01*
X018761Y017991D01*
X018712Y017980D01*
X018663Y017973D01*
X018613Y017970D01*
X018562Y017971D01*
X018513Y017976D01*
X018463Y017985D01*
X018415Y017998D01*
X018368Y018014D01*
X018322Y018035D01*
X018278Y018059D01*
X018236Y018086D01*
X018196Y018116D01*
X018159Y018150D01*
X018125Y018187D01*
X018093Y018226D01*
X018065Y018267D01*
X018040Y018311D01*
X018019Y018356D01*
X018002Y018403D01*
X017988Y018451D01*
X017978Y018500D01*
X017972Y018550D01*
X017970Y018600D01*
X017970Y001100D02*
X017972Y001150D01*
X017978Y001200D01*
X017988Y001249D01*
X018002Y001297D01*
X018019Y001344D01*
X018040Y001389D01*
X018065Y001433D01*
X018093Y001474D01*
X018125Y001513D01*
X018159Y001550D01*
X018196Y001584D01*
X018236Y001614D01*
X018278Y001641D01*
X018322Y001665D01*
X018368Y001686D01*
X018415Y001702D01*
X018463Y001715D01*
X018513Y001724D01*
X018562Y001729D01*
X018613Y001730D01*
X018663Y001727D01*
X018712Y001720D01*
X018761Y001709D01*
X018809Y001694D01*
X018855Y001676D01*
X018900Y001654D01*
X018943Y001628D01*
X018984Y001599D01*
X019023Y001567D01*
X019059Y001532D01*
X019091Y001494D01*
X019121Y001454D01*
X019148Y001411D01*
X019171Y001367D01*
X019190Y001321D01*
X019206Y001273D01*
X019218Y001224D01*
X019226Y001175D01*
X019230Y001125D01*
X019230Y001075D01*
X019226Y001025D01*
X019218Y000976D01*
X019206Y000927D01*
X019190Y000879D01*
X019171Y000833D01*
X019148Y000789D01*
X019121Y000746D01*
X019091Y000706D01*
X019059Y000668D01*
X019023Y000633D01*
X018984Y000601D01*
X018943Y000572D01*
X018900Y000546D01*
X018855Y000524D01*
X018809Y000506D01*
X018761Y000491D01*
X018712Y000480D01*
X018663Y000473D01*
X018613Y000470D01*
X018562Y000471D01*
X018513Y000476D01*
X018463Y000485D01*
X018415Y000498D01*
X018368Y000514D01*
X018322Y000535D01*
X018278Y000559D01*
X018236Y000586D01*
X018196Y000616D01*
X018159Y000650D01*
X018125Y000687D01*
X018093Y000726D01*
X018065Y000767D01*
X018040Y000811D01*
X018019Y000856D01*
X018002Y000903D01*
X017988Y000951D01*
X017978Y001000D01*
X017972Y001050D01*
X017970Y001100D01*
D11*
X010350Y002300D02*
X010350Y002900D01*
X009350Y002900D02*
X009350Y002300D01*
X009350Y016550D02*
X009350Y017150D01*
X010350Y017150D02*
X010350Y016550D01*
D12*
X006100Y016950D03*
D13*
X006100Y017750D03*
D14*
X005070Y014350D03*
X005070Y013850D03*
X005070Y013350D03*
X005070Y012850D03*
X003130Y012850D03*
X003130Y013350D03*
X003130Y013850D03*
X003130Y014350D03*
X003130Y008350D03*
X003130Y007850D03*
X003130Y007350D03*
X003130Y006850D03*
X005070Y006850D03*
X005070Y007350D03*
X005070Y007850D03*
X005070Y008350D03*
D15*
X006800Y015100D03*
X007400Y015100D03*
D16*
X004506Y005100D03*
X002694Y005100D03*
D17*
X007350Y009550D03*
X007350Y010150D03*
D18*
X008600Y011852D03*
X008600Y013348D03*
X011100Y013348D03*
X011100Y011852D03*
X011100Y007848D03*
X011100Y006352D03*
X008600Y006352D03*
X008600Y007848D03*
D19*
X006600Y003100D03*
X013100Y003100D03*
D20*
X013100Y002100D03*
X006600Y002100D03*
D21*
X004848Y010600D03*
X002352Y010600D03*
D22*
X002352Y009848D01*
X003100Y009100D01*
X003100Y008380D01*
X003130Y008350D01*
X002350Y008350D01*
X001850Y007850D01*
X001850Y006100D01*
X002694Y005256D01*
X002694Y005100D01*
X002694Y004006D01*
X004600Y002100D01*
X006600Y002100D01*
X006600Y003100D02*
X005100Y003100D01*
X004506Y003694D01*
X004506Y005100D01*
X004506Y005944D01*
X003600Y006850D01*
X003130Y006850D01*
X003130Y007350D02*
X004100Y007350D01*
X005070Y007350D01*
X005070Y007850D02*
X008598Y007850D01*
X008600Y007848D01*
X011100Y007848D01*
X011100Y006352D02*
X008600Y006352D01*
X008598Y006350D01*
X007350Y006350D01*
X006850Y006850D01*
X005070Y006850D01*
X004100Y007350D02*
X004100Y009850D01*
X004848Y010598D01*
X004848Y010600D01*
X003130Y012318D01*
X003130Y012850D01*
X003130Y013350D02*
X002100Y013350D01*
X001600Y012850D01*
X001600Y011350D01*
X002350Y010600D01*
X002352Y010600D01*
X004100Y012600D02*
X004100Y013350D01*
X005070Y013350D01*
X005070Y012850D02*
X006600Y012850D01*
X007600Y011850D01*
X008598Y011850D01*
X008600Y011852D01*
X011100Y011852D01*
X011100Y013348D02*
X008600Y013348D01*
X008098Y013850D01*
X005070Y013850D01*
X005070Y014350D02*
X006050Y014350D01*
X006800Y015100D01*
X007400Y015100D02*
X009850Y015100D01*
X010350Y015600D01*
X010350Y016850D01*
X010350Y017100D01*
X010350Y017600D01*
X009850Y018100D01*
X006600Y018100D01*
X006250Y017750D01*
X006100Y017750D01*
X003750Y017750D01*
X003100Y017100D01*
X003100Y014380D01*
X003130Y014350D01*
X003130Y013350D02*
X004100Y013350D01*
X004100Y016600D01*
X004450Y016950D01*
X006100Y016950D01*
X009250Y016950D01*
X009350Y016850D01*
X006100Y012100D02*
X004600Y012100D01*
X004100Y012600D01*
X006100Y012100D02*
X007350Y010850D01*
X007350Y010150D01*
X007350Y009550D02*
X007350Y008850D01*
X006850Y008350D01*
X005070Y008350D01*
X015100Y009100D02*
X015100Y010100D01*
X015600Y010600D01*
X016100Y010600D01*
D23*
X012600Y004600D02*
X013600Y003600D01*
X013600Y003357D01*
X013322Y003635D01*
X012878Y003635D01*
X012565Y003322D01*
X012565Y002878D01*
X012878Y002565D01*
X013322Y002565D01*
X013600Y002843D01*
X013600Y001600D01*
X012600Y000600D01*
X007100Y000600D01*
X006100Y001600D01*
X006100Y002760D01*
X006183Y002760D01*
X006378Y002565D01*
X006822Y002565D01*
X007135Y002878D01*
X007135Y003322D01*
X006822Y003635D01*
X006378Y003635D01*
X006183Y003440D01*
X006100Y003440D01*
X006100Y003600D01*
X007100Y004600D01*
X012600Y004600D01*
X012715Y004485D02*
X006985Y004485D01*
X006866Y004366D02*
X012834Y004366D01*
X012952Y004248D02*
X006748Y004248D01*
X006629Y004129D02*
X013071Y004129D01*
X013189Y004011D02*
X006511Y004011D01*
X006392Y003892D02*
X013308Y003892D01*
X013426Y003774D02*
X006274Y003774D01*
X006155Y003655D02*
X013545Y003655D01*
X013600Y003537D02*
X013420Y003537D01*
X013539Y003418D02*
X013600Y003418D01*
X013582Y002826D02*
X013600Y002826D01*
X013600Y002707D02*
X013464Y002707D01*
X013345Y002589D02*
X013600Y002589D01*
X013600Y002470D02*
X009870Y002470D01*
X009870Y002352D02*
X013600Y002352D01*
X013600Y002233D02*
X009870Y002233D01*
X009870Y002197D02*
X009870Y003003D01*
X009791Y003195D01*
X009645Y003341D01*
X009453Y003420D01*
X009247Y003420D01*
X009055Y003341D01*
X008909Y003195D01*
X008830Y003003D01*
X008830Y002197D01*
X008909Y002005D01*
X009055Y001859D01*
X009247Y001780D01*
X009453Y001780D01*
X009645Y001859D01*
X009791Y002005D01*
X009870Y002197D01*
X009836Y002115D02*
X013600Y002115D01*
X013600Y001996D02*
X009781Y001996D01*
X009663Y001878D02*
X013600Y001878D01*
X013600Y001759D02*
X006100Y001759D01*
X006100Y001641D02*
X013600Y001641D01*
X013522Y001522D02*
X006178Y001522D01*
X006296Y001404D02*
X013404Y001404D01*
X013285Y001285D02*
X006415Y001285D01*
X006533Y001167D02*
X013167Y001167D01*
X013048Y001048D02*
X006652Y001048D01*
X006770Y000930D02*
X012930Y000930D01*
X012811Y000811D02*
X006889Y000811D01*
X007007Y000693D02*
X012693Y000693D01*
X012855Y002589D02*
X009870Y002589D01*
X009870Y002707D02*
X012736Y002707D01*
X012618Y002826D02*
X009870Y002826D01*
X009870Y002944D02*
X012565Y002944D01*
X012565Y003063D02*
X009846Y003063D01*
X009796Y003181D02*
X012565Y003181D01*
X012565Y003300D02*
X009686Y003300D01*
X009458Y003418D02*
X012661Y003418D01*
X012780Y003537D02*
X006920Y003537D01*
X007039Y003418D02*
X009242Y003418D01*
X009014Y003300D02*
X007135Y003300D01*
X007135Y003181D02*
X008904Y003181D01*
X008854Y003063D02*
X007135Y003063D01*
X007135Y002944D02*
X008830Y002944D01*
X008830Y002826D02*
X007082Y002826D01*
X006964Y002707D02*
X008830Y002707D01*
X008830Y002589D02*
X006845Y002589D01*
X006355Y002589D02*
X006100Y002589D01*
X006100Y002707D02*
X006236Y002707D01*
X006100Y002470D02*
X008830Y002470D01*
X008830Y002352D02*
X006100Y002352D01*
X006100Y002233D02*
X008830Y002233D01*
X008864Y002115D02*
X006100Y002115D01*
X006100Y001996D02*
X008919Y001996D01*
X009037Y001878D02*
X006100Y001878D01*
X006100Y003537D02*
X006280Y003537D01*
D24*
X015100Y009100D03*
X016100Y010600D03*
M02*
