%
M48
M72
T01C0.0240
T02C0.0315
T03C0.0320
T04C0.0400
T05C0.0440
T06C0.0470
T07C0.1260
%
T01
X3600Y2100
X3600Y3100
X3600Y4100
X3600Y6600
X2600Y6600
X4600Y6600
T02
X10850Y8850
X13350Y8850
T03
X7600Y10600
X7600Y6600
X6600Y3000
X6600Y2200
T04
X4307Y11307
X2893Y9893
X9100Y17600
X10100Y17600
X14893Y10807
X16307Y9393
X13100Y4600
X12100Y4600
X11100Y4600
T05
X17100Y6100
X17100Y2100
T06
X2850Y16600
X2850Y14600
X10100Y2850
X12100Y2850
X14100Y2850
X16850Y14600
X16850Y16600
T07
X1100Y1100
X1100Y18600
X18600Y18600
X18600Y1100
M30
