G75*
%MOIN*%
%OFA0B0*%
%FSLAX24Y24*%
%IPPOS*%
%LPD*%
%AMOC8*
5,1,8,0,0,1.08239X$1,22.5*
%
%ADD10C,0.0000*%
%ADD11C,0.1300*%
%ADD12C,0.0700*%
%ADD13OC8,0.0560*%
%ADD14C,0.0560*%
%ADD15C,0.0480*%
%ADD16C,0.1040*%
%ADD17C,0.0208*%
%ADD18C,0.0640*%
%ADD19C,0.0745*%
%ADD20R,0.0750X0.0670*%
D10*
X000100Y000100D02*
X000100Y019600D01*
X019600Y019600D01*
X019600Y000100D01*
X000100Y000100D01*
X000470Y001100D02*
X000472Y001150D01*
X000478Y001200D01*
X000488Y001249D01*
X000502Y001297D01*
X000519Y001344D01*
X000540Y001389D01*
X000565Y001433D01*
X000593Y001474D01*
X000625Y001513D01*
X000659Y001550D01*
X000696Y001584D01*
X000736Y001614D01*
X000778Y001641D01*
X000822Y001665D01*
X000868Y001686D01*
X000915Y001702D01*
X000963Y001715D01*
X001013Y001724D01*
X001062Y001729D01*
X001113Y001730D01*
X001163Y001727D01*
X001212Y001720D01*
X001261Y001709D01*
X001309Y001694D01*
X001355Y001676D01*
X001400Y001654D01*
X001443Y001628D01*
X001484Y001599D01*
X001523Y001567D01*
X001559Y001532D01*
X001591Y001494D01*
X001621Y001454D01*
X001648Y001411D01*
X001671Y001367D01*
X001690Y001321D01*
X001706Y001273D01*
X001718Y001224D01*
X001726Y001175D01*
X001730Y001125D01*
X001730Y001075D01*
X001726Y001025D01*
X001718Y000976D01*
X001706Y000927D01*
X001690Y000879D01*
X001671Y000833D01*
X001648Y000789D01*
X001621Y000746D01*
X001591Y000706D01*
X001559Y000668D01*
X001523Y000633D01*
X001484Y000601D01*
X001443Y000572D01*
X001400Y000546D01*
X001355Y000524D01*
X001309Y000506D01*
X001261Y000491D01*
X001212Y000480D01*
X001163Y000473D01*
X001113Y000470D01*
X001062Y000471D01*
X001013Y000476D01*
X000963Y000485D01*
X000915Y000498D01*
X000868Y000514D01*
X000822Y000535D01*
X000778Y000559D01*
X000736Y000586D01*
X000696Y000616D01*
X000659Y000650D01*
X000625Y000687D01*
X000593Y000726D01*
X000565Y000767D01*
X000540Y000811D01*
X000519Y000856D01*
X000502Y000903D01*
X000488Y000951D01*
X000478Y001000D01*
X000472Y001050D01*
X000470Y001100D01*
X000470Y018600D02*
X000472Y018650D01*
X000478Y018700D01*
X000488Y018749D01*
X000502Y018797D01*
X000519Y018844D01*
X000540Y018889D01*
X000565Y018933D01*
X000593Y018974D01*
X000625Y019013D01*
X000659Y019050D01*
X000696Y019084D01*
X000736Y019114D01*
X000778Y019141D01*
X000822Y019165D01*
X000868Y019186D01*
X000915Y019202D01*
X000963Y019215D01*
X001013Y019224D01*
X001062Y019229D01*
X001113Y019230D01*
X001163Y019227D01*
X001212Y019220D01*
X001261Y019209D01*
X001309Y019194D01*
X001355Y019176D01*
X001400Y019154D01*
X001443Y019128D01*
X001484Y019099D01*
X001523Y019067D01*
X001559Y019032D01*
X001591Y018994D01*
X001621Y018954D01*
X001648Y018911D01*
X001671Y018867D01*
X001690Y018821D01*
X001706Y018773D01*
X001718Y018724D01*
X001726Y018675D01*
X001730Y018625D01*
X001730Y018575D01*
X001726Y018525D01*
X001718Y018476D01*
X001706Y018427D01*
X001690Y018379D01*
X001671Y018333D01*
X001648Y018289D01*
X001621Y018246D01*
X001591Y018206D01*
X001559Y018168D01*
X001523Y018133D01*
X001484Y018101D01*
X001443Y018072D01*
X001400Y018046D01*
X001355Y018024D01*
X001309Y018006D01*
X001261Y017991D01*
X001212Y017980D01*
X001163Y017973D01*
X001113Y017970D01*
X001062Y017971D01*
X001013Y017976D01*
X000963Y017985D01*
X000915Y017998D01*
X000868Y018014D01*
X000822Y018035D01*
X000778Y018059D01*
X000736Y018086D01*
X000696Y018116D01*
X000659Y018150D01*
X000625Y018187D01*
X000593Y018226D01*
X000565Y018267D01*
X000540Y018311D01*
X000519Y018356D01*
X000502Y018403D01*
X000488Y018451D01*
X000478Y018500D01*
X000472Y018550D01*
X000470Y018600D01*
X017970Y018600D02*
X017972Y018650D01*
X017978Y018700D01*
X017988Y018749D01*
X018002Y018797D01*
X018019Y018844D01*
X018040Y018889D01*
X018065Y018933D01*
X018093Y018974D01*
X018125Y019013D01*
X018159Y019050D01*
X018196Y019084D01*
X018236Y019114D01*
X018278Y019141D01*
X018322Y019165D01*
X018368Y019186D01*
X018415Y019202D01*
X018463Y019215D01*
X018513Y019224D01*
X018562Y019229D01*
X018613Y019230D01*
X018663Y019227D01*
X018712Y019220D01*
X018761Y019209D01*
X018809Y019194D01*
X018855Y019176D01*
X018900Y019154D01*
X018943Y019128D01*
X018984Y019099D01*
X019023Y019067D01*
X019059Y019032D01*
X019091Y018994D01*
X019121Y018954D01*
X019148Y018911D01*
X019171Y018867D01*
X019190Y018821D01*
X019206Y018773D01*
X019218Y018724D01*
X019226Y018675D01*
X019230Y018625D01*
X019230Y018575D01*
X019226Y018525D01*
X019218Y018476D01*
X019206Y018427D01*
X019190Y018379D01*
X019171Y018333D01*
X019148Y018289D01*
X019121Y018246D01*
X019091Y018206D01*
X019059Y018168D01*
X019023Y018133D01*
X018984Y018101D01*
X018943Y018072D01*
X018900Y018046D01*
X018855Y018024D01*
X018809Y018006D01*
X018761Y017991D01*
X018712Y017980D01*
X018663Y017973D01*
X018613Y017970D01*
X018562Y017971D01*
X018513Y017976D01*
X018463Y017985D01*
X018415Y017998D01*
X018368Y018014D01*
X018322Y018035D01*
X018278Y018059D01*
X018236Y018086D01*
X018196Y018116D01*
X018159Y018150D01*
X018125Y018187D01*
X018093Y018226D01*
X018065Y018267D01*
X018040Y018311D01*
X018019Y018356D01*
X018002Y018403D01*
X017988Y018451D01*
X017978Y018500D01*
X017972Y018550D01*
X017970Y018600D01*
X017970Y001100D02*
X017972Y001150D01*
X017978Y001200D01*
X017988Y001249D01*
X018002Y001297D01*
X018019Y001344D01*
X018040Y001389D01*
X018065Y001433D01*
X018093Y001474D01*
X018125Y001513D01*
X018159Y001550D01*
X018196Y001584D01*
X018236Y001614D01*
X018278Y001641D01*
X018322Y001665D01*
X018368Y001686D01*
X018415Y001702D01*
X018463Y001715D01*
X018513Y001724D01*
X018562Y001729D01*
X018613Y001730D01*
X018663Y001727D01*
X018712Y001720D01*
X018761Y001709D01*
X018809Y001694D01*
X018855Y001676D01*
X018900Y001654D01*
X018943Y001628D01*
X018984Y001599D01*
X019023Y001567D01*
X019059Y001532D01*
X019091Y001494D01*
X019121Y001454D01*
X019148Y001411D01*
X019171Y001367D01*
X019190Y001321D01*
X019206Y001273D01*
X019218Y001224D01*
X019226Y001175D01*
X019230Y001125D01*
X019230Y001075D01*
X019226Y001025D01*
X019218Y000976D01*
X019206Y000927D01*
X019190Y000879D01*
X019171Y000833D01*
X019148Y000789D01*
X019121Y000746D01*
X019091Y000706D01*
X019059Y000668D01*
X019023Y000633D01*
X018984Y000601D01*
X018943Y000572D01*
X018900Y000546D01*
X018855Y000524D01*
X018809Y000506D01*
X018761Y000491D01*
X018712Y000480D01*
X018663Y000473D01*
X018613Y000470D01*
X018562Y000471D01*
X018513Y000476D01*
X018463Y000485D01*
X018415Y000498D01*
X018368Y000514D01*
X018322Y000535D01*
X018278Y000559D01*
X018236Y000586D01*
X018196Y000616D01*
X018159Y000650D01*
X018125Y000687D01*
X018093Y000726D01*
X018065Y000767D01*
X018040Y000811D01*
X018019Y000856D01*
X018002Y000903D01*
X017988Y000951D01*
X017978Y001000D01*
X017972Y001050D01*
X017970Y001100D01*
D11*
X018600Y001100D03*
X018600Y018600D03*
X001100Y018600D03*
X001100Y001100D03*
D12*
X017100Y002100D03*
X017100Y006100D03*
D13*
X007600Y006600D03*
X007600Y010600D03*
X006600Y002200D03*
D14*
X006600Y003000D03*
D15*
X003600Y003100D03*
X003600Y002100D03*
X003600Y004100D03*
X003600Y006600D03*
X002600Y006600D03*
X004600Y006600D03*
D16*
X004307Y011307D03*
X014893Y010807D03*
D17*
X016375Y009082D02*
X016479Y008978D01*
X016135Y008978D01*
X015892Y009221D01*
X015892Y009565D01*
X016135Y009808D01*
X016479Y009808D01*
X016722Y009565D01*
X016722Y009221D01*
X016479Y008978D01*
X016415Y009134D01*
X016199Y009134D01*
X016048Y009285D01*
X016048Y009501D01*
X016199Y009652D01*
X016415Y009652D01*
X016566Y009501D01*
X016566Y009285D01*
X016415Y009134D01*
X016350Y009290D01*
X016264Y009290D01*
X016204Y009350D01*
X016204Y009436D01*
X016264Y009496D01*
X016350Y009496D01*
X016410Y009436D01*
X016410Y009350D01*
X016350Y009290D01*
X002582Y009825D02*
X002478Y009721D01*
X002478Y010065D01*
X002721Y010308D01*
X003065Y010308D01*
X003308Y010065D01*
X003308Y009721D01*
X003065Y009478D01*
X002721Y009478D01*
X002478Y009721D01*
X002634Y009785D01*
X002634Y010001D01*
X002785Y010152D01*
X003001Y010152D01*
X003152Y010001D01*
X003152Y009785D01*
X003001Y009634D01*
X002785Y009634D01*
X002634Y009785D01*
X002790Y009850D01*
X002790Y009936D01*
X002850Y009996D01*
X002936Y009996D01*
X002996Y009936D01*
X002996Y009850D01*
X002936Y009790D01*
X002850Y009790D01*
X002790Y009850D01*
D18*
X009100Y017300D02*
X009100Y017900D01*
X010100Y017900D02*
X010100Y017300D01*
X011100Y004900D02*
X011100Y004300D01*
X012100Y004300D02*
X012100Y004900D01*
X013100Y004900D02*
X013100Y004300D01*
D19*
X012100Y003203D02*
X012100Y002498D01*
X010100Y002498D02*
X010100Y003203D01*
X014100Y003203D02*
X014100Y002498D01*
X016498Y014600D02*
X017203Y014600D01*
X017203Y016600D02*
X016498Y016600D01*
X003203Y016600D02*
X002498Y016600D01*
X002498Y014600D02*
X003203Y014600D01*
D20*
X008850Y014660D03*
X008850Y013540D03*
X010850Y013540D03*
X010850Y014660D03*
M02*
