G75*
%MOIN*%
%OFA0B0*%
%FSLAX24Y24*%
%IPPOS*%
%LPD*%
%AMOC8*
5,1,8,0,0,1.08239X$1,22.5*
%
%ADD10C,0.0000*%
%ADD11C,0.0040*%
%ADD12C,0.0080*%
D10*
X000100Y000100D02*
X000100Y039350D01*
X019600Y039350D01*
X019600Y000100D01*
X000100Y000100D01*
X000470Y001100D02*
X000472Y001150D01*
X000478Y001200D01*
X000488Y001249D01*
X000502Y001297D01*
X000519Y001344D01*
X000540Y001389D01*
X000565Y001433D01*
X000593Y001474D01*
X000625Y001513D01*
X000659Y001550D01*
X000696Y001584D01*
X000736Y001614D01*
X000778Y001641D01*
X000822Y001665D01*
X000868Y001686D01*
X000915Y001702D01*
X000963Y001715D01*
X001013Y001724D01*
X001062Y001729D01*
X001113Y001730D01*
X001163Y001727D01*
X001212Y001720D01*
X001261Y001709D01*
X001309Y001694D01*
X001355Y001676D01*
X001400Y001654D01*
X001443Y001628D01*
X001484Y001599D01*
X001523Y001567D01*
X001559Y001532D01*
X001591Y001494D01*
X001621Y001454D01*
X001648Y001411D01*
X001671Y001367D01*
X001690Y001321D01*
X001706Y001273D01*
X001718Y001224D01*
X001726Y001175D01*
X001730Y001125D01*
X001730Y001075D01*
X001726Y001025D01*
X001718Y000976D01*
X001706Y000927D01*
X001690Y000879D01*
X001671Y000833D01*
X001648Y000789D01*
X001621Y000746D01*
X001591Y000706D01*
X001559Y000668D01*
X001523Y000633D01*
X001484Y000601D01*
X001443Y000572D01*
X001400Y000546D01*
X001355Y000524D01*
X001309Y000506D01*
X001261Y000491D01*
X001212Y000480D01*
X001163Y000473D01*
X001113Y000470D01*
X001062Y000471D01*
X001013Y000476D01*
X000963Y000485D01*
X000915Y000498D01*
X000868Y000514D01*
X000822Y000535D01*
X000778Y000559D01*
X000736Y000586D01*
X000696Y000616D01*
X000659Y000650D01*
X000625Y000687D01*
X000593Y000726D01*
X000565Y000767D01*
X000540Y000811D01*
X000519Y000856D01*
X000502Y000903D01*
X000488Y000951D01*
X000478Y001000D01*
X000472Y001050D01*
X000470Y001100D01*
X009220Y030850D02*
X009222Y030900D01*
X009228Y030950D01*
X009238Y030999D01*
X009252Y031047D01*
X009269Y031094D01*
X009290Y031139D01*
X009315Y031183D01*
X009343Y031224D01*
X009375Y031263D01*
X009409Y031300D01*
X009446Y031334D01*
X009486Y031364D01*
X009528Y031391D01*
X009572Y031415D01*
X009618Y031436D01*
X009665Y031452D01*
X009713Y031465D01*
X009763Y031474D01*
X009812Y031479D01*
X009863Y031480D01*
X009913Y031477D01*
X009962Y031470D01*
X010011Y031459D01*
X010059Y031444D01*
X010105Y031426D01*
X010150Y031404D01*
X010193Y031378D01*
X010234Y031349D01*
X010273Y031317D01*
X010309Y031282D01*
X010341Y031244D01*
X010371Y031204D01*
X010398Y031161D01*
X010421Y031117D01*
X010440Y031071D01*
X010456Y031023D01*
X010468Y030974D01*
X010476Y030925D01*
X010480Y030875D01*
X010480Y030825D01*
X010476Y030775D01*
X010468Y030726D01*
X010456Y030677D01*
X010440Y030629D01*
X010421Y030583D01*
X010398Y030539D01*
X010371Y030496D01*
X010341Y030456D01*
X010309Y030418D01*
X010273Y030383D01*
X010234Y030351D01*
X010193Y030322D01*
X010150Y030296D01*
X010105Y030274D01*
X010059Y030256D01*
X010011Y030241D01*
X009962Y030230D01*
X009913Y030223D01*
X009863Y030220D01*
X009812Y030221D01*
X009763Y030226D01*
X009713Y030235D01*
X009665Y030248D01*
X009618Y030264D01*
X009572Y030285D01*
X009528Y030309D01*
X009486Y030336D01*
X009446Y030366D01*
X009409Y030400D01*
X009375Y030437D01*
X009343Y030476D01*
X009315Y030517D01*
X009290Y030561D01*
X009269Y030606D01*
X009252Y030653D01*
X009238Y030701D01*
X009228Y030750D01*
X009222Y030800D01*
X009220Y030850D01*
X017970Y001100D02*
X017972Y001150D01*
X017978Y001200D01*
X017988Y001249D01*
X018002Y001297D01*
X018019Y001344D01*
X018040Y001389D01*
X018065Y001433D01*
X018093Y001474D01*
X018125Y001513D01*
X018159Y001550D01*
X018196Y001584D01*
X018236Y001614D01*
X018278Y001641D01*
X018322Y001665D01*
X018368Y001686D01*
X018415Y001702D01*
X018463Y001715D01*
X018513Y001724D01*
X018562Y001729D01*
X018613Y001730D01*
X018663Y001727D01*
X018712Y001720D01*
X018761Y001709D01*
X018809Y001694D01*
X018855Y001676D01*
X018900Y001654D01*
X018943Y001628D01*
X018984Y001599D01*
X019023Y001567D01*
X019059Y001532D01*
X019091Y001494D01*
X019121Y001454D01*
X019148Y001411D01*
X019171Y001367D01*
X019190Y001321D01*
X019206Y001273D01*
X019218Y001224D01*
X019226Y001175D01*
X019230Y001125D01*
X019230Y001075D01*
X019226Y001025D01*
X019218Y000976D01*
X019206Y000927D01*
X019190Y000879D01*
X019171Y000833D01*
X019148Y000789D01*
X019121Y000746D01*
X019091Y000706D01*
X019059Y000668D01*
X019023Y000633D01*
X018984Y000601D01*
X018943Y000572D01*
X018900Y000546D01*
X018855Y000524D01*
X018809Y000506D01*
X018761Y000491D01*
X018712Y000480D01*
X018663Y000473D01*
X018613Y000470D01*
X018562Y000471D01*
X018513Y000476D01*
X018463Y000485D01*
X018415Y000498D01*
X018368Y000514D01*
X018322Y000535D01*
X018278Y000559D01*
X018236Y000586D01*
X018196Y000616D01*
X018159Y000650D01*
X018125Y000687D01*
X018093Y000726D01*
X018065Y000767D01*
X018040Y000811D01*
X018019Y000856D01*
X018002Y000903D01*
X017988Y000951D01*
X017978Y001000D01*
X017972Y001050D01*
X017970Y001100D01*
D11*
X015580Y005620D02*
X015580Y005850D01*
X015504Y005927D01*
X015350Y005927D01*
X015273Y005850D01*
X015273Y005620D01*
X015120Y005620D02*
X015580Y005620D01*
X015504Y006080D02*
X015427Y006080D01*
X015350Y006157D01*
X015350Y006387D01*
X015197Y006387D02*
X015504Y006387D01*
X015580Y006311D01*
X015580Y006157D01*
X015504Y006080D01*
X015197Y006080D02*
X015120Y006157D01*
X015120Y006311D01*
X015197Y006387D01*
X015043Y006541D02*
X015043Y006848D01*
X015120Y007001D02*
X015427Y007308D01*
X015504Y007308D01*
X015580Y007231D01*
X015580Y007078D01*
X015504Y007001D01*
X015120Y007001D02*
X015120Y007308D01*
X015120Y005927D02*
X015273Y005773D01*
X012080Y005850D02*
X012004Y005927D01*
X011850Y005927D01*
X011773Y005850D01*
X011773Y005620D01*
X011620Y005620D02*
X012080Y005620D01*
X012080Y005850D01*
X012004Y006080D02*
X011927Y006080D01*
X011850Y006157D01*
X011850Y006311D01*
X011773Y006387D01*
X011697Y006387D01*
X011620Y006311D01*
X011620Y006157D01*
X011697Y006080D01*
X011773Y006080D01*
X011850Y006157D01*
X011850Y006311D02*
X011927Y006387D01*
X012004Y006387D01*
X012080Y006311D01*
X012080Y006157D01*
X012004Y006080D01*
X011773Y005773D02*
X011620Y005927D01*
X011543Y006541D02*
X011543Y006848D01*
X011620Y007001D02*
X011620Y007308D01*
X011620Y007155D02*
X012080Y007155D01*
X011927Y007001D01*
X005430Y009270D02*
X005430Y009500D01*
X005354Y009577D01*
X005047Y009577D01*
X004970Y009500D01*
X004970Y009270D01*
X005430Y009270D01*
X005277Y009730D02*
X005430Y009884D01*
X004970Y009884D01*
X004970Y010037D02*
X004970Y009730D01*
X004850Y009210D02*
X004850Y010990D01*
X003350Y010990D02*
X003350Y009210D01*
X003697Y020699D02*
X003620Y020776D01*
X003620Y020929D01*
X003697Y021006D01*
X003697Y021160D02*
X003773Y021160D01*
X003850Y021236D01*
X003850Y021390D01*
X003773Y021467D01*
X003697Y021467D01*
X003620Y021390D01*
X003620Y021236D01*
X003697Y021160D01*
X003850Y021236D02*
X003927Y021160D01*
X004004Y021160D01*
X004080Y021236D01*
X004080Y021390D01*
X004004Y021467D01*
X003927Y021467D01*
X003850Y021390D01*
X004004Y021006D02*
X004080Y020929D01*
X004080Y020776D01*
X004004Y020699D01*
X003697Y020699D01*
X003697Y023239D02*
X003620Y023316D01*
X003620Y023469D01*
X003697Y023546D01*
X003620Y023699D02*
X003620Y024006D01*
X003620Y023853D02*
X004080Y023853D01*
X003927Y023699D01*
X004004Y023546D02*
X004080Y023469D01*
X004080Y023316D01*
X004004Y023239D01*
X003697Y023239D01*
X003697Y024160D02*
X004004Y024467D01*
X003697Y024467D01*
X003620Y024390D01*
X003620Y024236D01*
X003697Y024160D01*
X004004Y024160D01*
X004080Y024236D01*
X004080Y024390D01*
X004004Y024467D01*
X009620Y024776D02*
X009620Y024929D01*
X009697Y025006D01*
X009620Y025160D02*
X009620Y025467D01*
X009620Y025160D02*
X009927Y025467D01*
X010004Y025467D01*
X010080Y025390D01*
X010080Y025236D01*
X010004Y025160D01*
X010004Y025006D02*
X010080Y024929D01*
X010080Y024776D01*
X010004Y024699D01*
X009697Y024699D01*
X009620Y024776D01*
X015063Y025370D02*
X015370Y025370D01*
X015523Y025370D02*
X015677Y025523D01*
X015600Y025523D02*
X015830Y025523D01*
X015830Y025370D02*
X015830Y025830D01*
X015600Y025830D01*
X015523Y025754D01*
X015523Y025600D01*
X015600Y025523D01*
X015370Y025677D02*
X015216Y025830D01*
X015216Y025370D01*
X013830Y035870D02*
X013370Y035870D01*
X013523Y035870D02*
X013523Y036100D01*
X013600Y036177D01*
X013754Y036177D01*
X013830Y036100D01*
X013830Y035870D01*
X013523Y036023D02*
X013370Y036177D01*
X013447Y036330D02*
X013370Y036407D01*
X013370Y036561D01*
X013447Y036637D01*
X013600Y036637D01*
X013600Y036484D01*
X013754Y036330D02*
X013447Y036330D01*
X013754Y036330D02*
X013830Y036407D01*
X013830Y036561D01*
X013754Y036637D01*
X013830Y036791D02*
X013370Y037098D01*
X013830Y037098D01*
X013830Y037251D02*
X013830Y037481D01*
X013754Y037558D01*
X013447Y037558D01*
X013370Y037481D01*
X013370Y037251D01*
X013830Y037251D01*
X013830Y036791D02*
X013370Y036791D01*
X013600Y037712D02*
X013600Y038018D01*
X013370Y037942D02*
X013830Y037942D01*
X013600Y037712D01*
X017870Y037788D02*
X017947Y037712D01*
X017870Y037788D02*
X017870Y037942D01*
X017947Y038018D01*
X018023Y038018D01*
X018100Y037942D01*
X018100Y037865D01*
X018100Y037942D02*
X018177Y038018D01*
X018254Y038018D01*
X018330Y037942D01*
X018330Y037788D01*
X018254Y037712D01*
X018254Y037558D02*
X018330Y037481D01*
X018330Y037251D01*
X017870Y037251D01*
X017870Y037481D01*
X017947Y037558D01*
X018254Y037558D01*
X018330Y037098D02*
X017870Y037098D01*
X018330Y036791D01*
X017870Y036791D01*
X017947Y036637D02*
X017870Y036561D01*
X017870Y036407D01*
X017947Y036330D01*
X018254Y036330D01*
X018330Y036407D01*
X018330Y036561D01*
X018254Y036637D01*
X018100Y036637D02*
X018100Y036484D01*
X018100Y036637D02*
X017947Y036637D01*
X017870Y036177D02*
X018023Y036023D01*
X018023Y036100D02*
X018023Y035870D01*
X017870Y035870D02*
X018330Y035870D01*
X018330Y036100D01*
X018254Y036177D01*
X018100Y036177D01*
X018023Y036100D01*
X009330Y036100D02*
X009330Y035870D01*
X008870Y035870D01*
X009023Y035870D02*
X009023Y036100D01*
X009100Y036177D01*
X009254Y036177D01*
X009330Y036100D01*
X009254Y036330D02*
X008947Y036330D01*
X008870Y036407D01*
X008870Y036561D01*
X008947Y036637D01*
X009100Y036637D01*
X009100Y036484D01*
X009254Y036637D02*
X009330Y036561D01*
X009330Y036407D01*
X009254Y036330D01*
X009023Y036023D02*
X008870Y036177D01*
X008870Y036791D02*
X009330Y036791D01*
X008870Y037098D01*
X009330Y037098D01*
X009330Y037251D02*
X009330Y037481D01*
X009254Y037558D01*
X008947Y037558D01*
X008870Y037481D01*
X008870Y037251D01*
X009330Y037251D01*
X009177Y037712D02*
X009330Y037865D01*
X008870Y037865D01*
X008870Y037712D02*
X008870Y038018D01*
X004830Y037942D02*
X004830Y037788D01*
X004754Y037712D01*
X004754Y037558D02*
X004830Y037481D01*
X004830Y037251D01*
X004370Y037251D01*
X004370Y037481D01*
X004447Y037558D01*
X004754Y037558D01*
X004830Y037942D02*
X004754Y038018D01*
X004677Y038018D01*
X004370Y037712D01*
X004370Y038018D01*
X004370Y037098D02*
X004830Y037098D01*
X004830Y036791D02*
X004370Y037098D01*
X004370Y036791D02*
X004830Y036791D01*
X004754Y036637D02*
X004830Y036561D01*
X004830Y036407D01*
X004754Y036330D01*
X004447Y036330D01*
X004370Y036407D01*
X004370Y036561D01*
X004447Y036637D01*
X004600Y036637D01*
X004600Y036484D01*
X004600Y036177D02*
X004523Y036100D01*
X004523Y035870D01*
X004370Y035870D02*
X004830Y035870D01*
X004830Y036100D01*
X004754Y036177D01*
X004600Y036177D01*
X004523Y036023D02*
X004370Y036177D01*
D12*
X004494Y010176D02*
X003706Y010176D01*
X004100Y009773D01*
X004494Y010176D01*
M02*
