G75*
%MOIN*%
%OFA0B0*%
%FSLAX24Y24*%
%IPPOS*%
%LPD*%
%AMOC8*
5,1,8,0,0,1.08239X$1,22.5*
%
%ADD10C,0.0000*%
%ADD11C,0.0060*%
%ADD12C,0.0040*%
%ADD13C,0.0050*%
%ADD14C,0.0120*%
%ADD15C,0.0080*%
%ADD16C,0.0030*%
%ADD17C,0.0240*%
D10*
X000100Y000100D02*
X000100Y039350D01*
X019600Y039350D01*
X019600Y000100D01*
X000100Y000100D01*
X000470Y001100D02*
X000472Y001150D01*
X000478Y001200D01*
X000488Y001249D01*
X000502Y001297D01*
X000519Y001344D01*
X000540Y001389D01*
X000565Y001433D01*
X000593Y001474D01*
X000625Y001513D01*
X000659Y001550D01*
X000696Y001584D01*
X000736Y001614D01*
X000778Y001641D01*
X000822Y001665D01*
X000868Y001686D01*
X000915Y001702D01*
X000963Y001715D01*
X001013Y001724D01*
X001062Y001729D01*
X001113Y001730D01*
X001163Y001727D01*
X001212Y001720D01*
X001261Y001709D01*
X001309Y001694D01*
X001355Y001676D01*
X001400Y001654D01*
X001443Y001628D01*
X001484Y001599D01*
X001523Y001567D01*
X001559Y001532D01*
X001591Y001494D01*
X001621Y001454D01*
X001648Y001411D01*
X001671Y001367D01*
X001690Y001321D01*
X001706Y001273D01*
X001718Y001224D01*
X001726Y001175D01*
X001730Y001125D01*
X001730Y001075D01*
X001726Y001025D01*
X001718Y000976D01*
X001706Y000927D01*
X001690Y000879D01*
X001671Y000833D01*
X001648Y000789D01*
X001621Y000746D01*
X001591Y000706D01*
X001559Y000668D01*
X001523Y000633D01*
X001484Y000601D01*
X001443Y000572D01*
X001400Y000546D01*
X001355Y000524D01*
X001309Y000506D01*
X001261Y000491D01*
X001212Y000480D01*
X001163Y000473D01*
X001113Y000470D01*
X001062Y000471D01*
X001013Y000476D01*
X000963Y000485D01*
X000915Y000498D01*
X000868Y000514D01*
X000822Y000535D01*
X000778Y000559D01*
X000736Y000586D01*
X000696Y000616D01*
X000659Y000650D01*
X000625Y000687D01*
X000593Y000726D01*
X000565Y000767D01*
X000540Y000811D01*
X000519Y000856D01*
X000502Y000903D01*
X000488Y000951D01*
X000478Y001000D01*
X000472Y001050D01*
X000470Y001100D01*
X009220Y030850D02*
X009222Y030900D01*
X009228Y030950D01*
X009238Y030999D01*
X009252Y031047D01*
X009269Y031094D01*
X009290Y031139D01*
X009315Y031183D01*
X009343Y031224D01*
X009375Y031263D01*
X009409Y031300D01*
X009446Y031334D01*
X009486Y031364D01*
X009528Y031391D01*
X009572Y031415D01*
X009618Y031436D01*
X009665Y031452D01*
X009713Y031465D01*
X009763Y031474D01*
X009812Y031479D01*
X009863Y031480D01*
X009913Y031477D01*
X009962Y031470D01*
X010011Y031459D01*
X010059Y031444D01*
X010105Y031426D01*
X010150Y031404D01*
X010193Y031378D01*
X010234Y031349D01*
X010273Y031317D01*
X010309Y031282D01*
X010341Y031244D01*
X010371Y031204D01*
X010398Y031161D01*
X010421Y031117D01*
X010440Y031071D01*
X010456Y031023D01*
X010468Y030974D01*
X010476Y030925D01*
X010480Y030875D01*
X010480Y030825D01*
X010476Y030775D01*
X010468Y030726D01*
X010456Y030677D01*
X010440Y030629D01*
X010421Y030583D01*
X010398Y030539D01*
X010371Y030496D01*
X010341Y030456D01*
X010309Y030418D01*
X010273Y030383D01*
X010234Y030351D01*
X010193Y030322D01*
X010150Y030296D01*
X010105Y030274D01*
X010059Y030256D01*
X010011Y030241D01*
X009962Y030230D01*
X009913Y030223D01*
X009863Y030220D01*
X009812Y030221D01*
X009763Y030226D01*
X009713Y030235D01*
X009665Y030248D01*
X009618Y030264D01*
X009572Y030285D01*
X009528Y030309D01*
X009486Y030336D01*
X009446Y030366D01*
X009409Y030400D01*
X009375Y030437D01*
X009343Y030476D01*
X009315Y030517D01*
X009290Y030561D01*
X009269Y030606D01*
X009252Y030653D01*
X009238Y030701D01*
X009228Y030750D01*
X009222Y030800D01*
X009220Y030850D01*
X017970Y001100D02*
X017972Y001150D01*
X017978Y001200D01*
X017988Y001249D01*
X018002Y001297D01*
X018019Y001344D01*
X018040Y001389D01*
X018065Y001433D01*
X018093Y001474D01*
X018125Y001513D01*
X018159Y001550D01*
X018196Y001584D01*
X018236Y001614D01*
X018278Y001641D01*
X018322Y001665D01*
X018368Y001686D01*
X018415Y001702D01*
X018463Y001715D01*
X018513Y001724D01*
X018562Y001729D01*
X018613Y001730D01*
X018663Y001727D01*
X018712Y001720D01*
X018761Y001709D01*
X018809Y001694D01*
X018855Y001676D01*
X018900Y001654D01*
X018943Y001628D01*
X018984Y001599D01*
X019023Y001567D01*
X019059Y001532D01*
X019091Y001494D01*
X019121Y001454D01*
X019148Y001411D01*
X019171Y001367D01*
X019190Y001321D01*
X019206Y001273D01*
X019218Y001224D01*
X019226Y001175D01*
X019230Y001125D01*
X019230Y001075D01*
X019226Y001025D01*
X019218Y000976D01*
X019206Y000927D01*
X019190Y000879D01*
X019171Y000833D01*
X019148Y000789D01*
X019121Y000746D01*
X019091Y000706D01*
X019059Y000668D01*
X019023Y000633D01*
X018984Y000601D01*
X018943Y000572D01*
X018900Y000546D01*
X018855Y000524D01*
X018809Y000506D01*
X018761Y000491D01*
X018712Y000480D01*
X018663Y000473D01*
X018613Y000470D01*
X018562Y000471D01*
X018513Y000476D01*
X018463Y000485D01*
X018415Y000498D01*
X018368Y000514D01*
X018322Y000535D01*
X018278Y000559D01*
X018236Y000586D01*
X018196Y000616D01*
X018159Y000650D01*
X018125Y000687D01*
X018093Y000726D01*
X018065Y000767D01*
X018040Y000811D01*
X018019Y000856D01*
X018002Y000903D01*
X017988Y000951D01*
X017978Y001000D01*
X017972Y001050D01*
X017970Y001100D01*
D11*
X016100Y002850D02*
X015850Y002600D01*
X015350Y002600D01*
X015100Y002850D01*
X014850Y002600D01*
X014350Y002600D01*
X014100Y002850D01*
X013850Y002600D01*
X013350Y002600D01*
X013100Y002850D01*
X013100Y003350D01*
X013350Y003600D01*
X013850Y003600D01*
X014100Y003350D01*
X014350Y003600D01*
X014850Y003600D01*
X015100Y003350D01*
X015350Y003600D01*
X015850Y003600D01*
X016100Y003350D01*
X016100Y002850D01*
X015100Y002850D02*
X015100Y003350D01*
X014100Y003350D02*
X014100Y002850D01*
X012600Y002850D02*
X012350Y002600D01*
X011850Y002600D01*
X011600Y002850D01*
X011350Y002600D01*
X010850Y002600D01*
X010600Y002850D01*
X010350Y002600D01*
X009850Y002600D01*
X009600Y002850D01*
X009600Y003350D01*
X009850Y003600D01*
X010350Y003600D01*
X010600Y003350D01*
X010850Y003600D01*
X011350Y003600D01*
X011600Y003350D01*
X011850Y003600D01*
X012350Y003600D01*
X012600Y003350D01*
X012600Y002850D01*
X011600Y002850D02*
X011600Y003350D01*
X010600Y003350D02*
X010600Y002850D01*
X011250Y008100D02*
X008950Y008100D01*
X008950Y013100D01*
X009700Y013100D01*
X009702Y013061D01*
X009708Y013022D01*
X009717Y012984D01*
X009730Y012947D01*
X009747Y012911D01*
X009767Y012878D01*
X009791Y012846D01*
X009817Y012817D01*
X009846Y012791D01*
X009878Y012767D01*
X009911Y012747D01*
X009947Y012730D01*
X009984Y012717D01*
X010022Y012708D01*
X010061Y012702D01*
X010100Y012700D01*
X010139Y012702D01*
X010178Y012708D01*
X010216Y012717D01*
X010253Y012730D01*
X010289Y012747D01*
X010322Y012767D01*
X010354Y012791D01*
X010383Y012817D01*
X010409Y012846D01*
X010433Y012878D01*
X010453Y012911D01*
X010470Y012947D01*
X010483Y012984D01*
X010492Y013022D01*
X010498Y013061D01*
X010500Y013100D01*
X011250Y013100D01*
X011250Y008100D01*
X014450Y008100D02*
X016750Y008100D01*
X016750Y013100D01*
X016000Y013100D01*
X015998Y013061D01*
X015992Y013022D01*
X015983Y012984D01*
X015970Y012947D01*
X015953Y012911D01*
X015933Y012878D01*
X015909Y012846D01*
X015883Y012817D01*
X015854Y012791D01*
X015822Y012767D01*
X015789Y012747D01*
X015753Y012730D01*
X015716Y012717D01*
X015678Y012708D01*
X015639Y012702D01*
X015600Y012700D01*
X015561Y012702D01*
X015522Y012708D01*
X015484Y012717D01*
X015447Y012730D01*
X015411Y012747D01*
X015378Y012767D01*
X015346Y012791D01*
X015317Y012817D01*
X015291Y012846D01*
X015267Y012878D01*
X015247Y012911D01*
X015230Y012947D01*
X015217Y012984D01*
X015208Y013022D01*
X015202Y013061D01*
X015200Y013100D01*
X014450Y013100D01*
X014450Y008100D01*
X013900Y017100D02*
X013900Y017300D01*
X014000Y017200D02*
X013800Y017200D01*
X013600Y017600D02*
X013602Y017663D01*
X013608Y017725D01*
X013618Y017787D01*
X013631Y017849D01*
X013649Y017909D01*
X013670Y017968D01*
X013695Y018026D01*
X013724Y018082D01*
X013756Y018136D01*
X013791Y018188D01*
X013829Y018237D01*
X013871Y018285D01*
X013915Y018329D01*
X013963Y018371D01*
X014012Y018409D01*
X014064Y018444D01*
X014118Y018476D01*
X014174Y018505D01*
X014232Y018530D01*
X014291Y018551D01*
X014351Y018569D01*
X014413Y018582D01*
X014475Y018592D01*
X014537Y018598D01*
X014600Y018600D01*
X014663Y018598D01*
X014725Y018592D01*
X014787Y018582D01*
X014849Y018569D01*
X014909Y018551D01*
X014968Y018530D01*
X015026Y018505D01*
X015082Y018476D01*
X015136Y018444D01*
X015188Y018409D01*
X015237Y018371D01*
X015285Y018329D01*
X015329Y018285D01*
X015371Y018237D01*
X015409Y018188D01*
X015444Y018136D01*
X015476Y018082D01*
X015505Y018026D01*
X015530Y017968D01*
X015551Y017909D01*
X015569Y017849D01*
X015582Y017787D01*
X015592Y017725D01*
X015598Y017663D01*
X015600Y017600D01*
X015598Y017537D01*
X015592Y017475D01*
X015582Y017413D01*
X015569Y017351D01*
X015551Y017291D01*
X015530Y017232D01*
X015505Y017174D01*
X015476Y017118D01*
X015444Y017064D01*
X015409Y017012D01*
X015371Y016963D01*
X015329Y016915D01*
X015285Y016871D01*
X015237Y016829D01*
X015188Y016791D01*
X015136Y016756D01*
X015082Y016724D01*
X015026Y016695D01*
X014968Y016670D01*
X014909Y016649D01*
X014849Y016631D01*
X014787Y016618D01*
X014725Y016608D01*
X014663Y016602D01*
X014600Y016600D01*
X014537Y016602D01*
X014475Y016608D01*
X014413Y016618D01*
X014351Y016631D01*
X014291Y016649D01*
X014232Y016670D01*
X014174Y016695D01*
X014118Y016724D01*
X014064Y016756D01*
X014012Y016791D01*
X013963Y016829D01*
X013915Y016871D01*
X013871Y016915D01*
X013829Y016963D01*
X013791Y017012D01*
X013756Y017064D01*
X013724Y017118D01*
X013695Y017174D01*
X013670Y017232D01*
X013649Y017291D01*
X013631Y017351D01*
X013618Y017413D01*
X013608Y017475D01*
X013602Y017537D01*
X013600Y017600D01*
X013600Y020300D02*
X013600Y021480D01*
X013600Y021720D01*
X013600Y022900D01*
X013690Y022900D01*
X014510Y022900D02*
X014690Y022900D01*
X015510Y022900D02*
X015690Y022900D01*
X016510Y022900D02*
X016690Y022900D01*
X017510Y022900D02*
X017600Y022900D01*
X017600Y020300D01*
X017510Y020300D01*
X016690Y020300D02*
X016510Y020300D01*
X015690Y020300D02*
X015510Y020300D01*
X014690Y020300D02*
X014560Y020300D01*
X013600Y021480D02*
X013621Y021482D01*
X013641Y021487D01*
X013660Y021496D01*
X013677Y021508D01*
X013692Y021523D01*
X013704Y021540D01*
X013713Y021559D01*
X013718Y021579D01*
X013720Y021600D01*
X013718Y021621D01*
X013713Y021641D01*
X013704Y021660D01*
X013692Y021677D01*
X013677Y021692D01*
X013660Y021704D01*
X013641Y021713D01*
X013621Y021718D01*
X013600Y021720D01*
X011100Y017600D02*
X011102Y017663D01*
X011108Y017725D01*
X011118Y017787D01*
X011131Y017849D01*
X011149Y017909D01*
X011170Y017968D01*
X011195Y018026D01*
X011224Y018082D01*
X011256Y018136D01*
X011291Y018188D01*
X011329Y018237D01*
X011371Y018285D01*
X011415Y018329D01*
X011463Y018371D01*
X011512Y018409D01*
X011564Y018444D01*
X011618Y018476D01*
X011674Y018505D01*
X011732Y018530D01*
X011791Y018551D01*
X011851Y018569D01*
X011913Y018582D01*
X011975Y018592D01*
X012037Y018598D01*
X012100Y018600D01*
X012163Y018598D01*
X012225Y018592D01*
X012287Y018582D01*
X012349Y018569D01*
X012409Y018551D01*
X012468Y018530D01*
X012526Y018505D01*
X012582Y018476D01*
X012636Y018444D01*
X012688Y018409D01*
X012737Y018371D01*
X012785Y018329D01*
X012829Y018285D01*
X012871Y018237D01*
X012909Y018188D01*
X012944Y018136D01*
X012976Y018082D01*
X013005Y018026D01*
X013030Y017968D01*
X013051Y017909D01*
X013069Y017849D01*
X013082Y017787D01*
X013092Y017725D01*
X013098Y017663D01*
X013100Y017600D01*
X013098Y017537D01*
X013092Y017475D01*
X013082Y017413D01*
X013069Y017351D01*
X013051Y017291D01*
X013030Y017232D01*
X013005Y017174D01*
X012976Y017118D01*
X012944Y017064D01*
X012909Y017012D01*
X012871Y016963D01*
X012829Y016915D01*
X012785Y016871D01*
X012737Y016829D01*
X012688Y016791D01*
X012636Y016756D01*
X012582Y016724D01*
X012526Y016695D01*
X012468Y016670D01*
X012409Y016649D01*
X012349Y016631D01*
X012287Y016618D01*
X012225Y016608D01*
X012163Y016602D01*
X012100Y016600D01*
X012037Y016602D01*
X011975Y016608D01*
X011913Y016618D01*
X011851Y016631D01*
X011791Y016649D01*
X011732Y016670D01*
X011674Y016695D01*
X011618Y016724D01*
X011564Y016756D01*
X011512Y016791D01*
X011463Y016829D01*
X011415Y016871D01*
X011371Y016915D01*
X011329Y016963D01*
X011291Y017012D01*
X011256Y017064D01*
X011224Y017118D01*
X011195Y017174D01*
X011170Y017232D01*
X011149Y017291D01*
X011131Y017351D01*
X011118Y017413D01*
X011108Y017475D01*
X011102Y017537D01*
X011100Y017600D01*
X011400Y017300D02*
X011400Y017100D01*
X011500Y017200D02*
X011300Y017200D01*
X010600Y020300D02*
X010600Y021480D01*
X010600Y021720D01*
X010600Y022900D01*
X010600Y021720D02*
X010579Y021718D01*
X010559Y021713D01*
X010540Y021704D01*
X010523Y021692D01*
X010508Y021677D01*
X010496Y021660D01*
X010487Y021641D01*
X010482Y021621D01*
X010480Y021600D01*
X010482Y021579D01*
X010487Y021559D01*
X010496Y021540D01*
X010508Y021523D01*
X010523Y021508D01*
X010540Y021496D01*
X010559Y021487D01*
X010579Y021482D01*
X010600Y021480D01*
X010600Y020300D02*
X010510Y020300D01*
X009690Y020300D02*
X009510Y020300D01*
X008690Y020300D02*
X008510Y020300D01*
X007690Y020300D02*
X007510Y020300D01*
X006690Y020300D02*
X006600Y020300D01*
X006600Y022900D01*
X006690Y022900D01*
X007510Y022900D02*
X007690Y022900D01*
X008510Y022900D02*
X008690Y022900D01*
X009510Y022900D02*
X009640Y022900D01*
X009300Y026450D02*
X009300Y026600D01*
X009250Y026650D01*
X009250Y028550D01*
X009300Y028600D01*
X009300Y028750D01*
X009298Y028767D01*
X009294Y028784D01*
X009287Y028800D01*
X009277Y028814D01*
X009264Y028827D01*
X009250Y028837D01*
X009234Y028844D01*
X009217Y028848D01*
X009200Y028850D01*
X008500Y028850D02*
X008483Y028848D01*
X008466Y028844D01*
X008450Y028837D01*
X008436Y028827D01*
X008423Y028814D01*
X008413Y028800D01*
X008406Y028784D01*
X008402Y028767D01*
X008400Y028750D01*
X008400Y028600D01*
X008450Y028550D01*
X008450Y026650D01*
X008400Y026600D01*
X008400Y026450D01*
X008402Y026433D01*
X008406Y026416D01*
X008413Y026400D01*
X008423Y026386D01*
X008436Y026373D01*
X008450Y026363D01*
X008466Y026356D01*
X008483Y026352D01*
X008500Y026350D01*
X009200Y026350D02*
X009217Y026352D01*
X009234Y026356D01*
X009250Y026363D01*
X009264Y026373D01*
X009277Y026386D01*
X009287Y026400D01*
X009294Y026416D01*
X009298Y026433D01*
X009300Y026450D01*
X010950Y029150D02*
X011250Y029150D01*
X011100Y029300D02*
X011100Y029000D01*
X009750Y028100D02*
X009752Y028173D01*
X009758Y028246D01*
X009768Y028318D01*
X009782Y028390D01*
X009799Y028461D01*
X009821Y028531D01*
X009846Y028600D01*
X009875Y028667D01*
X009907Y028732D01*
X009943Y028796D01*
X009983Y028858D01*
X010025Y028917D01*
X010071Y028974D01*
X010120Y029028D01*
X010172Y029080D01*
X010226Y029129D01*
X010283Y029175D01*
X010342Y029217D01*
X010404Y029257D01*
X010468Y029293D01*
X010533Y029325D01*
X010600Y029354D01*
X010669Y029379D01*
X010739Y029401D01*
X010810Y029418D01*
X010882Y029432D01*
X010954Y029442D01*
X011027Y029448D01*
X011100Y029450D01*
X011173Y029448D01*
X011246Y029442D01*
X011318Y029432D01*
X011390Y029418D01*
X011461Y029401D01*
X011531Y029379D01*
X011600Y029354D01*
X011667Y029325D01*
X011732Y029293D01*
X011796Y029257D01*
X011858Y029217D01*
X011917Y029175D01*
X011974Y029129D01*
X012028Y029080D01*
X012080Y029028D01*
X012129Y028974D01*
X012175Y028917D01*
X012217Y028858D01*
X012257Y028796D01*
X012293Y028732D01*
X012325Y028667D01*
X012354Y028600D01*
X012379Y028531D01*
X012401Y028461D01*
X012418Y028390D01*
X012432Y028318D01*
X012442Y028246D01*
X012448Y028173D01*
X012450Y028100D01*
X012448Y028027D01*
X012442Y027954D01*
X012432Y027882D01*
X012418Y027810D01*
X012401Y027739D01*
X012379Y027669D01*
X012354Y027600D01*
X012325Y027533D01*
X012293Y027468D01*
X012257Y027404D01*
X012217Y027342D01*
X012175Y027283D01*
X012129Y027226D01*
X012080Y027172D01*
X012028Y027120D01*
X011974Y027071D01*
X011917Y027025D01*
X011858Y026983D01*
X011796Y026943D01*
X011732Y026907D01*
X011667Y026875D01*
X011600Y026846D01*
X011531Y026821D01*
X011461Y026799D01*
X011390Y026782D01*
X011318Y026768D01*
X011246Y026758D01*
X011173Y026752D01*
X011100Y026750D01*
X011027Y026752D01*
X010954Y026758D01*
X010882Y026768D01*
X010810Y026782D01*
X010739Y026799D01*
X010669Y026821D01*
X010600Y026846D01*
X010533Y026875D01*
X010468Y026907D01*
X010404Y026943D01*
X010342Y026983D01*
X010283Y027025D01*
X010226Y027071D01*
X010172Y027120D01*
X010120Y027172D01*
X010071Y027226D01*
X010025Y027283D01*
X009983Y027342D01*
X009943Y027404D01*
X009907Y027468D01*
X009875Y027533D01*
X009846Y027600D01*
X009821Y027669D01*
X009799Y027739D01*
X009782Y027810D01*
X009768Y027882D01*
X009758Y027954D01*
X009752Y028027D01*
X009750Y028100D01*
X007700Y030350D02*
X007700Y030850D01*
X007698Y030876D01*
X007693Y030902D01*
X007685Y030927D01*
X007673Y030950D01*
X007659Y030972D01*
X007641Y030991D01*
X007622Y031009D01*
X007600Y031023D01*
X007577Y031035D01*
X007552Y031043D01*
X007526Y031048D01*
X007500Y031050D01*
X006200Y031050D01*
X006174Y031048D01*
X006148Y031043D01*
X006123Y031035D01*
X006100Y031023D01*
X006078Y031009D01*
X006059Y030991D01*
X006041Y030972D01*
X006027Y030950D01*
X006015Y030927D01*
X006007Y030902D01*
X006002Y030876D01*
X006000Y030850D01*
X006000Y030350D01*
X006002Y030324D01*
X006007Y030298D01*
X006015Y030273D01*
X006027Y030250D01*
X006041Y030228D01*
X006059Y030209D01*
X006078Y030191D01*
X006100Y030177D01*
X006123Y030165D01*
X006148Y030157D01*
X006174Y030152D01*
X006200Y030150D01*
X007500Y030150D01*
X007526Y030152D01*
X007552Y030157D01*
X007577Y030165D01*
X007600Y030177D01*
X007622Y030191D01*
X007641Y030209D01*
X007659Y030228D01*
X007673Y030250D01*
X007685Y030273D01*
X007693Y030298D01*
X007698Y030324D01*
X007700Y030350D01*
X006750Y029150D02*
X006450Y029150D01*
X006600Y029300D02*
X006600Y029000D01*
X005250Y028100D02*
X005252Y028173D01*
X005258Y028246D01*
X005268Y028318D01*
X005282Y028390D01*
X005299Y028461D01*
X005321Y028531D01*
X005346Y028600D01*
X005375Y028667D01*
X005407Y028732D01*
X005443Y028796D01*
X005483Y028858D01*
X005525Y028917D01*
X005571Y028974D01*
X005620Y029028D01*
X005672Y029080D01*
X005726Y029129D01*
X005783Y029175D01*
X005842Y029217D01*
X005904Y029257D01*
X005968Y029293D01*
X006033Y029325D01*
X006100Y029354D01*
X006169Y029379D01*
X006239Y029401D01*
X006310Y029418D01*
X006382Y029432D01*
X006454Y029442D01*
X006527Y029448D01*
X006600Y029450D01*
X006673Y029448D01*
X006746Y029442D01*
X006818Y029432D01*
X006890Y029418D01*
X006961Y029401D01*
X007031Y029379D01*
X007100Y029354D01*
X007167Y029325D01*
X007232Y029293D01*
X007296Y029257D01*
X007358Y029217D01*
X007417Y029175D01*
X007474Y029129D01*
X007528Y029080D01*
X007580Y029028D01*
X007629Y028974D01*
X007675Y028917D01*
X007717Y028858D01*
X007757Y028796D01*
X007793Y028732D01*
X007825Y028667D01*
X007854Y028600D01*
X007879Y028531D01*
X007901Y028461D01*
X007918Y028390D01*
X007932Y028318D01*
X007942Y028246D01*
X007948Y028173D01*
X007950Y028100D01*
X007948Y028027D01*
X007942Y027954D01*
X007932Y027882D01*
X007918Y027810D01*
X007901Y027739D01*
X007879Y027669D01*
X007854Y027600D01*
X007825Y027533D01*
X007793Y027468D01*
X007757Y027404D01*
X007717Y027342D01*
X007675Y027283D01*
X007629Y027226D01*
X007580Y027172D01*
X007528Y027120D01*
X007474Y027071D01*
X007417Y027025D01*
X007358Y026983D01*
X007296Y026943D01*
X007232Y026907D01*
X007167Y026875D01*
X007100Y026846D01*
X007031Y026821D01*
X006961Y026799D01*
X006890Y026782D01*
X006818Y026768D01*
X006746Y026758D01*
X006673Y026752D01*
X006600Y026750D01*
X006527Y026752D01*
X006454Y026758D01*
X006382Y026768D01*
X006310Y026782D01*
X006239Y026799D01*
X006169Y026821D01*
X006100Y026846D01*
X006033Y026875D01*
X005968Y026907D01*
X005904Y026943D01*
X005842Y026983D01*
X005783Y027025D01*
X005726Y027071D01*
X005672Y027120D01*
X005620Y027172D01*
X005571Y027226D01*
X005525Y027283D01*
X005483Y027342D01*
X005443Y027404D01*
X005407Y027468D01*
X005375Y027533D01*
X005346Y027600D01*
X005321Y027669D01*
X005299Y027739D01*
X005282Y027810D01*
X005268Y027882D01*
X005258Y027954D01*
X005252Y028027D01*
X005250Y028100D01*
X004750Y028550D02*
X004750Y026650D01*
X004800Y026600D01*
X004800Y026450D01*
X004798Y026433D01*
X004794Y026416D01*
X004787Y026400D01*
X004777Y026386D01*
X004764Y026373D01*
X004750Y026363D01*
X004734Y026356D01*
X004717Y026352D01*
X004700Y026350D01*
X004000Y026350D02*
X003983Y026352D01*
X003966Y026356D01*
X003950Y026363D01*
X003936Y026373D01*
X003923Y026386D01*
X003913Y026400D01*
X003906Y026416D01*
X003902Y026433D01*
X003900Y026450D01*
X003900Y026600D01*
X003950Y026650D01*
X003950Y028550D01*
X003900Y028600D01*
X003900Y028750D01*
X003902Y028767D01*
X003906Y028784D01*
X003913Y028800D01*
X003923Y028814D01*
X003936Y028827D01*
X003950Y028837D01*
X003966Y028844D01*
X003983Y028848D01*
X004000Y028850D01*
X004700Y028850D02*
X004717Y028848D01*
X004734Y028844D01*
X004750Y028837D01*
X004764Y028827D01*
X004777Y028814D01*
X004787Y028800D01*
X004794Y028784D01*
X004798Y028767D01*
X004800Y028750D01*
X004800Y028600D01*
X004750Y028550D01*
X003950Y030350D02*
X003950Y030850D01*
X003948Y030876D01*
X003943Y030902D01*
X003935Y030927D01*
X003923Y030950D01*
X003909Y030972D01*
X003891Y030991D01*
X003872Y031009D01*
X003850Y031023D01*
X003827Y031035D01*
X003802Y031043D01*
X003776Y031048D01*
X003750Y031050D01*
X002450Y031050D01*
X002424Y031048D01*
X002398Y031043D01*
X002373Y031035D01*
X002350Y031023D01*
X002328Y031009D01*
X002309Y030991D01*
X002291Y030972D01*
X002277Y030950D01*
X002265Y030927D01*
X002257Y030902D01*
X002252Y030876D01*
X002250Y030850D01*
X002250Y030350D01*
X002252Y030324D01*
X002257Y030298D01*
X002265Y030273D01*
X002277Y030250D01*
X002291Y030228D01*
X002309Y030209D01*
X002328Y030191D01*
X002350Y030177D01*
X002373Y030165D01*
X002398Y030157D01*
X002424Y030152D01*
X002450Y030150D01*
X003750Y030150D01*
X003776Y030152D01*
X003802Y030157D01*
X003827Y030165D01*
X003850Y030177D01*
X003872Y030191D01*
X003891Y030209D01*
X003909Y030228D01*
X003923Y030250D01*
X003935Y030273D01*
X003943Y030298D01*
X003948Y030324D01*
X003950Y030350D01*
X003950Y032350D02*
X003967Y032352D01*
X003984Y032356D01*
X004000Y032363D01*
X004014Y032373D01*
X004027Y032386D01*
X004037Y032400D01*
X004044Y032416D01*
X004048Y032433D01*
X004050Y032450D01*
X004050Y032600D01*
X004000Y032650D01*
X004000Y034550D01*
X004050Y034600D01*
X004050Y034750D01*
X004048Y034767D01*
X004044Y034784D01*
X004037Y034800D01*
X004027Y034814D01*
X004014Y034827D01*
X004000Y034837D01*
X003984Y034844D01*
X003967Y034848D01*
X003950Y034850D01*
X003250Y034850D02*
X003233Y034848D01*
X003216Y034844D01*
X003200Y034837D01*
X003186Y034827D01*
X003173Y034814D01*
X003163Y034800D01*
X003156Y034784D01*
X003152Y034767D01*
X003150Y034750D01*
X003150Y034600D01*
X003200Y034550D01*
X003200Y032650D01*
X003150Y032600D01*
X003150Y032450D01*
X003152Y032433D01*
X003156Y032416D01*
X003163Y032400D01*
X003173Y032386D01*
X003186Y032373D01*
X003200Y032363D01*
X003216Y032356D01*
X003233Y032352D01*
X003250Y032350D01*
X002550Y032450D02*
X002550Y032600D01*
X002500Y032650D01*
X002500Y034550D01*
X002550Y034600D01*
X002550Y034750D01*
X002548Y034767D01*
X002544Y034784D01*
X002537Y034800D01*
X002527Y034814D01*
X002514Y034827D01*
X002500Y034837D01*
X002484Y034844D01*
X002467Y034848D01*
X002450Y034850D01*
X001750Y034850D02*
X001733Y034848D01*
X001716Y034844D01*
X001700Y034837D01*
X001686Y034827D01*
X001673Y034814D01*
X001663Y034800D01*
X001656Y034784D01*
X001652Y034767D01*
X001650Y034750D01*
X001650Y034600D01*
X001700Y034550D01*
X001700Y032650D01*
X001650Y032600D01*
X001650Y032450D01*
X001652Y032433D01*
X001656Y032416D01*
X001663Y032400D01*
X001673Y032386D01*
X001686Y032373D01*
X001700Y032363D01*
X001716Y032356D01*
X001733Y032352D01*
X001750Y032350D01*
X002450Y032350D02*
X002467Y032352D01*
X002484Y032356D01*
X002500Y032363D01*
X002514Y032373D01*
X002527Y032386D01*
X002537Y032400D01*
X002544Y032416D01*
X002548Y032433D01*
X002550Y032450D01*
X002100Y029300D02*
X002100Y029000D01*
X001950Y029150D02*
X002250Y029150D01*
X000750Y028100D02*
X000752Y028173D01*
X000758Y028246D01*
X000768Y028318D01*
X000782Y028390D01*
X000799Y028461D01*
X000821Y028531D01*
X000846Y028600D01*
X000875Y028667D01*
X000907Y028732D01*
X000943Y028796D01*
X000983Y028858D01*
X001025Y028917D01*
X001071Y028974D01*
X001120Y029028D01*
X001172Y029080D01*
X001226Y029129D01*
X001283Y029175D01*
X001342Y029217D01*
X001404Y029257D01*
X001468Y029293D01*
X001533Y029325D01*
X001600Y029354D01*
X001669Y029379D01*
X001739Y029401D01*
X001810Y029418D01*
X001882Y029432D01*
X001954Y029442D01*
X002027Y029448D01*
X002100Y029450D01*
X002173Y029448D01*
X002246Y029442D01*
X002318Y029432D01*
X002390Y029418D01*
X002461Y029401D01*
X002531Y029379D01*
X002600Y029354D01*
X002667Y029325D01*
X002732Y029293D01*
X002796Y029257D01*
X002858Y029217D01*
X002917Y029175D01*
X002974Y029129D01*
X003028Y029080D01*
X003080Y029028D01*
X003129Y028974D01*
X003175Y028917D01*
X003217Y028858D01*
X003257Y028796D01*
X003293Y028732D01*
X003325Y028667D01*
X003354Y028600D01*
X003379Y028531D01*
X003401Y028461D01*
X003418Y028390D01*
X003432Y028318D01*
X003442Y028246D01*
X003448Y028173D01*
X003450Y028100D01*
X003448Y028027D01*
X003442Y027954D01*
X003432Y027882D01*
X003418Y027810D01*
X003401Y027739D01*
X003379Y027669D01*
X003354Y027600D01*
X003325Y027533D01*
X003293Y027468D01*
X003257Y027404D01*
X003217Y027342D01*
X003175Y027283D01*
X003129Y027226D01*
X003080Y027172D01*
X003028Y027120D01*
X002974Y027071D01*
X002917Y027025D01*
X002858Y026983D01*
X002796Y026943D01*
X002732Y026907D01*
X002667Y026875D01*
X002600Y026846D01*
X002531Y026821D01*
X002461Y026799D01*
X002390Y026782D01*
X002318Y026768D01*
X002246Y026758D01*
X002173Y026752D01*
X002100Y026750D01*
X002027Y026752D01*
X001954Y026758D01*
X001882Y026768D01*
X001810Y026782D01*
X001739Y026799D01*
X001669Y026821D01*
X001600Y026846D01*
X001533Y026875D01*
X001468Y026907D01*
X001404Y026943D01*
X001342Y026983D01*
X001283Y027025D01*
X001226Y027071D01*
X001172Y027120D01*
X001120Y027172D01*
X001071Y027226D01*
X001025Y027283D01*
X000983Y027342D01*
X000943Y027404D01*
X000907Y027468D01*
X000875Y027533D01*
X000846Y027600D01*
X000821Y027669D01*
X000799Y027739D01*
X000782Y027810D01*
X000768Y027882D01*
X000758Y027954D01*
X000752Y028027D01*
X000750Y028100D01*
X001600Y023600D02*
X001602Y023663D01*
X001608Y023725D01*
X001618Y023787D01*
X001631Y023849D01*
X001649Y023909D01*
X001670Y023968D01*
X001695Y024026D01*
X001724Y024082D01*
X001756Y024136D01*
X001791Y024188D01*
X001829Y024237D01*
X001871Y024285D01*
X001915Y024329D01*
X001963Y024371D01*
X002012Y024409D01*
X002064Y024444D01*
X002118Y024476D01*
X002174Y024505D01*
X002232Y024530D01*
X002291Y024551D01*
X002351Y024569D01*
X002413Y024582D01*
X002475Y024592D01*
X002537Y024598D01*
X002600Y024600D01*
X002663Y024598D01*
X002725Y024592D01*
X002787Y024582D01*
X002849Y024569D01*
X002909Y024551D01*
X002968Y024530D01*
X003026Y024505D01*
X003082Y024476D01*
X003136Y024444D01*
X003188Y024409D01*
X003237Y024371D01*
X003285Y024329D01*
X003329Y024285D01*
X003371Y024237D01*
X003409Y024188D01*
X003444Y024136D01*
X003476Y024082D01*
X003505Y024026D01*
X003530Y023968D01*
X003551Y023909D01*
X003569Y023849D01*
X003582Y023787D01*
X003592Y023725D01*
X003598Y023663D01*
X003600Y023600D01*
X003598Y023537D01*
X003592Y023475D01*
X003582Y023413D01*
X003569Y023351D01*
X003551Y023291D01*
X003530Y023232D01*
X003505Y023174D01*
X003476Y023118D01*
X003444Y023064D01*
X003409Y023012D01*
X003371Y022963D01*
X003329Y022915D01*
X003285Y022871D01*
X003237Y022829D01*
X003188Y022791D01*
X003136Y022756D01*
X003082Y022724D01*
X003026Y022695D01*
X002968Y022670D01*
X002909Y022649D01*
X002849Y022631D01*
X002787Y022618D01*
X002725Y022608D01*
X002663Y022602D01*
X002600Y022600D01*
X002537Y022602D01*
X002475Y022608D01*
X002413Y022618D01*
X002351Y022631D01*
X002291Y022649D01*
X002232Y022670D01*
X002174Y022695D01*
X002118Y022724D01*
X002064Y022756D01*
X002012Y022791D01*
X001963Y022829D01*
X001915Y022871D01*
X001871Y022915D01*
X001829Y022963D01*
X001791Y023012D01*
X001756Y023064D01*
X001724Y023118D01*
X001695Y023174D01*
X001670Y023232D01*
X001649Y023291D01*
X001631Y023351D01*
X001618Y023413D01*
X001608Y023475D01*
X001602Y023537D01*
X001600Y023600D01*
X001600Y021100D02*
X001602Y021163D01*
X001608Y021225D01*
X001618Y021287D01*
X001631Y021349D01*
X001649Y021409D01*
X001670Y021468D01*
X001695Y021526D01*
X001724Y021582D01*
X001756Y021636D01*
X001791Y021688D01*
X001829Y021737D01*
X001871Y021785D01*
X001915Y021829D01*
X001963Y021871D01*
X002012Y021909D01*
X002064Y021944D01*
X002118Y021976D01*
X002174Y022005D01*
X002232Y022030D01*
X002291Y022051D01*
X002351Y022069D01*
X002413Y022082D01*
X002475Y022092D01*
X002537Y022098D01*
X002600Y022100D01*
X002663Y022098D01*
X002725Y022092D01*
X002787Y022082D01*
X002849Y022069D01*
X002909Y022051D01*
X002968Y022030D01*
X003026Y022005D01*
X003082Y021976D01*
X003136Y021944D01*
X003188Y021909D01*
X003237Y021871D01*
X003285Y021829D01*
X003329Y021785D01*
X003371Y021737D01*
X003409Y021688D01*
X003444Y021636D01*
X003476Y021582D01*
X003505Y021526D01*
X003530Y021468D01*
X003551Y021409D01*
X003569Y021349D01*
X003582Y021287D01*
X003592Y021225D01*
X003598Y021163D01*
X003600Y021100D01*
X003598Y021037D01*
X003592Y020975D01*
X003582Y020913D01*
X003569Y020851D01*
X003551Y020791D01*
X003530Y020732D01*
X003505Y020674D01*
X003476Y020618D01*
X003444Y020564D01*
X003409Y020512D01*
X003371Y020463D01*
X003329Y020415D01*
X003285Y020371D01*
X003237Y020329D01*
X003188Y020291D01*
X003136Y020256D01*
X003082Y020224D01*
X003026Y020195D01*
X002968Y020170D01*
X002909Y020149D01*
X002849Y020131D01*
X002787Y020118D01*
X002725Y020108D01*
X002663Y020102D01*
X002600Y020100D01*
X002537Y020102D01*
X002475Y020108D01*
X002413Y020118D01*
X002351Y020131D01*
X002291Y020149D01*
X002232Y020170D01*
X002174Y020195D01*
X002118Y020224D01*
X002064Y020256D01*
X002012Y020291D01*
X001963Y020329D01*
X001915Y020371D01*
X001871Y020415D01*
X001829Y020463D01*
X001791Y020512D01*
X001756Y020564D01*
X001724Y020618D01*
X001695Y020674D01*
X001670Y020732D01*
X001649Y020791D01*
X001631Y020851D01*
X001618Y020913D01*
X001608Y020975D01*
X001602Y021037D01*
X001600Y021100D01*
X001650Y018750D02*
X001650Y018600D01*
X001700Y018550D01*
X001700Y016650D01*
X001650Y016600D01*
X001650Y016450D01*
X001652Y016433D01*
X001656Y016416D01*
X001663Y016400D01*
X001673Y016386D01*
X001686Y016373D01*
X001700Y016363D01*
X001716Y016356D01*
X001733Y016352D01*
X001750Y016350D01*
X001850Y015100D02*
X001600Y014850D01*
X001600Y014350D01*
X001850Y014100D01*
X002350Y014100D01*
X002600Y014350D01*
X002850Y014100D01*
X003350Y014100D01*
X003600Y014350D01*
X003600Y014850D01*
X003350Y015100D01*
X002850Y015100D01*
X002600Y014850D01*
X002600Y014350D01*
X002600Y014850D02*
X002350Y015100D01*
X001850Y015100D01*
X002450Y016350D02*
X002467Y016352D01*
X002484Y016356D01*
X002500Y016363D01*
X002514Y016373D01*
X002527Y016386D01*
X002537Y016400D01*
X002544Y016416D01*
X002548Y016433D01*
X002550Y016450D01*
X002550Y016600D01*
X002500Y016650D01*
X002500Y018550D01*
X002550Y018600D01*
X002550Y018750D01*
X002548Y018767D01*
X002544Y018784D01*
X002537Y018800D01*
X002527Y018814D01*
X002514Y018827D01*
X002500Y018837D01*
X002484Y018844D01*
X002467Y018848D01*
X002450Y018850D01*
X001750Y018850D02*
X001733Y018848D01*
X001716Y018844D01*
X001700Y018837D01*
X001686Y018827D01*
X001673Y018814D01*
X001663Y018800D01*
X001656Y018784D01*
X001652Y018767D01*
X001650Y018750D01*
X003300Y021400D02*
X003300Y021600D01*
X003200Y021500D02*
X003400Y021500D01*
X003300Y023900D02*
X003300Y024100D01*
X003200Y024000D02*
X003400Y024000D01*
X003650Y018750D02*
X003650Y018600D01*
X003700Y018550D01*
X003700Y016650D01*
X003650Y016600D01*
X003650Y016450D01*
X003652Y016433D01*
X003656Y016416D01*
X003663Y016400D01*
X003673Y016386D01*
X003686Y016373D01*
X003700Y016363D01*
X003716Y016356D01*
X003733Y016352D01*
X003750Y016350D01*
X004450Y016350D02*
X004467Y016352D01*
X004484Y016356D01*
X004500Y016363D01*
X004514Y016373D01*
X004527Y016386D01*
X004537Y016400D01*
X004544Y016416D01*
X004548Y016433D01*
X004550Y016450D01*
X004550Y016600D01*
X004500Y016650D01*
X004500Y018550D01*
X004550Y018600D01*
X004550Y018750D01*
X004548Y018767D01*
X004544Y018784D01*
X004537Y018800D01*
X004527Y018814D01*
X004514Y018827D01*
X004500Y018837D01*
X004484Y018844D01*
X004467Y018848D01*
X004450Y018850D01*
X003750Y018850D02*
X003733Y018848D01*
X003716Y018844D01*
X003700Y018837D01*
X003686Y018827D01*
X003673Y018814D01*
X003663Y018800D01*
X003656Y018784D01*
X003652Y018767D01*
X003650Y018750D01*
X003350Y013600D02*
X002850Y013600D01*
X002600Y013350D01*
X002350Y013600D01*
X001850Y013600D01*
X001600Y013350D01*
X001600Y012850D01*
X001850Y012600D01*
X002350Y012600D01*
X002600Y012850D01*
X002600Y013350D01*
X002600Y012850D02*
X002850Y012600D01*
X003350Y012600D01*
X003600Y012850D01*
X003600Y013350D01*
X003350Y013600D01*
X008800Y017200D02*
X009000Y017200D01*
X008900Y017100D02*
X008900Y017300D01*
X008600Y017600D02*
X008602Y017663D01*
X008608Y017725D01*
X008618Y017787D01*
X008631Y017849D01*
X008649Y017909D01*
X008670Y017968D01*
X008695Y018026D01*
X008724Y018082D01*
X008756Y018136D01*
X008791Y018188D01*
X008829Y018237D01*
X008871Y018285D01*
X008915Y018329D01*
X008963Y018371D01*
X009012Y018409D01*
X009064Y018444D01*
X009118Y018476D01*
X009174Y018505D01*
X009232Y018530D01*
X009291Y018551D01*
X009351Y018569D01*
X009413Y018582D01*
X009475Y018592D01*
X009537Y018598D01*
X009600Y018600D01*
X009663Y018598D01*
X009725Y018592D01*
X009787Y018582D01*
X009849Y018569D01*
X009909Y018551D01*
X009968Y018530D01*
X010026Y018505D01*
X010082Y018476D01*
X010136Y018444D01*
X010188Y018409D01*
X010237Y018371D01*
X010285Y018329D01*
X010329Y018285D01*
X010371Y018237D01*
X010409Y018188D01*
X010444Y018136D01*
X010476Y018082D01*
X010505Y018026D01*
X010530Y017968D01*
X010551Y017909D01*
X010569Y017849D01*
X010582Y017787D01*
X010592Y017725D01*
X010598Y017663D01*
X010600Y017600D01*
X010598Y017537D01*
X010592Y017475D01*
X010582Y017413D01*
X010569Y017351D01*
X010551Y017291D01*
X010530Y017232D01*
X010505Y017174D01*
X010476Y017118D01*
X010444Y017064D01*
X010409Y017012D01*
X010371Y016963D01*
X010329Y016915D01*
X010285Y016871D01*
X010237Y016829D01*
X010188Y016791D01*
X010136Y016756D01*
X010082Y016724D01*
X010026Y016695D01*
X009968Y016670D01*
X009909Y016649D01*
X009849Y016631D01*
X009787Y016618D01*
X009725Y016608D01*
X009663Y016602D01*
X009600Y016600D01*
X009537Y016602D01*
X009475Y016608D01*
X009413Y016618D01*
X009351Y016631D01*
X009291Y016649D01*
X009232Y016670D01*
X009174Y016695D01*
X009118Y016724D01*
X009064Y016756D01*
X009012Y016791D01*
X008963Y016829D01*
X008915Y016871D01*
X008871Y016915D01*
X008829Y016963D01*
X008791Y017012D01*
X008756Y017064D01*
X008724Y017118D01*
X008695Y017174D01*
X008670Y017232D01*
X008649Y017291D01*
X008631Y017351D01*
X008618Y017413D01*
X008608Y017475D01*
X008602Y017537D01*
X008600Y017600D01*
X012900Y026450D02*
X012900Y026600D01*
X012950Y026650D01*
X012950Y028550D01*
X012900Y028600D01*
X012900Y028750D01*
X012902Y028767D01*
X012906Y028784D01*
X012913Y028800D01*
X012923Y028814D01*
X012936Y028827D01*
X012950Y028837D01*
X012966Y028844D01*
X012983Y028848D01*
X013000Y028850D01*
X013500Y030150D02*
X012200Y030150D01*
X012174Y030152D01*
X012148Y030157D01*
X012123Y030165D01*
X012100Y030177D01*
X012078Y030191D01*
X012059Y030209D01*
X012041Y030228D01*
X012027Y030250D01*
X012015Y030273D01*
X012007Y030298D01*
X012002Y030324D01*
X012000Y030350D01*
X012000Y030850D01*
X012002Y030876D01*
X012007Y030902D01*
X012015Y030927D01*
X012027Y030950D01*
X012041Y030972D01*
X012059Y030991D01*
X012078Y031009D01*
X012100Y031023D01*
X012123Y031035D01*
X012148Y031043D01*
X012174Y031048D01*
X012200Y031050D01*
X013500Y031050D01*
X013526Y031048D01*
X013552Y031043D01*
X013577Y031035D01*
X013600Y031023D01*
X013622Y031009D01*
X013641Y030991D01*
X013659Y030972D01*
X013673Y030950D01*
X013685Y030927D01*
X013693Y030902D01*
X013698Y030876D01*
X013700Y030850D01*
X013700Y030350D01*
X013698Y030324D01*
X013693Y030298D01*
X013685Y030273D01*
X013673Y030250D01*
X013659Y030228D01*
X013641Y030209D01*
X013622Y030191D01*
X013600Y030177D01*
X013577Y030165D01*
X013552Y030157D01*
X013526Y030152D01*
X013500Y030150D01*
X013700Y028850D02*
X013717Y028848D01*
X013734Y028844D01*
X013750Y028837D01*
X013764Y028827D01*
X013777Y028814D01*
X013787Y028800D01*
X013794Y028784D01*
X013798Y028767D01*
X013800Y028750D01*
X013800Y028600D01*
X013750Y028550D01*
X013750Y026650D01*
X013800Y026600D01*
X013800Y026450D01*
X013798Y026433D01*
X013794Y026416D01*
X013787Y026400D01*
X013777Y026386D01*
X013764Y026373D01*
X013750Y026363D01*
X013734Y026356D01*
X013717Y026352D01*
X013700Y026350D01*
X013000Y026350D02*
X012983Y026352D01*
X012966Y026356D01*
X012950Y026363D01*
X012936Y026373D01*
X012923Y026386D01*
X012913Y026400D01*
X012906Y026416D01*
X012902Y026433D01*
X012900Y026450D01*
X015450Y029150D02*
X015750Y029150D01*
X015600Y029300D02*
X015600Y029000D01*
X014250Y028100D02*
X014252Y028173D01*
X014258Y028246D01*
X014268Y028318D01*
X014282Y028390D01*
X014299Y028461D01*
X014321Y028531D01*
X014346Y028600D01*
X014375Y028667D01*
X014407Y028732D01*
X014443Y028796D01*
X014483Y028858D01*
X014525Y028917D01*
X014571Y028974D01*
X014620Y029028D01*
X014672Y029080D01*
X014726Y029129D01*
X014783Y029175D01*
X014842Y029217D01*
X014904Y029257D01*
X014968Y029293D01*
X015033Y029325D01*
X015100Y029354D01*
X015169Y029379D01*
X015239Y029401D01*
X015310Y029418D01*
X015382Y029432D01*
X015454Y029442D01*
X015527Y029448D01*
X015600Y029450D01*
X015673Y029448D01*
X015746Y029442D01*
X015818Y029432D01*
X015890Y029418D01*
X015961Y029401D01*
X016031Y029379D01*
X016100Y029354D01*
X016167Y029325D01*
X016232Y029293D01*
X016296Y029257D01*
X016358Y029217D01*
X016417Y029175D01*
X016474Y029129D01*
X016528Y029080D01*
X016580Y029028D01*
X016629Y028974D01*
X016675Y028917D01*
X016717Y028858D01*
X016757Y028796D01*
X016793Y028732D01*
X016825Y028667D01*
X016854Y028600D01*
X016879Y028531D01*
X016901Y028461D01*
X016918Y028390D01*
X016932Y028318D01*
X016942Y028246D01*
X016948Y028173D01*
X016950Y028100D01*
X016948Y028027D01*
X016942Y027954D01*
X016932Y027882D01*
X016918Y027810D01*
X016901Y027739D01*
X016879Y027669D01*
X016854Y027600D01*
X016825Y027533D01*
X016793Y027468D01*
X016757Y027404D01*
X016717Y027342D01*
X016675Y027283D01*
X016629Y027226D01*
X016580Y027172D01*
X016528Y027120D01*
X016474Y027071D01*
X016417Y027025D01*
X016358Y026983D01*
X016296Y026943D01*
X016232Y026907D01*
X016167Y026875D01*
X016100Y026846D01*
X016031Y026821D01*
X015961Y026799D01*
X015890Y026782D01*
X015818Y026768D01*
X015746Y026758D01*
X015673Y026752D01*
X015600Y026750D01*
X015527Y026752D01*
X015454Y026758D01*
X015382Y026768D01*
X015310Y026782D01*
X015239Y026799D01*
X015169Y026821D01*
X015100Y026846D01*
X015033Y026875D01*
X014968Y026907D01*
X014904Y026943D01*
X014842Y026983D01*
X014783Y027025D01*
X014726Y027071D01*
X014672Y027120D01*
X014620Y027172D01*
X014571Y027226D01*
X014525Y027283D01*
X014483Y027342D01*
X014443Y027404D01*
X014407Y027468D01*
X014375Y027533D01*
X014346Y027600D01*
X014321Y027669D01*
X014299Y027739D01*
X014282Y027810D01*
X014268Y027882D01*
X014258Y027954D01*
X014252Y028027D01*
X014250Y028100D01*
X015750Y030350D02*
X015750Y030850D01*
X015752Y030876D01*
X015757Y030902D01*
X015765Y030927D01*
X015777Y030950D01*
X015791Y030972D01*
X015809Y030991D01*
X015828Y031009D01*
X015850Y031023D01*
X015873Y031035D01*
X015898Y031043D01*
X015924Y031048D01*
X015950Y031050D01*
X017250Y031050D01*
X017276Y031048D01*
X017302Y031043D01*
X017327Y031035D01*
X017350Y031023D01*
X017372Y031009D01*
X017391Y030991D01*
X017409Y030972D01*
X017423Y030950D01*
X017435Y030927D01*
X017443Y030902D01*
X017448Y030876D01*
X017450Y030850D01*
X017450Y030350D01*
X017448Y030324D01*
X017443Y030298D01*
X017435Y030273D01*
X017423Y030250D01*
X017409Y030228D01*
X017391Y030209D01*
X017372Y030191D01*
X017350Y030177D01*
X017327Y030165D01*
X017302Y030157D01*
X017276Y030152D01*
X017250Y030150D01*
X015950Y030150D01*
X015924Y030152D01*
X015898Y030157D01*
X015873Y030165D01*
X015850Y030177D01*
X015828Y030191D01*
X015809Y030209D01*
X015791Y030228D01*
X015777Y030250D01*
X015765Y030273D01*
X015757Y030298D01*
X015752Y030324D01*
X015750Y030350D01*
X015950Y032350D02*
X015967Y032352D01*
X015984Y032356D01*
X016000Y032363D01*
X016014Y032373D01*
X016027Y032386D01*
X016037Y032400D01*
X016044Y032416D01*
X016048Y032433D01*
X016050Y032450D01*
X016050Y032600D01*
X016000Y032650D01*
X016000Y034550D01*
X016050Y034600D01*
X016050Y034750D01*
X016048Y034767D01*
X016044Y034784D01*
X016037Y034800D01*
X016027Y034814D01*
X016014Y034827D01*
X016000Y034837D01*
X015984Y034844D01*
X015967Y034848D01*
X015950Y034850D01*
X015250Y034850D02*
X015233Y034848D01*
X015216Y034844D01*
X015200Y034837D01*
X015186Y034827D01*
X015173Y034814D01*
X015163Y034800D01*
X015156Y034784D01*
X015152Y034767D01*
X015150Y034750D01*
X015150Y034600D01*
X015200Y034550D01*
X015200Y032650D01*
X015150Y032600D01*
X015150Y032450D01*
X015152Y032433D01*
X015156Y032416D01*
X015163Y032400D01*
X015173Y032386D01*
X015186Y032373D01*
X015200Y032363D01*
X015216Y032356D01*
X015233Y032352D01*
X015250Y032350D01*
X016650Y032450D02*
X016650Y032600D01*
X016700Y032650D01*
X016700Y034550D01*
X016650Y034600D01*
X016650Y034750D01*
X016652Y034767D01*
X016656Y034784D01*
X016663Y034800D01*
X016673Y034814D01*
X016686Y034827D01*
X016700Y034837D01*
X016716Y034844D01*
X016733Y034848D01*
X016750Y034850D01*
X017450Y034850D02*
X017467Y034848D01*
X017484Y034844D01*
X017500Y034837D01*
X017514Y034827D01*
X017527Y034814D01*
X017537Y034800D01*
X017544Y034784D01*
X017548Y034767D01*
X017550Y034750D01*
X017550Y034600D01*
X017500Y034550D01*
X017500Y032650D01*
X017550Y032600D01*
X017550Y032450D01*
X017548Y032433D01*
X017544Y032416D01*
X017537Y032400D01*
X017527Y032386D01*
X017514Y032373D01*
X017500Y032363D01*
X017484Y032356D01*
X017467Y032352D01*
X017450Y032350D01*
X016750Y032350D02*
X016733Y032352D01*
X016716Y032356D01*
X016700Y032363D01*
X016686Y032373D01*
X016673Y032386D01*
X016663Y032400D01*
X016656Y032416D01*
X016652Y032433D01*
X016650Y032450D01*
X017400Y028750D02*
X017400Y028600D01*
X017450Y028550D01*
X017450Y026650D01*
X017400Y026600D01*
X017400Y026450D01*
X017402Y026433D01*
X017406Y026416D01*
X017413Y026400D01*
X017423Y026386D01*
X017436Y026373D01*
X017450Y026363D01*
X017466Y026356D01*
X017483Y026352D01*
X017500Y026350D01*
X018200Y026350D02*
X018217Y026352D01*
X018234Y026356D01*
X018250Y026363D01*
X018264Y026373D01*
X018277Y026386D01*
X018287Y026400D01*
X018294Y026416D01*
X018298Y026433D01*
X018300Y026450D01*
X018300Y026600D01*
X018250Y026650D01*
X018250Y028550D01*
X018300Y028600D01*
X018300Y028750D01*
X018298Y028767D01*
X018294Y028784D01*
X018287Y028800D01*
X018277Y028814D01*
X018264Y028827D01*
X018250Y028837D01*
X018234Y028844D01*
X018217Y028848D01*
X018200Y028850D01*
X017500Y028850D02*
X017483Y028848D01*
X017466Y028844D01*
X017450Y028837D01*
X017436Y028827D01*
X017423Y028814D01*
X017413Y028800D01*
X017406Y028784D01*
X017402Y028767D01*
X017400Y028750D01*
X013800Y032450D02*
X013800Y032600D01*
X013750Y032650D01*
X013750Y034550D01*
X013800Y034600D01*
X013800Y034750D01*
X013798Y034767D01*
X013794Y034784D01*
X013787Y034800D01*
X013777Y034814D01*
X013764Y034827D01*
X013750Y034837D01*
X013734Y034844D01*
X013717Y034848D01*
X013700Y034850D01*
X013000Y034850D02*
X012983Y034848D01*
X012966Y034844D01*
X012950Y034837D01*
X012936Y034827D01*
X012923Y034814D01*
X012913Y034800D01*
X012906Y034784D01*
X012902Y034767D01*
X012900Y034750D01*
X012900Y034600D01*
X012950Y034550D01*
X012950Y032650D01*
X012900Y032600D01*
X012900Y032450D01*
X012902Y032433D01*
X012906Y032416D01*
X012913Y032400D01*
X012923Y032386D01*
X012936Y032373D01*
X012950Y032363D01*
X012966Y032356D01*
X012983Y032352D01*
X013000Y032350D01*
X012300Y032450D02*
X012300Y032600D01*
X012250Y032650D01*
X012250Y034550D01*
X012300Y034600D01*
X012300Y034750D01*
X012298Y034767D01*
X012294Y034784D01*
X012287Y034800D01*
X012277Y034814D01*
X012264Y034827D01*
X012250Y034837D01*
X012234Y034844D01*
X012217Y034848D01*
X012200Y034850D01*
X011500Y034850D02*
X011483Y034848D01*
X011466Y034844D01*
X011450Y034837D01*
X011436Y034827D01*
X011423Y034814D01*
X011413Y034800D01*
X011406Y034784D01*
X011402Y034767D01*
X011400Y034750D01*
X011400Y034600D01*
X011450Y034550D01*
X011450Y032650D01*
X011400Y032600D01*
X011400Y032450D01*
X011402Y032433D01*
X011406Y032416D01*
X011413Y032400D01*
X011423Y032386D01*
X011436Y032373D01*
X011450Y032363D01*
X011466Y032356D01*
X011483Y032352D01*
X011500Y032350D01*
X012200Y032350D02*
X012217Y032352D01*
X012234Y032356D01*
X012250Y032363D01*
X012264Y032373D01*
X012277Y032386D01*
X012287Y032400D01*
X012294Y032416D01*
X012298Y032433D01*
X012300Y032450D01*
X013700Y032350D02*
X013717Y032352D01*
X013734Y032356D01*
X013750Y032363D01*
X013764Y032373D01*
X013777Y032386D01*
X013787Y032400D01*
X013794Y032416D01*
X013798Y032433D01*
X013800Y032450D01*
X015350Y036350D02*
X015100Y036600D01*
X015100Y037100D01*
X015350Y037350D01*
X015100Y037600D01*
X015100Y038100D01*
X015350Y038350D01*
X015850Y038350D01*
X016100Y038100D01*
X016100Y037600D01*
X015850Y037350D01*
X016100Y037100D01*
X016100Y036600D01*
X015850Y036350D01*
X015350Y036350D01*
X015350Y037350D02*
X015850Y037350D01*
X016679Y037310D02*
X017320Y037737D01*
X016679Y037737D01*
X016679Y037310D02*
X017320Y037310D01*
X017320Y037094D02*
X017320Y036880D01*
X017320Y036987D02*
X016679Y036987D01*
X016679Y036880D02*
X016679Y037094D01*
X012820Y037094D02*
X012820Y036880D01*
X012820Y036987D02*
X012179Y036987D01*
X012179Y036880D02*
X012179Y037094D01*
X012179Y037310D02*
X012820Y037737D01*
X012179Y037737D01*
X012179Y037310D02*
X012820Y037310D01*
X011600Y037100D02*
X011600Y036600D01*
X011350Y036350D01*
X010850Y036350D01*
X010600Y036600D01*
X010600Y037100D01*
X010850Y037350D01*
X010600Y037600D01*
X010600Y038100D01*
X010850Y038350D01*
X011350Y038350D01*
X011600Y038100D01*
X011600Y037600D01*
X011350Y037350D01*
X011600Y037100D01*
X011350Y037350D02*
X010850Y037350D01*
X008320Y037310D02*
X007679Y037310D01*
X008320Y037737D01*
X007679Y037737D01*
X007679Y037094D02*
X007679Y036880D01*
X007679Y036987D02*
X008320Y036987D01*
X008320Y036880D02*
X008320Y037094D01*
X007100Y037100D02*
X007100Y036600D01*
X006850Y036350D01*
X006350Y036350D01*
X006100Y036600D01*
X006100Y037100D01*
X006350Y037350D01*
X006100Y037600D01*
X006100Y038100D01*
X006350Y038350D01*
X006850Y038350D01*
X007100Y038100D01*
X007100Y037600D01*
X006850Y037350D01*
X007100Y037100D01*
X006850Y037350D02*
X006350Y037350D01*
X006900Y035000D02*
X006900Y034850D01*
X006950Y034800D01*
X006950Y032900D01*
X006900Y032850D01*
X006900Y032700D01*
X006902Y032683D01*
X006906Y032666D01*
X006913Y032650D01*
X006923Y032636D01*
X006936Y032623D01*
X006950Y032613D01*
X006966Y032606D01*
X006983Y032602D01*
X007000Y032600D01*
X006300Y032600D02*
X006250Y032650D01*
X006250Y034550D01*
X006300Y034600D01*
X006300Y034750D01*
X006298Y034767D01*
X006294Y034784D01*
X006287Y034800D01*
X006277Y034814D01*
X006264Y034827D01*
X006250Y034837D01*
X006234Y034844D01*
X006217Y034848D01*
X006200Y034850D01*
X005500Y034850D02*
X005483Y034848D01*
X005466Y034844D01*
X005450Y034837D01*
X005436Y034827D01*
X005423Y034814D01*
X005413Y034800D01*
X005406Y034784D01*
X005402Y034767D01*
X005400Y034750D01*
X005400Y034600D01*
X005450Y034550D01*
X005450Y032650D01*
X005400Y032600D01*
X005400Y032450D01*
X005402Y032433D01*
X005406Y032416D01*
X005413Y032400D01*
X005423Y032386D01*
X005436Y032373D01*
X005450Y032363D01*
X005466Y032356D01*
X005483Y032352D01*
X005500Y032350D01*
X006200Y032350D02*
X006217Y032352D01*
X006234Y032356D01*
X006250Y032363D01*
X006264Y032373D01*
X006277Y032386D01*
X006287Y032400D01*
X006294Y032416D01*
X006298Y032433D01*
X006300Y032450D01*
X006300Y032600D01*
X006900Y035000D02*
X006902Y035017D01*
X006906Y035034D01*
X006913Y035050D01*
X006923Y035064D01*
X006936Y035077D01*
X006950Y035087D01*
X006966Y035094D01*
X006983Y035098D01*
X007000Y035100D01*
X007700Y035100D02*
X007717Y035098D01*
X007734Y035094D01*
X007750Y035087D01*
X007764Y035077D01*
X007777Y035064D01*
X007787Y035050D01*
X007794Y035034D01*
X007798Y035017D01*
X007800Y035000D01*
X007800Y034850D01*
X007750Y034800D01*
X007750Y032900D01*
X007800Y032850D01*
X007800Y032700D01*
X007798Y032683D01*
X007794Y032666D01*
X007787Y032650D01*
X007777Y032636D01*
X007764Y032623D01*
X007750Y032613D01*
X007734Y032606D01*
X007717Y032602D01*
X007700Y032600D01*
X003820Y036880D02*
X003820Y037094D01*
X003820Y036987D02*
X003179Y036987D01*
X003179Y036880D02*
X003179Y037094D01*
X003179Y037310D02*
X003820Y037737D01*
X003179Y037737D01*
X003179Y037310D02*
X003820Y037310D01*
X002600Y037100D02*
X002600Y036600D01*
X002350Y036350D01*
X001850Y036350D01*
X001600Y036600D01*
X001600Y037100D01*
X001850Y037350D01*
X001600Y037600D01*
X001600Y038100D01*
X001850Y038350D01*
X002350Y038350D01*
X002600Y038100D01*
X002600Y037600D01*
X002350Y037350D01*
X002600Y037100D01*
X002350Y037350D02*
X001850Y037350D01*
X016300Y017200D02*
X016500Y017200D01*
X016400Y017100D02*
X016400Y017300D01*
X016100Y017600D02*
X016102Y017663D01*
X016108Y017725D01*
X016118Y017787D01*
X016131Y017849D01*
X016149Y017909D01*
X016170Y017968D01*
X016195Y018026D01*
X016224Y018082D01*
X016256Y018136D01*
X016291Y018188D01*
X016329Y018237D01*
X016371Y018285D01*
X016415Y018329D01*
X016463Y018371D01*
X016512Y018409D01*
X016564Y018444D01*
X016618Y018476D01*
X016674Y018505D01*
X016732Y018530D01*
X016791Y018551D01*
X016851Y018569D01*
X016913Y018582D01*
X016975Y018592D01*
X017037Y018598D01*
X017100Y018600D01*
X017163Y018598D01*
X017225Y018592D01*
X017287Y018582D01*
X017349Y018569D01*
X017409Y018551D01*
X017468Y018530D01*
X017526Y018505D01*
X017582Y018476D01*
X017636Y018444D01*
X017688Y018409D01*
X017737Y018371D01*
X017785Y018329D01*
X017829Y018285D01*
X017871Y018237D01*
X017909Y018188D01*
X017944Y018136D01*
X017976Y018082D01*
X018005Y018026D01*
X018030Y017968D01*
X018051Y017909D01*
X018069Y017849D01*
X018082Y017787D01*
X018092Y017725D01*
X018098Y017663D01*
X018100Y017600D01*
X018098Y017537D01*
X018092Y017475D01*
X018082Y017413D01*
X018069Y017351D01*
X018051Y017291D01*
X018030Y017232D01*
X018005Y017174D01*
X017976Y017118D01*
X017944Y017064D01*
X017909Y017012D01*
X017871Y016963D01*
X017829Y016915D01*
X017785Y016871D01*
X017737Y016829D01*
X017688Y016791D01*
X017636Y016756D01*
X017582Y016724D01*
X017526Y016695D01*
X017468Y016670D01*
X017409Y016649D01*
X017349Y016631D01*
X017287Y016618D01*
X017225Y016608D01*
X017163Y016602D01*
X017100Y016600D01*
X017037Y016602D01*
X016975Y016608D01*
X016913Y016618D01*
X016851Y016631D01*
X016791Y016649D01*
X016732Y016670D01*
X016674Y016695D01*
X016618Y016724D01*
X016564Y016756D01*
X016512Y016791D01*
X016463Y016829D01*
X016415Y016871D01*
X016371Y016915D01*
X016329Y016963D01*
X016291Y017012D01*
X016256Y017064D01*
X016224Y017118D01*
X016195Y017174D01*
X016170Y017232D01*
X016149Y017291D01*
X016131Y017351D01*
X016118Y017413D01*
X016108Y017475D01*
X016102Y017537D01*
X016100Y017600D01*
X006850Y002600D02*
X007100Y002350D01*
X007100Y001850D01*
X006850Y001600D01*
X006350Y001600D01*
X006100Y001850D01*
X005850Y001600D01*
X005350Y001600D01*
X005100Y001850D01*
X004850Y001600D01*
X004350Y001600D01*
X004100Y001850D01*
X003850Y001600D01*
X003350Y001600D01*
X003100Y001850D01*
X003100Y002350D01*
X003350Y002600D01*
X003850Y002600D01*
X004100Y002350D01*
X004350Y002600D01*
X004850Y002600D01*
X005100Y002350D01*
X005100Y001850D01*
X005100Y002350D02*
X005350Y002600D01*
X005850Y002600D01*
X006100Y002350D01*
X006350Y002600D01*
X006850Y002600D01*
X006100Y002350D02*
X006100Y001850D01*
X004100Y001850D02*
X004100Y002350D01*
D12*
X004120Y002870D02*
X004120Y003330D01*
X004350Y003330D01*
X004427Y003254D01*
X004427Y003100D01*
X004350Y003023D01*
X004120Y003023D01*
X004273Y003023D02*
X004427Y002870D01*
X004580Y002870D02*
X004887Y002870D01*
X004734Y002870D02*
X004734Y003330D01*
X004580Y003177D01*
X004677Y003278D02*
X004677Y003509D01*
X004600Y003585D01*
X004446Y003585D01*
X004370Y003509D01*
X004370Y003278D01*
X004830Y003278D01*
X004677Y003432D02*
X004830Y003585D01*
X004830Y003739D02*
X004753Y003739D01*
X004446Y004046D01*
X004370Y004046D01*
X004370Y003739D01*
X004907Y004199D02*
X004907Y004506D01*
X004830Y004660D02*
X004830Y004967D01*
X004830Y004813D02*
X004370Y004813D01*
X004523Y004660D01*
X005120Y003330D02*
X005350Y003330D01*
X005427Y003254D01*
X005427Y003100D01*
X005350Y003023D01*
X005120Y003023D01*
X005120Y002870D02*
X005120Y003330D01*
X005273Y003023D02*
X005427Y002870D01*
X005580Y002870D02*
X005887Y003177D01*
X005887Y003254D01*
X005811Y003330D01*
X005657Y003330D01*
X005580Y003254D01*
X005580Y002870D02*
X005887Y002870D01*
X005800Y001200D02*
X005980Y001200D01*
X006040Y001140D01*
X006040Y001020D01*
X005980Y000960D01*
X005800Y000960D01*
X005920Y000960D02*
X006040Y000840D01*
X006168Y000840D02*
X006168Y001200D01*
X006168Y000840D02*
X006408Y000840D01*
X005800Y000840D02*
X005800Y001200D01*
X005672Y001200D02*
X005432Y001200D01*
X005552Y001200D02*
X005552Y000840D01*
X005303Y000900D02*
X005243Y000840D01*
X005123Y000840D01*
X005063Y000900D01*
X005063Y001140D01*
X005123Y001200D01*
X005243Y001200D01*
X005303Y001140D01*
X004935Y000780D02*
X004695Y000780D01*
X004447Y000840D02*
X004447Y001020D01*
X004567Y001140D01*
X004567Y001200D01*
X004447Y001020D02*
X004327Y001140D01*
X004327Y001200D01*
X003958Y001200D02*
X003958Y000840D01*
X004199Y000840D01*
X003830Y000840D02*
X003710Y000960D01*
X003770Y000960D02*
X003590Y000960D01*
X003590Y000840D02*
X003590Y001200D01*
X003770Y001200D01*
X003830Y001140D01*
X003830Y001020D01*
X003770Y000960D01*
X002771Y002620D02*
X002848Y002697D01*
X002848Y003004D01*
X002771Y003080D01*
X002541Y003080D01*
X002541Y002620D01*
X002771Y002620D01*
X002387Y002620D02*
X002387Y003080D01*
X002080Y003080D02*
X002387Y002620D01*
X002080Y002620D02*
X002080Y003080D01*
X001927Y003004D02*
X001850Y003080D01*
X001697Y003080D01*
X001620Y003004D01*
X001620Y002697D01*
X001697Y002620D01*
X001850Y002620D01*
X001927Y002697D01*
X001927Y002850D01*
X001773Y002850D01*
X002197Y006870D02*
X002120Y006947D01*
X002120Y007254D01*
X002197Y007330D01*
X002350Y007330D01*
X002427Y007254D01*
X002427Y006947D01*
X002350Y006870D01*
X002197Y006870D01*
X002273Y007023D02*
X002427Y006870D01*
X002580Y006870D02*
X002887Y006870D01*
X002734Y006870D02*
X002734Y007330D01*
X002580Y007177D01*
X004270Y009270D02*
X004270Y009500D01*
X004346Y009577D01*
X004653Y009577D01*
X004730Y009500D01*
X004730Y009270D01*
X004270Y009270D01*
X004346Y009730D02*
X004270Y009807D01*
X004270Y009961D01*
X004346Y010037D01*
X004423Y010037D01*
X004730Y009730D01*
X004730Y010037D01*
X004850Y009210D02*
X004850Y010990D01*
X006350Y010990D02*
X006350Y009210D01*
X006947Y007330D02*
X006870Y007254D01*
X006870Y006947D01*
X006947Y006870D01*
X007100Y006870D01*
X007177Y006947D01*
X007177Y007254D01*
X007100Y007330D01*
X006947Y007330D01*
X007023Y007023D02*
X007177Y006870D01*
X007330Y006870D02*
X007637Y007177D01*
X007637Y007254D01*
X007561Y007330D01*
X007407Y007330D01*
X007330Y007254D01*
X007330Y006870D02*
X007637Y006870D01*
X007330Y004967D02*
X007330Y004660D01*
X007023Y004967D01*
X006946Y004967D01*
X006870Y004890D01*
X006870Y004736D01*
X006946Y004660D01*
X006946Y004046D02*
X006870Y004046D01*
X006870Y003739D01*
X006946Y003585D02*
X006870Y003509D01*
X006870Y003278D01*
X007330Y003278D01*
X007177Y003278D02*
X007177Y003509D01*
X007100Y003585D01*
X006946Y003585D01*
X007177Y003432D02*
X007330Y003585D01*
X007330Y003739D02*
X007253Y003739D01*
X006946Y004046D01*
X007407Y004199D02*
X007407Y004506D01*
X007427Y003080D02*
X007120Y003080D01*
X007120Y002850D01*
X007273Y002927D01*
X007350Y002927D01*
X007427Y002850D01*
X007427Y002697D01*
X007350Y002620D01*
X007197Y002620D01*
X007120Y002697D01*
X007580Y002773D02*
X007734Y002620D01*
X007887Y002773D01*
X007887Y003080D01*
X007580Y003080D02*
X007580Y002773D01*
X009620Y003870D02*
X009620Y004330D01*
X009850Y004330D01*
X009927Y004254D01*
X009927Y004100D01*
X009850Y004023D01*
X009620Y004023D01*
X009773Y004023D02*
X009927Y003870D01*
X010120Y005120D02*
X010120Y005350D01*
X010196Y005427D01*
X010350Y005427D01*
X010427Y005350D01*
X010427Y005120D01*
X010580Y005120D02*
X010120Y005120D01*
X010427Y005273D02*
X010580Y005427D01*
X010503Y005580D02*
X010580Y005657D01*
X010580Y005811D01*
X010503Y005887D01*
X010196Y005887D01*
X010120Y005811D01*
X010120Y005657D01*
X010196Y005580D01*
X010273Y005580D01*
X010350Y005657D01*
X010350Y005887D01*
X010657Y006041D02*
X010657Y006348D01*
X010580Y006501D02*
X010580Y006808D01*
X010580Y006655D02*
X010120Y006655D01*
X010273Y006501D01*
X011620Y004330D02*
X011620Y003870D01*
X011927Y003870D01*
X013120Y003870D02*
X013120Y004330D01*
X013350Y004330D01*
X013427Y004254D01*
X013427Y004100D01*
X013350Y004023D01*
X013120Y004023D01*
X013273Y004023D02*
X013427Y003870D01*
X013620Y005120D02*
X013620Y005350D01*
X013696Y005427D01*
X013850Y005427D01*
X013927Y005350D01*
X013927Y005120D01*
X014080Y005120D02*
X013620Y005120D01*
X013927Y005273D02*
X014080Y005427D01*
X014003Y005580D02*
X013927Y005580D01*
X013850Y005657D01*
X013850Y005811D01*
X013927Y005887D01*
X014003Y005887D01*
X014080Y005811D01*
X014080Y005657D01*
X014003Y005580D01*
X013850Y005657D02*
X013773Y005580D01*
X013696Y005580D01*
X013620Y005657D01*
X013620Y005811D01*
X013696Y005887D01*
X013773Y005887D01*
X013850Y005811D01*
X014157Y006041D02*
X014157Y006348D01*
X014080Y006501D02*
X013773Y006808D01*
X013696Y006808D01*
X013620Y006731D01*
X013620Y006578D01*
X013696Y006501D01*
X014080Y006501D02*
X014080Y006808D01*
X015120Y004330D02*
X015120Y003870D01*
X015427Y003870D01*
X010753Y024620D02*
X010446Y024620D01*
X010370Y024697D01*
X010370Y024850D01*
X010446Y024927D01*
X010523Y025080D02*
X010370Y025234D01*
X010830Y025234D01*
X010830Y025387D02*
X010830Y025080D01*
X010753Y024927D02*
X010830Y024850D01*
X010830Y024697D01*
X010753Y024620D01*
D13*
X009875Y026783D02*
X009425Y026783D01*
X009425Y027009D01*
X009500Y027084D01*
X009650Y027084D01*
X009725Y027009D01*
X009725Y026783D01*
X009725Y026934D02*
X009875Y027084D01*
X009800Y027244D02*
X009875Y027319D01*
X009875Y027469D01*
X009800Y027544D01*
X009725Y027544D01*
X009650Y027469D01*
X009650Y027244D01*
X009800Y027244D01*
X009650Y027244D02*
X009500Y027394D01*
X009425Y027544D01*
X009575Y028165D02*
X009425Y028315D01*
X009875Y028315D01*
X009875Y028165D02*
X009875Y028465D01*
X009950Y028004D02*
X009950Y027704D01*
X011925Y026690D02*
X012000Y026765D01*
X012150Y026765D01*
X012225Y026690D01*
X012225Y026465D01*
X012375Y026465D02*
X011925Y026465D01*
X011925Y026690D01*
X012000Y026304D02*
X012075Y026304D01*
X012150Y026229D01*
X012150Y026004D01*
X012375Y026004D02*
X012375Y026229D01*
X012300Y026304D01*
X012225Y026304D01*
X012150Y026229D01*
X012000Y026304D02*
X011925Y026229D01*
X011925Y026004D01*
X012375Y026004D01*
X012450Y025844D02*
X012450Y025544D01*
X012375Y025384D02*
X012375Y025083D01*
X012075Y025384D01*
X012000Y025384D01*
X011925Y025309D01*
X011925Y025158D01*
X012000Y025083D01*
X012000Y024463D02*
X011925Y024388D01*
X011925Y024238D01*
X012000Y024163D01*
X012000Y024003D02*
X011925Y023927D01*
X011925Y023777D01*
X012000Y023702D01*
X012300Y023702D01*
X012375Y023777D01*
X012375Y023927D01*
X012300Y024003D01*
X012375Y024163D02*
X012075Y024463D01*
X012000Y024463D01*
X012375Y024463D02*
X012375Y024163D01*
X012450Y024623D02*
X012450Y024923D01*
X013925Y026783D02*
X013925Y027009D01*
X014000Y027084D01*
X014150Y027084D01*
X014225Y027009D01*
X014225Y026783D01*
X014375Y026783D02*
X013925Y026783D01*
X014225Y026934D02*
X014375Y027084D01*
X014300Y027244D02*
X014375Y027319D01*
X014375Y027469D01*
X014300Y027544D01*
X014150Y027544D01*
X014075Y027469D01*
X014075Y027394D01*
X014150Y027244D01*
X013925Y027244D01*
X013925Y027544D01*
X014000Y028165D02*
X013925Y028240D01*
X013925Y028390D01*
X014000Y028465D01*
X014075Y028465D01*
X014375Y028165D01*
X014375Y028465D01*
X014450Y028004D02*
X014450Y027704D01*
X013396Y031100D02*
X013096Y031100D01*
X012936Y031175D02*
X012635Y031175D01*
X012786Y031175D02*
X012786Y031625D01*
X012635Y031475D01*
X012475Y031550D02*
X012400Y031625D01*
X012250Y031625D01*
X012175Y031550D01*
X012175Y031250D01*
X012250Y031175D01*
X012400Y031175D01*
X012475Y031250D01*
X013556Y031175D02*
X013856Y031475D01*
X013856Y031550D01*
X013781Y031625D01*
X013631Y031625D01*
X013556Y031550D01*
X013556Y031175D02*
X013856Y031175D01*
X014575Y032625D02*
X014575Y032850D01*
X014650Y032925D01*
X014800Y032925D01*
X014875Y032850D01*
X014875Y032625D01*
X015025Y032625D02*
X014575Y032625D01*
X014375Y032783D02*
X013925Y032783D01*
X013925Y033009D01*
X014000Y033084D01*
X014150Y033084D01*
X014225Y033009D01*
X014225Y032783D01*
X014225Y032934D02*
X014375Y033084D01*
X014300Y033244D02*
X014375Y033319D01*
X014375Y033469D01*
X014300Y033544D01*
X014225Y033544D01*
X014150Y033469D01*
X014150Y033394D01*
X014150Y033469D02*
X014075Y033544D01*
X014000Y033544D01*
X013925Y033469D01*
X013925Y033319D01*
X014000Y033244D01*
X014575Y033311D02*
X014575Y033160D01*
X014650Y033085D01*
X014575Y033311D02*
X014650Y033386D01*
X014725Y033386D01*
X015025Y033085D01*
X015025Y033386D01*
X015100Y033546D02*
X015100Y033846D01*
X015025Y034006D02*
X014725Y034306D01*
X014650Y034306D01*
X014575Y034231D01*
X014575Y034081D01*
X014650Y034006D01*
X014450Y034004D02*
X014450Y033704D01*
X014375Y034165D02*
X014075Y034465D01*
X014000Y034465D01*
X013925Y034390D01*
X013925Y034240D01*
X014000Y034165D01*
X014375Y034165D02*
X014375Y034465D01*
X014405Y035845D02*
X014405Y036070D01*
X014480Y036145D01*
X014630Y036145D01*
X014705Y036070D01*
X014705Y035845D01*
X014855Y035845D02*
X014405Y035845D01*
X014705Y035995D02*
X014855Y036145D01*
X014855Y036305D02*
X014855Y036456D01*
X014855Y036380D02*
X014405Y036380D01*
X014405Y036305D02*
X014405Y036456D01*
X014480Y036612D02*
X014780Y036612D01*
X014855Y036687D01*
X014855Y036838D01*
X014780Y036913D01*
X014630Y036913D01*
X014630Y036762D01*
X014480Y036612D02*
X014405Y036687D01*
X014405Y036838D01*
X014480Y036913D01*
X014405Y037073D02*
X014855Y037073D01*
X014630Y037073D02*
X014630Y037373D01*
X014405Y037373D02*
X014855Y037373D01*
X014855Y037683D02*
X014405Y037683D01*
X014405Y037533D02*
X014405Y037833D01*
X014480Y037993D02*
X014405Y038069D01*
X014405Y038219D01*
X014480Y038294D01*
X014555Y038294D01*
X014855Y037993D01*
X014855Y038294D01*
X015025Y034306D02*
X015025Y034006D01*
X015025Y032925D02*
X014875Y032775D01*
X016000Y031625D02*
X015925Y031550D01*
X015925Y031250D01*
X016000Y031175D01*
X016150Y031175D01*
X016225Y031250D01*
X016385Y031400D02*
X016686Y031400D01*
X016611Y031175D02*
X016611Y031625D01*
X016385Y031400D01*
X016225Y031550D02*
X016150Y031625D01*
X016000Y031625D01*
X016846Y031100D02*
X017146Y031100D01*
X017306Y031175D02*
X017606Y031475D01*
X017606Y031550D01*
X017531Y031625D01*
X017381Y031625D01*
X017306Y031550D01*
X017306Y031175D02*
X017606Y031175D01*
X017675Y032783D02*
X017675Y033009D01*
X017750Y033084D01*
X017900Y033084D01*
X017975Y033009D01*
X017975Y032783D01*
X018125Y032783D02*
X017675Y032783D01*
X017900Y033244D02*
X017675Y033469D01*
X018125Y033469D01*
X018200Y033704D02*
X018200Y034004D01*
X018125Y034165D02*
X017825Y034465D01*
X017750Y034465D01*
X017675Y034390D01*
X017675Y034240D01*
X017750Y034165D01*
X017900Y033544D02*
X017900Y033244D01*
X018125Y033084D02*
X017975Y032934D01*
X018125Y034165D02*
X018125Y034465D01*
X018500Y028465D02*
X018425Y028390D01*
X018425Y028240D01*
X018500Y028165D01*
X018500Y028465D02*
X018575Y028465D01*
X018875Y028165D01*
X018875Y028465D01*
X018950Y028004D02*
X018950Y027704D01*
X018800Y027544D02*
X018725Y027544D01*
X018650Y027469D01*
X018650Y027244D01*
X018800Y027244D01*
X018875Y027319D01*
X018875Y027469D01*
X018800Y027544D01*
X018500Y027394D02*
X018650Y027244D01*
X018650Y027084D02*
X018500Y027084D01*
X018425Y027009D01*
X018425Y026783D01*
X018875Y026783D01*
X018725Y026783D02*
X018725Y027009D01*
X018650Y027084D01*
X018725Y026934D02*
X018875Y027084D01*
X018500Y027394D02*
X018425Y027544D01*
X016950Y025844D02*
X016950Y025544D01*
X016875Y025384D02*
X016875Y025083D01*
X016575Y025384D01*
X016500Y025384D01*
X016425Y025309D01*
X016425Y025158D01*
X016500Y025083D01*
X016500Y024463D02*
X016575Y024463D01*
X016650Y024388D01*
X016725Y024463D01*
X016800Y024463D01*
X016875Y024388D01*
X016875Y024238D01*
X016800Y024163D01*
X016800Y024003D02*
X016875Y023927D01*
X016875Y023777D01*
X016800Y023702D01*
X016500Y023702D01*
X016425Y023777D01*
X016425Y023927D01*
X016500Y024003D01*
X016500Y024163D02*
X016425Y024238D01*
X016425Y024388D01*
X016500Y024463D01*
X016650Y024388D02*
X016650Y024313D01*
X016950Y024623D02*
X016950Y024923D01*
X016875Y026004D02*
X016875Y026229D01*
X016800Y026304D01*
X016725Y026304D01*
X016650Y026229D01*
X016650Y026004D01*
X016875Y026004D02*
X016425Y026004D01*
X016425Y026229D01*
X016500Y026304D01*
X016575Y026304D01*
X016650Y026229D01*
X016725Y026465D02*
X016725Y026690D01*
X016650Y026765D01*
X016500Y026765D01*
X016425Y026690D01*
X016425Y026465D01*
X016875Y026465D01*
X016675Y020306D02*
X016675Y020006D01*
X016375Y020306D01*
X016300Y020306D01*
X016225Y020231D01*
X016225Y020081D01*
X016300Y020006D01*
X016225Y019386D02*
X016225Y019085D01*
X016450Y019085D01*
X016375Y019236D01*
X016375Y019311D01*
X016450Y019386D01*
X016600Y019386D01*
X016675Y019311D01*
X016675Y019160D01*
X016600Y019085D01*
X016600Y018925D02*
X016675Y018850D01*
X016675Y018700D01*
X016600Y018625D01*
X016300Y018625D01*
X016225Y018700D01*
X016225Y018850D01*
X016300Y018925D01*
X016750Y019546D02*
X016750Y019846D01*
X014250Y019846D02*
X014250Y019546D01*
X014100Y019386D02*
X014175Y019311D01*
X014175Y019160D01*
X014100Y019085D01*
X013950Y019085D01*
X013950Y019311D01*
X014025Y019386D01*
X014100Y019386D01*
X013800Y019236D02*
X013950Y019085D01*
X013800Y019236D02*
X013725Y019386D01*
X013800Y020006D02*
X013725Y020081D01*
X013725Y020231D01*
X013800Y020306D01*
X013875Y020306D01*
X014175Y020006D01*
X014175Y020306D01*
X014100Y018925D02*
X014175Y018850D01*
X014175Y018700D01*
X014100Y018625D01*
X013800Y018625D01*
X013725Y018700D01*
X013725Y018850D01*
X013800Y018925D01*
X011675Y018850D02*
X011600Y018925D01*
X011675Y018850D02*
X011675Y018700D01*
X011600Y018625D01*
X011300Y018625D01*
X011225Y018700D01*
X011225Y018850D01*
X011300Y018925D01*
X011225Y019085D02*
X011450Y019085D01*
X011375Y019236D01*
X011375Y019311D01*
X011450Y019386D01*
X011600Y019386D01*
X011675Y019311D01*
X011675Y019160D01*
X011600Y019085D01*
X011750Y019546D02*
X011750Y019846D01*
X011675Y020006D02*
X011675Y020306D01*
X011675Y020156D02*
X011225Y020156D01*
X011375Y020006D01*
X011225Y019386D02*
X011225Y019085D01*
X009250Y019546D02*
X009250Y019846D01*
X009175Y020006D02*
X009175Y020306D01*
X009175Y020156D02*
X008725Y020156D01*
X008875Y020006D01*
X009025Y019386D02*
X008950Y019311D01*
X008950Y019085D01*
X009100Y019085D01*
X009175Y019160D01*
X009175Y019311D01*
X009100Y019386D01*
X009025Y019386D01*
X008800Y019236D02*
X008950Y019085D01*
X008800Y019236D02*
X008725Y019386D01*
X008800Y018925D02*
X008725Y018850D01*
X008725Y018700D01*
X008800Y018625D01*
X009100Y018625D01*
X009175Y018700D01*
X009175Y018850D01*
X009100Y018925D01*
X008561Y015075D02*
X008410Y015075D01*
X008335Y015000D01*
X008175Y015075D02*
X008025Y015075D01*
X008100Y015075D02*
X008100Y014700D01*
X008025Y014625D01*
X007950Y014625D01*
X007875Y014700D01*
X008335Y014625D02*
X008636Y014925D01*
X008636Y015000D01*
X008561Y015075D01*
X008636Y014625D02*
X008335Y014625D01*
X008975Y013675D02*
X009200Y013675D01*
X009275Y013600D01*
X009275Y013450D01*
X009200Y013375D01*
X008975Y013375D01*
X008975Y013225D02*
X008975Y013675D01*
X009125Y013375D02*
X009275Y013225D01*
X009435Y013225D02*
X009736Y013225D01*
X009896Y013225D02*
X009896Y013675D01*
X009736Y013675D02*
X009435Y013675D01*
X009435Y013225D01*
X009435Y013450D02*
X009586Y013450D01*
X009896Y013225D02*
X010196Y013225D01*
X010356Y013225D02*
X010356Y013525D01*
X010506Y013675D01*
X010656Y013525D01*
X010656Y013225D01*
X010656Y013450D02*
X010356Y013450D01*
X010817Y013600D02*
X010967Y013450D01*
X010967Y013225D01*
X010967Y013450D02*
X011117Y013600D01*
X011117Y013675D01*
X011277Y013525D02*
X011427Y013675D01*
X011427Y013225D01*
X011277Y013225D02*
X011577Y013225D01*
X010817Y013600D02*
X010817Y013675D01*
X010915Y014875D02*
X011215Y014875D01*
X011065Y014875D02*
X011065Y015325D01*
X010915Y015175D01*
X010754Y015325D02*
X010604Y015325D01*
X010679Y015325D02*
X010679Y014950D01*
X010604Y014875D01*
X010529Y014875D01*
X010454Y014950D01*
X014475Y013675D02*
X014475Y013225D01*
X014475Y013375D02*
X014700Y013375D01*
X014775Y013450D01*
X014775Y013600D01*
X014700Y013675D01*
X014475Y013675D01*
X014625Y013375D02*
X014775Y013225D01*
X014935Y013225D02*
X015236Y013225D01*
X015396Y013225D02*
X015396Y013675D01*
X015236Y013675D02*
X014935Y013675D01*
X014935Y013225D01*
X014935Y013450D02*
X015086Y013450D01*
X015396Y013225D02*
X015696Y013225D01*
X015856Y013225D02*
X015856Y013525D01*
X016006Y013675D01*
X016156Y013525D01*
X016156Y013225D01*
X016156Y013450D02*
X015856Y013450D01*
X016317Y013600D02*
X016467Y013450D01*
X016467Y013225D01*
X016467Y013450D02*
X016617Y013600D01*
X016617Y013675D01*
X016777Y013600D02*
X016852Y013675D01*
X017002Y013675D01*
X017077Y013600D01*
X017077Y013525D01*
X016777Y013225D01*
X017077Y013225D01*
X016317Y013600D02*
X016317Y013675D01*
X015920Y002355D02*
X015770Y002355D01*
X015695Y002280D01*
X015534Y002355D02*
X015234Y002355D01*
X015384Y002355D02*
X015384Y001905D01*
X015695Y001905D02*
X015995Y002205D01*
X015995Y002280D01*
X015920Y002355D01*
X015995Y001905D02*
X015695Y001905D01*
X015074Y001980D02*
X014999Y001905D01*
X014849Y001905D01*
X014774Y001980D01*
X014774Y002355D01*
X014614Y002280D02*
X014539Y002355D01*
X014388Y002355D01*
X014313Y002280D01*
X014313Y001980D01*
X014388Y001905D01*
X014539Y001905D01*
X014614Y001980D01*
X014614Y002280D01*
X015074Y002355D02*
X015074Y001980D01*
X012495Y001905D02*
X012195Y001905D01*
X012345Y001905D02*
X012345Y002355D01*
X012195Y002205D01*
X012034Y002355D02*
X011734Y002355D01*
X011884Y002355D02*
X011884Y001905D01*
X011574Y001980D02*
X011499Y001905D01*
X011349Y001905D01*
X011274Y001980D01*
X011274Y002355D01*
X011114Y002280D02*
X011039Y002355D01*
X010888Y002355D01*
X010813Y002280D01*
X010813Y001980D01*
X010888Y001905D01*
X011039Y001905D01*
X011114Y001980D01*
X011114Y002280D01*
X011574Y002355D02*
X011574Y001980D01*
X005125Y016323D02*
X004675Y016323D01*
X004675Y016548D01*
X004750Y016623D01*
X004900Y016623D01*
X004975Y016548D01*
X004975Y016323D01*
X004975Y016473D02*
X005125Y016623D01*
X005200Y016783D02*
X005200Y017084D01*
X005125Y017244D02*
X004675Y017244D01*
X004675Y017469D01*
X004750Y017544D01*
X004900Y017544D01*
X004975Y017469D01*
X004975Y017244D01*
X005050Y017704D02*
X005125Y017779D01*
X005125Y017929D01*
X005050Y018004D01*
X004975Y018004D01*
X004900Y017929D01*
X004900Y017779D01*
X004825Y017704D01*
X004750Y017704D01*
X004675Y017779D01*
X004675Y017929D01*
X004750Y018004D01*
X004825Y018165D02*
X004675Y018315D01*
X005125Y018315D01*
X005125Y018165D02*
X005125Y018465D01*
X003475Y019279D02*
X003475Y019429D01*
X003400Y019504D01*
X003400Y019665D02*
X003475Y019740D01*
X003475Y019890D01*
X003400Y019965D01*
X003100Y019965D01*
X003025Y019890D01*
X003025Y019740D01*
X003100Y019665D01*
X003175Y019665D01*
X003250Y019740D01*
X003250Y019965D01*
X003100Y019504D02*
X003025Y019429D01*
X003025Y019279D01*
X003100Y019204D01*
X003400Y019204D01*
X003475Y019279D01*
X003125Y018465D02*
X003125Y018165D01*
X002825Y018465D01*
X002750Y018465D01*
X002675Y018390D01*
X002675Y018240D01*
X002750Y018165D01*
X002750Y018004D02*
X002675Y017929D01*
X002675Y017779D01*
X002750Y017704D01*
X002825Y017704D01*
X002900Y017779D01*
X002900Y017929D01*
X002975Y018004D01*
X003050Y018004D01*
X003125Y017929D01*
X003125Y017779D01*
X003050Y017704D01*
X002900Y017544D02*
X002975Y017469D01*
X002975Y017244D01*
X003125Y017244D02*
X002675Y017244D01*
X002675Y017469D01*
X002750Y017544D01*
X002900Y017544D01*
X003200Y017084D02*
X003200Y016783D01*
X003125Y016623D02*
X002975Y016473D01*
X002975Y016548D02*
X002975Y016323D01*
X003125Y016323D02*
X002675Y016323D01*
X002675Y016548D01*
X002750Y016623D01*
X002900Y016623D01*
X002975Y016548D01*
X002976Y015795D02*
X002976Y015495D01*
X003126Y015345D01*
X003276Y015495D01*
X003276Y015795D01*
X002816Y015795D02*
X002516Y015795D01*
X002516Y015570D01*
X002666Y015645D01*
X002741Y015645D01*
X002816Y015570D01*
X002816Y015420D01*
X002741Y015345D01*
X002591Y015345D01*
X002516Y015420D01*
X002356Y015345D02*
X002055Y015345D01*
X002206Y015345D02*
X002206Y015795D01*
X002055Y015645D01*
X001895Y015570D02*
X001595Y015570D01*
X001964Y012280D02*
X001964Y011980D01*
X001813Y012130D02*
X002114Y012130D01*
X002274Y012205D02*
X002424Y012355D01*
X002424Y011905D01*
X002274Y011905D02*
X002574Y011905D01*
X002734Y011980D02*
X002809Y011905D01*
X002959Y011905D01*
X003034Y011980D01*
X003034Y012130D01*
X002959Y012205D01*
X002884Y012205D01*
X002734Y012130D01*
X002734Y012355D01*
X003034Y012355D01*
X003195Y012355D02*
X003195Y012055D01*
X003345Y011905D01*
X003495Y012055D01*
X003495Y012355D01*
X003400Y021244D02*
X003100Y021244D01*
X003025Y021319D01*
X003025Y021469D01*
X003100Y021544D01*
X003175Y021704D02*
X003025Y021854D01*
X003475Y021854D01*
X003475Y021704D02*
X003475Y022004D01*
X003475Y022165D02*
X003475Y022465D01*
X003475Y022315D02*
X003025Y022315D01*
X003175Y022165D01*
X003400Y021544D02*
X003475Y021469D01*
X003475Y021319D01*
X003400Y021244D01*
X003300Y023702D02*
X003000Y023702D01*
X002925Y023777D01*
X002925Y023927D01*
X003000Y024003D01*
X003000Y024163D02*
X002925Y024238D01*
X002925Y024388D01*
X003000Y024463D01*
X003075Y024463D01*
X003375Y024163D01*
X003375Y024463D01*
X003450Y024623D02*
X003450Y024923D01*
X003375Y025083D02*
X003375Y025384D01*
X003375Y025234D02*
X002925Y025234D01*
X003075Y025083D01*
X003450Y025544D02*
X003450Y025844D01*
X003375Y026004D02*
X003375Y026229D01*
X003300Y026304D01*
X003225Y026304D01*
X003150Y026229D01*
X003150Y026004D01*
X003375Y026004D02*
X002925Y026004D01*
X002925Y026229D01*
X003000Y026304D01*
X003075Y026304D01*
X003150Y026229D01*
X003225Y026465D02*
X003225Y026690D01*
X003150Y026765D01*
X003000Y026765D01*
X002925Y026690D01*
X002925Y026465D01*
X003375Y026465D01*
X004925Y026783D02*
X004925Y027009D01*
X005000Y027084D01*
X005150Y027084D01*
X005225Y027009D01*
X005225Y026783D01*
X005375Y026783D02*
X004925Y026783D01*
X005225Y026934D02*
X005375Y027084D01*
X005300Y027244D02*
X005375Y027319D01*
X005375Y027469D01*
X005300Y027544D01*
X005150Y027544D01*
X005075Y027469D01*
X005075Y027394D01*
X005150Y027244D01*
X004925Y027244D01*
X004925Y027544D01*
X005450Y027704D02*
X005450Y028004D01*
X005375Y028165D02*
X005375Y028465D01*
X005375Y028315D02*
X004925Y028315D01*
X005075Y028165D01*
X003646Y031100D02*
X003346Y031100D01*
X003186Y031175D02*
X002885Y031175D01*
X003036Y031175D02*
X003036Y031625D01*
X002885Y031475D01*
X002725Y031550D02*
X002650Y031625D01*
X002500Y031625D01*
X002425Y031550D01*
X002425Y031250D01*
X002500Y031175D01*
X002650Y031175D01*
X002725Y031250D01*
X003806Y031175D02*
X004106Y031175D01*
X003956Y031175D02*
X003956Y031625D01*
X003806Y031475D01*
X004175Y032783D02*
X004175Y033009D01*
X004250Y033084D01*
X004400Y033084D01*
X004475Y033009D01*
X004475Y032783D01*
X004625Y032783D02*
X004175Y032783D01*
X004475Y032934D02*
X004625Y033084D01*
X004550Y033244D02*
X004625Y033319D01*
X004625Y033469D01*
X004550Y033544D01*
X004475Y033544D01*
X004400Y033469D01*
X004400Y033394D01*
X004400Y033469D02*
X004325Y033544D01*
X004250Y033544D01*
X004175Y033469D01*
X004175Y033319D01*
X004250Y033244D01*
X004700Y033704D02*
X004700Y034004D01*
X004625Y034165D02*
X004625Y034465D01*
X004625Y034315D02*
X004175Y034315D01*
X004325Y034165D01*
X004825Y034156D02*
X005275Y034156D01*
X005275Y034006D02*
X005275Y034306D01*
X004975Y034006D02*
X004825Y034156D01*
X004900Y033386D02*
X004825Y033311D01*
X004825Y033160D01*
X004900Y033085D01*
X004900Y032925D02*
X005050Y032925D01*
X005125Y032850D01*
X005125Y032625D01*
X005275Y032625D02*
X004825Y032625D01*
X004825Y032850D01*
X004900Y032925D01*
X005275Y033085D02*
X004975Y033386D01*
X004900Y033386D01*
X005275Y033386D02*
X005275Y033085D01*
X005275Y032925D02*
X005125Y032775D01*
X005350Y033546D02*
X005350Y033846D01*
X005405Y035845D02*
X005405Y036070D01*
X005480Y036145D01*
X005630Y036145D01*
X005705Y036070D01*
X005705Y035845D01*
X005855Y035845D02*
X005405Y035845D01*
X005705Y035995D02*
X005855Y036145D01*
X005855Y036305D02*
X005855Y036456D01*
X005855Y036380D02*
X005405Y036380D01*
X005405Y036305D02*
X005405Y036456D01*
X005480Y036612D02*
X005780Y036612D01*
X005855Y036687D01*
X005855Y036838D01*
X005780Y036913D01*
X005630Y036913D01*
X005630Y036762D01*
X005480Y036612D02*
X005405Y036687D01*
X005405Y036838D01*
X005480Y036913D01*
X005405Y037073D02*
X005855Y037073D01*
X005630Y037073D02*
X005630Y037373D01*
X005405Y037373D02*
X005855Y037373D01*
X005855Y037683D02*
X005405Y037683D01*
X005405Y037533D02*
X005405Y037833D01*
X005555Y037993D02*
X005405Y038144D01*
X005855Y038144D01*
X005855Y038294D02*
X005855Y037993D01*
X007925Y034565D02*
X008375Y034565D01*
X008375Y034415D02*
X008375Y034715D01*
X008450Y034254D02*
X008450Y033954D01*
X008375Y033719D02*
X007925Y033719D01*
X008150Y033494D01*
X008150Y033794D01*
X008150Y033334D02*
X008000Y033334D01*
X007925Y033259D01*
X007925Y033033D01*
X008375Y033033D01*
X008225Y033033D02*
X008225Y033259D01*
X008150Y033334D01*
X008225Y033184D02*
X008375Y033334D01*
X008075Y034415D02*
X007925Y034565D01*
X007706Y031625D02*
X007706Y031175D01*
X007556Y031175D02*
X007856Y031175D01*
X007556Y031475D02*
X007706Y031625D01*
X007396Y031100D02*
X007096Y031100D01*
X006936Y031400D02*
X006635Y031400D01*
X006861Y031625D01*
X006861Y031175D01*
X006475Y031250D02*
X006400Y031175D01*
X006250Y031175D01*
X006175Y031250D01*
X006175Y031550D01*
X006250Y031625D01*
X006400Y031625D01*
X006475Y031550D01*
X007500Y026765D02*
X007425Y026690D01*
X007425Y026465D01*
X007875Y026465D01*
X007725Y026465D02*
X007725Y026690D01*
X007650Y026765D01*
X007500Y026765D01*
X007500Y026304D02*
X007425Y026229D01*
X007425Y026004D01*
X007875Y026004D01*
X007875Y026229D01*
X007800Y026304D01*
X007725Y026304D01*
X007650Y026229D01*
X007650Y026004D01*
X007650Y026229D02*
X007575Y026304D01*
X007500Y026304D01*
X007950Y025844D02*
X007950Y025544D01*
X007875Y025384D02*
X007875Y025083D01*
X007875Y025234D02*
X007425Y025234D01*
X007575Y025083D01*
X007575Y024463D02*
X007650Y024388D01*
X007725Y024463D01*
X007800Y024463D01*
X007875Y024388D01*
X007875Y024238D01*
X007800Y024163D01*
X007800Y024003D02*
X007875Y023927D01*
X007875Y023777D01*
X007800Y023702D01*
X007500Y023702D01*
X007425Y023777D01*
X007425Y023927D01*
X007500Y024003D01*
X007500Y024163D02*
X007425Y024238D01*
X007425Y024388D01*
X007500Y024463D01*
X007575Y024463D01*
X007650Y024388D02*
X007650Y024313D01*
X007950Y024623D02*
X007950Y024923D01*
X010825Y032625D02*
X010825Y032850D01*
X010900Y032925D01*
X011050Y032925D01*
X011125Y032850D01*
X011125Y032625D01*
X011275Y032625D02*
X010825Y032625D01*
X010975Y033085D02*
X010825Y033236D01*
X011275Y033236D01*
X011275Y033386D02*
X011275Y033085D01*
X011275Y032925D02*
X011125Y032775D01*
X011350Y033546D02*
X011350Y033846D01*
X011275Y034006D02*
X010975Y034306D01*
X010900Y034306D01*
X010825Y034231D01*
X010825Y034081D01*
X010900Y034006D01*
X011275Y034006D02*
X011275Y034306D01*
X010355Y036345D02*
X010355Y036645D01*
X010355Y036805D02*
X010355Y037106D01*
X010355Y037266D02*
X009905Y037266D01*
X009905Y037566D01*
X009905Y037726D02*
X009905Y038026D01*
X009905Y037876D02*
X010355Y037876D01*
X010355Y038187D02*
X010055Y038487D01*
X009980Y038487D01*
X009905Y038412D01*
X009905Y038262D01*
X009980Y038187D01*
X010355Y038187D02*
X010355Y038487D01*
X010130Y037416D02*
X010130Y037266D01*
X009905Y037106D02*
X009905Y036805D01*
X010355Y036805D01*
X010130Y036805D02*
X010130Y036956D01*
X009905Y036345D02*
X010355Y036345D01*
X003300Y024003D02*
X003375Y023927D01*
X003375Y023777D01*
X003300Y023702D01*
X001525Y032625D02*
X001075Y032625D01*
X001075Y032850D01*
X001150Y032925D01*
X001300Y032925D01*
X001375Y032850D01*
X001375Y032625D01*
X001375Y032775D02*
X001525Y032925D01*
X001525Y033085D02*
X001525Y033386D01*
X001525Y033236D02*
X001075Y033236D01*
X001225Y033085D01*
X001600Y033546D02*
X001600Y033846D01*
X001525Y034006D02*
X001525Y034306D01*
X001525Y034156D02*
X001075Y034156D01*
X001225Y034006D01*
X001355Y036345D02*
X000905Y036345D01*
X000905Y036805D02*
X001355Y036805D01*
X001355Y037106D01*
X001355Y037266D02*
X000905Y037266D01*
X000905Y037566D01*
X000905Y037726D02*
X000905Y038026D01*
X000905Y037876D02*
X001355Y037876D01*
X001355Y038187D02*
X001355Y038487D01*
X001355Y038337D02*
X000905Y038337D01*
X001055Y038187D01*
X001130Y037416D02*
X001130Y037266D01*
X000905Y037106D02*
X000905Y036805D01*
X001130Y036805D02*
X001130Y036956D01*
X001355Y036645D02*
X001355Y036345D01*
D14*
X002980Y030900D02*
X002980Y030300D01*
X003230Y030300D02*
X003230Y030900D01*
X006730Y030900D02*
X006730Y030300D01*
X006980Y030300D02*
X006980Y030900D01*
X012730Y030900D02*
X012730Y030300D01*
X012980Y030300D02*
X012980Y030900D01*
X016480Y030900D02*
X016480Y030300D01*
X016730Y030300D02*
X016730Y030900D01*
D15*
X012131Y023280D02*
X011513Y023280D01*
X011390Y023157D01*
X011390Y022910D01*
X011513Y022786D01*
X012131Y022786D01*
X011884Y022525D02*
X012131Y022278D01*
X011390Y022278D01*
X011390Y022525D02*
X011390Y022031D01*
X012193Y021169D02*
X012069Y021045D01*
X012069Y020798D01*
X012193Y020675D01*
X012069Y020414D02*
X012687Y020414D01*
X012810Y020290D01*
X012810Y020043D01*
X012687Y019920D01*
X012069Y019920D01*
X012810Y020675D02*
X012316Y021169D01*
X012193Y021169D01*
X012810Y021169D02*
X012810Y020675D01*
X005994Y010176D02*
X005206Y010176D01*
X005600Y009773D01*
X005994Y010176D01*
D16*
X010573Y023001D02*
X010887Y023315D01*
X010730Y023315D02*
X010730Y023001D01*
X010887Y023001D02*
X010573Y023315D01*
X010573Y023158D02*
X010887Y023158D01*
X013313Y020199D02*
X013627Y019885D01*
X013627Y020042D02*
X013313Y020042D01*
X013313Y019885D02*
X013627Y020199D01*
X013470Y020199D02*
X013470Y019885D01*
D17*
X012130Y015600D02*
X008070Y015600D01*
X007570Y014350D02*
X016630Y014350D01*
M02*
