G75*
%MOIN*%
%OFA0B0*%
%FSLAX24Y24*%
%IPPOS*%
%LPD*%
%AMOC8*
5,1,8,0,0,1.08239X$1,22.5*
%
%ADD10C,0.0000*%
%ADD11C,0.1300*%
%ADD12C,0.0640*%
%ADD13OC8,0.0560*%
%ADD14C,0.0560*%
%ADD15R,0.0749X0.0670*%
%ADD16OC8,0.0670*%
%ADD17C,0.0670*%
%ADD18R,0.0750X0.0670*%
%ADD19R,0.0985X0.0985*%
%ADD20C,0.0560*%
%ADD21R,0.0570X0.0570*%
%ADD22C,0.0570*%
%ADD23R,0.0670X0.0750*%
D10*
X000100Y000100D02*
X000100Y039350D01*
X019600Y039350D01*
X019600Y000100D01*
X000100Y000100D01*
X000470Y001100D02*
X000472Y001150D01*
X000478Y001200D01*
X000488Y001249D01*
X000502Y001297D01*
X000519Y001344D01*
X000540Y001389D01*
X000565Y001433D01*
X000593Y001474D01*
X000625Y001513D01*
X000659Y001550D01*
X000696Y001584D01*
X000736Y001614D01*
X000778Y001641D01*
X000822Y001665D01*
X000868Y001686D01*
X000915Y001702D01*
X000963Y001715D01*
X001013Y001724D01*
X001062Y001729D01*
X001113Y001730D01*
X001163Y001727D01*
X001212Y001720D01*
X001261Y001709D01*
X001309Y001694D01*
X001355Y001676D01*
X001400Y001654D01*
X001443Y001628D01*
X001484Y001599D01*
X001523Y001567D01*
X001559Y001532D01*
X001591Y001494D01*
X001621Y001454D01*
X001648Y001411D01*
X001671Y001367D01*
X001690Y001321D01*
X001706Y001273D01*
X001718Y001224D01*
X001726Y001175D01*
X001730Y001125D01*
X001730Y001075D01*
X001726Y001025D01*
X001718Y000976D01*
X001706Y000927D01*
X001690Y000879D01*
X001671Y000833D01*
X001648Y000789D01*
X001621Y000746D01*
X001591Y000706D01*
X001559Y000668D01*
X001523Y000633D01*
X001484Y000601D01*
X001443Y000572D01*
X001400Y000546D01*
X001355Y000524D01*
X001309Y000506D01*
X001261Y000491D01*
X001212Y000480D01*
X001163Y000473D01*
X001113Y000470D01*
X001062Y000471D01*
X001013Y000476D01*
X000963Y000485D01*
X000915Y000498D01*
X000868Y000514D01*
X000822Y000535D01*
X000778Y000559D01*
X000736Y000586D01*
X000696Y000616D01*
X000659Y000650D01*
X000625Y000687D01*
X000593Y000726D01*
X000565Y000767D01*
X000540Y000811D01*
X000519Y000856D01*
X000502Y000903D01*
X000488Y000951D01*
X000478Y001000D01*
X000472Y001050D01*
X000470Y001100D01*
X009220Y030850D02*
X009222Y030900D01*
X009228Y030950D01*
X009238Y030999D01*
X009252Y031047D01*
X009269Y031094D01*
X009290Y031139D01*
X009315Y031183D01*
X009343Y031224D01*
X009375Y031263D01*
X009409Y031300D01*
X009446Y031334D01*
X009486Y031364D01*
X009528Y031391D01*
X009572Y031415D01*
X009618Y031436D01*
X009665Y031452D01*
X009713Y031465D01*
X009763Y031474D01*
X009812Y031479D01*
X009863Y031480D01*
X009913Y031477D01*
X009962Y031470D01*
X010011Y031459D01*
X010059Y031444D01*
X010105Y031426D01*
X010150Y031404D01*
X010193Y031378D01*
X010234Y031349D01*
X010273Y031317D01*
X010309Y031282D01*
X010341Y031244D01*
X010371Y031204D01*
X010398Y031161D01*
X010421Y031117D01*
X010440Y031071D01*
X010456Y031023D01*
X010468Y030974D01*
X010476Y030925D01*
X010480Y030875D01*
X010480Y030825D01*
X010476Y030775D01*
X010468Y030726D01*
X010456Y030677D01*
X010440Y030629D01*
X010421Y030583D01*
X010398Y030539D01*
X010371Y030496D01*
X010341Y030456D01*
X010309Y030418D01*
X010273Y030383D01*
X010234Y030351D01*
X010193Y030322D01*
X010150Y030296D01*
X010105Y030274D01*
X010059Y030256D01*
X010011Y030241D01*
X009962Y030230D01*
X009913Y030223D01*
X009863Y030220D01*
X009812Y030221D01*
X009763Y030226D01*
X009713Y030235D01*
X009665Y030248D01*
X009618Y030264D01*
X009572Y030285D01*
X009528Y030309D01*
X009486Y030336D01*
X009446Y030366D01*
X009409Y030400D01*
X009375Y030437D01*
X009343Y030476D01*
X009315Y030517D01*
X009290Y030561D01*
X009269Y030606D01*
X009252Y030653D01*
X009238Y030701D01*
X009228Y030750D01*
X009222Y030800D01*
X009220Y030850D01*
X017970Y001100D02*
X017972Y001150D01*
X017978Y001200D01*
X017988Y001249D01*
X018002Y001297D01*
X018019Y001344D01*
X018040Y001389D01*
X018065Y001433D01*
X018093Y001474D01*
X018125Y001513D01*
X018159Y001550D01*
X018196Y001584D01*
X018236Y001614D01*
X018278Y001641D01*
X018322Y001665D01*
X018368Y001686D01*
X018415Y001702D01*
X018463Y001715D01*
X018513Y001724D01*
X018562Y001729D01*
X018613Y001730D01*
X018663Y001727D01*
X018712Y001720D01*
X018761Y001709D01*
X018809Y001694D01*
X018855Y001676D01*
X018900Y001654D01*
X018943Y001628D01*
X018984Y001599D01*
X019023Y001567D01*
X019059Y001532D01*
X019091Y001494D01*
X019121Y001454D01*
X019148Y001411D01*
X019171Y001367D01*
X019190Y001321D01*
X019206Y001273D01*
X019218Y001224D01*
X019226Y001175D01*
X019230Y001125D01*
X019230Y001075D01*
X019226Y001025D01*
X019218Y000976D01*
X019206Y000927D01*
X019190Y000879D01*
X019171Y000833D01*
X019148Y000789D01*
X019121Y000746D01*
X019091Y000706D01*
X019059Y000668D01*
X019023Y000633D01*
X018984Y000601D01*
X018943Y000572D01*
X018900Y000546D01*
X018855Y000524D01*
X018809Y000506D01*
X018761Y000491D01*
X018712Y000480D01*
X018663Y000473D01*
X018613Y000470D01*
X018562Y000471D01*
X018513Y000476D01*
X018463Y000485D01*
X018415Y000498D01*
X018368Y000514D01*
X018322Y000535D01*
X018278Y000559D01*
X018236Y000586D01*
X018196Y000616D01*
X018159Y000650D01*
X018125Y000687D01*
X018093Y000726D01*
X018065Y000767D01*
X018040Y000811D01*
X018019Y000856D01*
X018002Y000903D01*
X017988Y000951D01*
X017978Y001000D01*
X017972Y001050D01*
X017970Y001100D01*
D11*
X018600Y001100D03*
X009850Y030850D03*
X001100Y001100D03*
D12*
X003600Y001800D02*
X003600Y002400D01*
X004600Y002400D02*
X004600Y001800D01*
X005600Y001800D02*
X005600Y002400D01*
X006600Y002400D02*
X006600Y001800D01*
X010100Y002800D02*
X010100Y003400D01*
X011100Y003400D02*
X011100Y002800D01*
X012100Y002800D02*
X012100Y003400D01*
X013600Y003400D02*
X013600Y002800D01*
X014600Y002800D02*
X014600Y003400D01*
X015600Y003400D02*
X015600Y002800D01*
X003100Y012800D02*
X003100Y013400D01*
X003100Y014300D02*
X003100Y014900D01*
X002100Y014900D02*
X002100Y014300D01*
X002100Y013400D02*
X002100Y012800D01*
X002400Y036850D02*
X001800Y036850D01*
X001800Y037850D02*
X002400Y037850D01*
X006300Y037850D02*
X006900Y037850D01*
X006900Y036850D02*
X006300Y036850D01*
X010800Y036850D02*
X011400Y036850D01*
X011400Y037850D02*
X010800Y037850D01*
X015300Y037850D02*
X015900Y037850D01*
X015900Y036850D02*
X015300Y036850D01*
D13*
X015600Y035100D03*
X017100Y035100D03*
X017100Y032100D03*
X017100Y030600D03*
X017850Y029100D03*
X017850Y026100D03*
X016100Y030600D03*
X015600Y032100D03*
X013350Y032100D03*
X013350Y030600D03*
X013350Y029100D03*
X012350Y030600D03*
X011850Y032100D03*
X011850Y035100D03*
X013350Y035100D03*
X013350Y026100D03*
X012100Y018000D03*
X009600Y018000D03*
X008850Y026100D03*
X008850Y029100D03*
X007350Y030600D03*
X006350Y030600D03*
X005850Y032100D03*
X005850Y035100D03*
X007350Y035350D03*
X007350Y032350D03*
X004350Y029100D03*
X003600Y030600D03*
X003600Y032100D03*
X002600Y030600D03*
X002100Y032100D03*
X002100Y035100D03*
X003600Y035100D03*
X004350Y026100D03*
X002600Y023200D03*
X002600Y020700D03*
X002100Y019100D03*
X002100Y016100D03*
X004100Y016100D03*
X004100Y019100D03*
X014600Y018000D03*
X017100Y018000D03*
D14*
X017100Y017200D03*
X014600Y017200D03*
X012100Y017200D03*
X009600Y017200D03*
X002600Y021500D03*
X002600Y024000D03*
D15*
X004600Y023549D03*
X004600Y024651D03*
X004600Y021651D03*
X004600Y020549D03*
X010600Y024549D03*
X010600Y025651D03*
D16*
X011100Y027600D03*
X006600Y027600D03*
X002100Y027600D03*
X007600Y015600D03*
X007100Y014350D03*
X012600Y015600D03*
X017100Y014350D03*
X015600Y027600D03*
D17*
X015600Y028600D03*
X011100Y028600D03*
X006600Y028600D03*
X002100Y028600D03*
D18*
X003850Y036790D03*
X003850Y037910D03*
X008350Y037910D03*
X008350Y036790D03*
X012850Y036790D03*
X012850Y037910D03*
X017350Y037910D03*
X017350Y036790D03*
X014600Y006660D03*
X014600Y005540D03*
X011100Y005540D03*
X011100Y006660D03*
D19*
X004100Y009234D03*
X004100Y010966D03*
D20*
X008340Y010600D02*
X008860Y010600D01*
X008860Y009600D02*
X008340Y009600D01*
X008340Y008600D02*
X008860Y008600D01*
X008860Y011600D02*
X008340Y011600D01*
X008340Y012600D02*
X008860Y012600D01*
X011340Y012600D02*
X011860Y012600D01*
X011860Y011600D02*
X011340Y011600D01*
X011340Y010600D02*
X011860Y010600D01*
X011860Y009600D02*
X011340Y009600D01*
X011340Y008600D02*
X011860Y008600D01*
X013840Y008600D02*
X014360Y008600D01*
X014360Y009600D02*
X013840Y009600D01*
X013840Y010600D02*
X014360Y010600D01*
X014360Y011600D02*
X013840Y011600D01*
X013840Y012600D02*
X014360Y012600D01*
X016840Y012600D02*
X017360Y012600D01*
X017360Y011600D02*
X016840Y011600D01*
X016840Y010600D02*
X017360Y010600D01*
X017360Y009600D02*
X016840Y009600D01*
X016840Y008600D02*
X017360Y008600D01*
D21*
X014100Y020100D03*
X010100Y023100D03*
D22*
X009100Y023100D03*
X008100Y023100D03*
X007100Y023100D03*
X007100Y020100D03*
X008100Y020100D03*
X009100Y020100D03*
X010100Y020100D03*
X014100Y023100D03*
X015100Y023100D03*
X016100Y023100D03*
X017100Y023100D03*
X017100Y020100D03*
X016100Y020100D03*
X015100Y020100D03*
D23*
X014790Y024850D03*
X015910Y024850D03*
M02*
