%
M48
M72
T01C0.0276
T02C0.0315
T03C0.0320
T04C0.0330
T05C0.0400
T06C0.1260
%
T01
X4850Y8100
X3100Y8100
T02
X4600Y6100
X7100Y6100
X12350Y21350
X12350Y22850
X9350Y24600
T03
X7100Y14350
X7600Y15600
X8600Y12600
X8600Y11600
X8600Y10600
X8600Y9600
X8600Y8600
X11600Y8600
X11600Y9600
X11600Y10600
X11600Y11600
X11600Y12600
X12600Y15600
X12100Y17200
X12100Y18000
X9600Y18000
X9600Y17200
X14100Y12600
X14100Y11600
X14100Y10600
X14100Y9600
X14100Y8600
X17100Y8600
X17100Y9600
X17100Y10600
X17100Y11600
X17100Y12600
X17100Y14350
X17100Y17200
X17100Y18000
X14600Y18000
X14600Y17200
X13350Y26100
X13350Y29100
X13350Y30600
X13350Y32100
X12350Y30600
X11850Y32100
X11850Y35100
X13350Y35100
X15600Y35100
X17100Y35100
X17100Y32100
X17100Y30600
X17850Y29100
X17850Y26100
X15600Y27600
X15600Y28600
X16100Y30600
X15600Y32100
X11100Y28600
X11100Y27600
X8850Y29100
X7350Y30600
X6350Y30600
X5850Y32100
X5850Y35100
X7350Y35350
X7350Y32350
X6600Y28600
X6600Y27600
X4350Y26100
X4350Y29100
X3600Y30600
X3600Y32100
X2600Y30600
X2100Y32100
X2100Y35100
X3600Y35100
X2100Y28600
X2100Y27600
X2600Y24000
X2600Y23200
X2600Y21500
X2600Y20700
X2100Y19100
X2100Y16100
X4100Y16100
X4100Y19100
X8850Y26100
T04
X7100Y20100
X8100Y20100
X9100Y20100
X10100Y20100
X10100Y23100
X9100Y23100
X8100Y23100
X7100Y23100
X14100Y23100
X15100Y23100
X16100Y23100
X17100Y23100
X17100Y20100
X16100Y20100
X15100Y20100
X14100Y20100
T05
X3600Y2100
X4600Y2100
X5600Y2100
X6600Y2100
X10100Y3100
X11100Y3100
X12100Y3100
X13600Y3100
X14600Y3100
X15600Y3100
X3100Y13100
X3100Y14600
X2100Y14600
X2100Y13100
X11100Y36850
X11100Y37850
X6600Y37850
X6600Y36850
X2100Y36850
X2100Y37850
X15600Y37850
X15600Y36850
T06
X9850Y30850
X1100Y1100
X18600Y1100
M30
